SplineFontDB: 3.0
FontName: TaameyFrankCLM-Bold-Oblique
FullName: Taamey Frank CLM BoldOblique
FamilyName: Taamey Frank CLM
Weight: Bold
Copyright: Copyright (c) 2009-2010 by Yoram Gnat (yoram.gnat@gmail.com)\nDistributed under the terms of GNU General Public License version 2(http://www.gnu.org/licenses/gpl.html). \n\nHebrew OpenType Layout logic copyright (c) 2003 & 2007, Ralph Hancock & John Hudson. This layout logic for Biblical Hebrew is open source software under the MIT License; for details  contact copyright holders at <license@tiro.com>.\n\nLatin glyphs and part of punctuation, taken from Century Schoolbook L font, copyright 1999 by (URW)++ Design & Development  \n\nHebrew glyphs, vowels, cantillation marks and implementation of above layout logic copyright (c)2009-2010 by Yoram Gnat (yoramg@shenkar.ac.il). Distributed under the terms of GNU General Public Licence version 2 (http://www.gnu.org/licenses/gpl.html)\n\nAs a special exception, if you create a document which uses this font, and embed this font or unaltered portions of this font into the document, this font does not by itself cause the resulting document to be covered by the GNU General Public License. This exception does not however invalidate any other reasons why the document might be covered by the GNU General Public License. If you modify this font, you may extend this exception to your version of the font, but you are not obligated to do so. If you do not wish to do so, delete this exception statement from your version.
Version: 0.110
ItalicAngle: 13
UnderlinePosition: -170
UnderlineWidth: 70
Ascent: 1638
Descent: 410
LayerCount: 2
Layer: 0 0 "Back"  1
Layer: 1 0 "Fore"  0
XUID: [1021 594 1227166039 14964671]
FSType: 0
OS2Version: 0
OS2_WeightWidthSlopeOnly: 0
OS2_UseTypoMetrics: 1
CreationTime: 1244295734
ModificationTime: 1284286934
PfmFamily: 17
TTFWeight: 700
TTFWidth: 5
LineGap: 184
VLineGap: 0
Panose: 2 0 0 0 0 0 0 0 0 0
OS2TypoAscent: 1638
OS2TypoAOffset: 0
OS2TypoDescent: -410

StartChar: .notdef
Encoding: 65536 -1 0
Width: 942
GlyphClass: 2
Flags: W
HStem: -28 154<109 743> 238 180<292.375 422.525> 1132 88<56.7344 284.035> 1286 154<-159 475>
VStem: -61 109<1011.53 1116.12> 269 178<261.818 393.97> 269 87<474.422 693.521> 282 80<474 553.202> 356 144<781.552 1062.34>
LayerCount: 2
Fore
SplineSet
282 501 m 2xf9
 273 542 269 577 269 608 c 0
 269 755 356 807 356 924 c 0
 356 942 354 963 349 985 c 0
 329 1069 254 1132 177 1132 c 0
 93 1132 48 1097 48 1064 c 0
 48 1055 52 1045 60 1037 c 0
 75 1023 112 1006 121 965 c 0
 122 959 123 953 123 947 c 0
 123 910 93 887 58 887 c 0
 -6 887 -61 968 -61 1050 c 0
 -61 1135 -3 1220 161 1220 c 0
 325 1220 457 1124 492 970 c 0
 497 947 500 927 500 908 c 0xfa80
 500 839 467 794 435 751 c 1
 419 724 356 653 356 554 c 0xfa
 356 537 358 519 362 501 c 2
 369 474 l 1
 289 474 l 1
 282 501 l 2xf9
269 328 m 1xfc
 268 337 269 344 269 351 c 0
 269 408 309 418 336 418 c 0
 405 418 447 356 447 305 c 0
 447 269 426 238 378 238 c 1
 305 243 275 302 269 328 c 1xfc
743 126 m 1
 475 1286 l 1
 -159 1286 l 1
 109 126 l 1
 743 126 l 1
578 1440 m 1
 916 -28 l 1
 6 -28 l 1
 -332 1440 l 1
 578 1440 l 1
EndSplineSet
Validated: 1
EndChar

StartChar: sheva
Encoding: 1456 1456 37
Width: 0
GlyphClass: 4
Flags: W
HStem: -587 219<45.5458 174.796> -333 219<-12.7961 116.273>
VStem: -49 202<-296.406 -150.594> 9 202<-550.406 -404.594>
AnchorPoint: "A-8" -148.75 0 mark 0
AnchorPoint: "A-70" 0 0 mark 0
AnchorPoint: "A-48" -221 0 basemark 0
AnchorPoint: "A-4" 0 0 mark 0
LayerCount: 2
Fore
SplineSet
136 -587 m 0xd0
 58 -587 9 -510 9 -447 c 0
 9 -404 32 -368 85 -368 c 0
 162 -368 211 -445 211 -508 c 0
 211 -551 188 -587 136 -587 c 0xd0
77 -333 m 0
 -0 -333 -49 -256 -49 -193 c 0
 -49 -150 -26 -114 26 -114 c 0
 103 -114 153 -191 153 -254 c 0xe0
 153 -297 130 -333 77 -333 c 0
EndSplineSet
Validated: 1
LCarets2: 1 0 
EndChar

StartChar: hatafsegol
Encoding: 1457 1457 38
Width: 0
GlyphClass: 4
Flags: W
HStem: -587 219<-69.4098 58.4098 280.204 408.41> -333 219<-244.934 -118.204 -11.4566 116.273 221.204 349.41>
VStem: -282 200<-297.893 -150.594> -106 201<-549.999 -405.001> -47 200<-297.893 -150.917> 185 201<-296.406 -151.001> 244 201<-550.406 -405.001>
AnchorPoint: "A-73" -0.424805 0 mark 0
AnchorPoint: "A-48" -450.925 0 basemark 0
AnchorPoint: "A-6" -0.424805 0 mark 0
LayerCount: 2
Fore
SplineSet
370 -587 m 0xc2
 293 -587 244 -510 244 -447 c 0
 244 -404 267 -368 319 -368 c 0
 395 -368 445 -446 445 -509 c 0
 445 -551 422 -587 370 -587 c 0xc2
311 -333 m 0
 234 -333 185 -256 185 -193 c 0
 185 -150 208 -114 260 -114 c 0
 336 -114 386 -192 386 -255 c 0xc4
 386 -297 363 -333 311 -333 c 0
26 -114 m 0
 103 -114 153 -192 153 -254 c 0
 153 -297 130 -333 77 -333 c 0
 1 -333 -47 -255 -47 -192 c 0xc8
 -47 -150 -25 -114 26 -114 c 0
-31 -368 m 0
 45 -368 95 -446 95 -509 c 0
 95 -551 72 -587 20 -587 c 0
 -56 -587 -106 -509 -106 -446 c 0xd0
 -106 -404 -83 -368 -31 -368 c 0
-208 -114 m 0
 -131 -114 -82 -191 -82 -254 c 0
 -82 -297 -105 -333 -157 -333 c 0
 -233 -333 -282 -255 -282 -192 c 0xe0
 -282 -150 -260 -114 -208 -114 c 0
EndSplineSet
Validated: 1
LCarets2: 1 0 
EndChar

StartChar: hatafpatah
Encoding: 1458 1458 39
Width: 0
GlyphClass: 4
Flags: W
HStem: -587 219<243.59 371.796> -333 219<186.066 312.796> -288 149<-228 90>
VStem: 149 200<-297.893 -150.594> 207 201<-549.999 -404.594>
AnchorPoint: "A-73" -3.40039 0 mark 0
AnchorPoint: "A-48" -419.9 0 basemark 0
AnchorPoint: "A-6" -3.40039 0 mark 0
LayerCount: 2
Fore
SplineSet
124 -288 m 1xa0
 -228 -288 l 1
 -262 -139 l 1
 90 -139 l 1
 124 -288 l 1xa0
333 -587 m 0
 257 -587 207 -509 207 -446 c 0
 207 -404 230 -368 282 -368 c 0
 359 -368 408 -445 408 -508 c 0x88
 408 -551 385 -587 333 -587 c 0
274 -333 m 0xd0
 198 -333 149 -255 149 -192 c 0
 149 -150 171 -114 223 -114 c 0
 300 -114 349 -191 349 -254 c 0
 349 -297 326 -333 274 -333 c 0xd0
EndSplineSet
Validated: 1
LCarets2: 1 1 
EndChar

StartChar: hatafqamats
Encoding: 1459 1459 40
Width: 0
GlyphClass: 4
Flags: W
HStem: -587 219<243.543 370.796> -333 219<184.543 312.273> -288 149<-228 -93.8873 -5 89>
VStem: -109 199<-540.427 -449.472> -102 97<-362.002 -288> 149 200<-297.893 -150.594> 208 199<-551.893 -404.594>
AnchorPoint: "A-73" 2.125 0 mark 0
AnchorPoint: "A-48" -431.375 0 basemark 0
AnchorPoint: "A-6" 2.125 0 mark 0
LayerCount: 2
Fore
SplineSet
-5 -288 m 1xa8
 2 -314 10 -342 27 -373 c 1
 90 -472 l 1
 83 -519 77 -546 50 -581 c 1
 40 -584 30 -587 16 -587 c 0
 1 -587 -9 -584 -20 -581 c 1
 -63 -551 -80 -524 -109 -471 c 1xb0
 -92 -372 l 2
 -92 -370 -91 -367 -91 -363 c 0
 -91 -342 -99 -302 -102 -288 c 1
 -228 -288 l 1
 -262 -139 l 1
 89 -139 l 1
 123 -288 l 1
 -5 -288 l 1xa8
332 -587 m 0
 256 -587 208 -509 208 -446 c 0
 208 -404 230 -368 281 -368 c 0
 358 -368 407 -445 407 -508 c 0x82
 407 -551 384 -587 332 -587 c 0
273 -333 m 0xc4
 197 -333 149 -255 149 -192 c 0
 149 -150 171 -114 222 -114 c 0
 299 -114 349 -191 349 -254 c 0
 349 -297 326 -333 273 -333 c 0xc4
EndSplineSet
Validated: 1
LCarets2: 1 0 
EndChar

StartChar: hiriq
Encoding: 1460 1460 41
Width: 0
GlyphClass: 4
Flags: W
HStem: -333 219<-12.7961 116.273>
VStem: -49 202<-296.406 -150.594>
AnchorPoint: "A-59" 230.35 0 mark 0
AnchorPoint: "A-8" -150 0 mark 0
AnchorPoint: "A-70" 0 0 mark 0
AnchorPoint: "A-48" -204 0 basemark 0
AnchorPoint: "A-4" 0 0 mark 0
LayerCount: 2
Fore
SplineSet
77 -333 m 0
 -0 -333 -49 -256 -49 -193 c 0
 -49 -150 -26 -114 26 -114 c 0
 103 -114 153 -191 153 -254 c 0
 153 -297 130 -333 77 -333 c 0
EndSplineSet
Validated: 1
LCarets2: 1 -40 
EndChar

StartChar: tsere
Encoding: 1461 1461 42
Width: 0
GlyphClass: 4
Flags: W
HStem: -333 219<-120.796 8.27267 95.2039 224.273>
VStem: -157 202<-296.406 -150.594> 59 202<-296.406 -150.594>
AnchorPoint: "A-8" -149.77 -1 mark 0
AnchorPoint: "A-71" 0 0 mark 0
AnchorPoint: "A-48" -331.5 0 basemark 0
AnchorPoint: "A-5" 0 0 mark 0
LayerCount: 2
Fore
SplineSet
134 -114 m 0
 211 -114 261 -191 261 -254 c 0
 261 -297 238 -333 185 -333 c 0
 108 -333 59 -256 59 -193 c 0
 59 -150 82 -114 134 -114 c 0
-82 -114 m 0
 -5 -114 45 -191 45 -254 c 0
 45 -297 22 -333 -31 -333 c 0
 -108 -333 -157 -256 -157 -193 c 0
 -157 -150 -134 -114 -82 -114 c 0
EndSplineSet
Validated: 1
LCarets2: 1 0 
EndChar

StartChar: segol
Encoding: 1462 1462 43
Width: 0
GlyphClass: 4
Flags: W
HStem: -577 219<43.5458 172.454> -333 219<-130.796 -1.72733 105.204 234.273>
VStem: -167 202<-296.406 -150.594> 7 202<-540.406 -394.594> 69 202<-296.406 -150.594>
AnchorPoint: "A-8" -150 0 mark 0
AnchorPoint: "A-71" 0 0 mark 0
AnchorPoint: "A-48" -331.5 0 basemark 0
AnchorPoint: "A-5" 0 0 mark 0
LayerCount: 2
Fore
SplineSet
144 -114 m 0xc8
 221 -114 271 -191 271 -254 c 0
 271 -297 248 -333 195 -333 c 0
 118 -333 69 -256 69 -193 c 0
 69 -150 92 -114 144 -114 c 0xc8
83 -358 m 0
 160 -358 209 -435 209 -498 c 0
 209 -541 186 -577 133 -577 c 0
 56 -577 7 -500 7 -437 c 0xd0
 7 -394 30 -358 83 -358 c 0
-92 -114 m 0
 -15 -114 35 -191 35 -254 c 0
 35 -297 12 -333 -41 -333 c 0
 -118 -333 -167 -256 -167 -193 c 0xe0
 -167 -150 -144 -114 -92 -114 c 0
EndSplineSet
Validated: 1
LCarets2: 1 0 
EndChar

StartChar: patah
Encoding: 1463 1463 44
Width: 0
GlyphClass: 4
Flags: W
HStem: -288 149<-111 209>
VStem: -145 388
AnchorPoint: "A-8" -150 0 mark 0
AnchorPoint: "A-71" 0.424805 0 mark 0
AnchorPoint: "A-48" -288.575 0 basemark 0
AnchorPoint: "A-5" 0.424805 0 mark 0
LayerCount: 2
Fore
SplineSet
243 -288 m 1
 -111 -288 l 1
 -145 -139 l 1
 209 -139 l 1
 243 -288 l 1
EndSplineSet
Validated: 1
LCarets2: 1 0 
EndChar

StartChar: qamats
Encoding: 1464 1464 45
Width: 0
GlyphClass: 4
Flags: W
HStem: -288 149<-110 26.0002 114 208>
VStem: 10 198<-541.003 -449.472> 17 97<-357.054 -288>
AnchorPoint: "A-8" -150 0 mark 0
AnchorPoint: "A-71" -0.424805 0 mark 0
AnchorPoint: "A-48" -289.425 0 basemark 0
AnchorPoint: "A-5" -0.424805 0 mark 0
LayerCount: 2
Fore
SplineSet
114 -288 m 1xa0
 121 -314 128 -342 145 -373 c 1
 208 -472 l 1
 200 -525 194 -547 168 -583 c 1
 158 -585 149 -587 136 -587 c 0
 121 -587 111 -584 99 -581 c 1
 55 -551 39 -524 10 -472 c 1xc0
 26 -371 l 1
 27 -368 28 -363 28 -358 c 0
 28 -338 22 -306 17 -288 c 1xa0
 -110 -288 l 1
 -144 -139 l 1
 208 -139 l 1xc0
 242 -288 l 1
 114 -288 l 1xa0
EndSplineSet
Validated: 1
LCarets2: 1 0 
EndChar

StartChar: holam
Encoding: 1465 1465 46
Width: 0
GlyphClass: 4
Flags: W
HStem: 1167 219<-477.454 -348.204>
VStem: -514 202<1203.59 1349.41>
AnchorPoint: "A-21" -330.5 0 mark 0
AnchorPoint: "A-20" -330.5 0 mark 0
LayerCount: 2
Fore
SplineSet
-387 1167 m 0
 -465 1167 -514 1244 -514 1307 c 0
 -514 1350 -491 1386 -438 1386 c 0
 -361 1386 -312 1309 -312 1246 c 0
 -312 1203 -335 1167 -387 1167 c 0
EndSplineSet
Validated: 1
LCarets2: 1 -18 
EndChar

StartChar: holamhaser
Encoding: 1466 1466 47
Width: 0
GlyphClass: 4
Flags: W
HStem: 1167 219<-477.454 -348.204>
VStem: -514 202<1203.59 1349.41>
LayerCount: 2
Fore
SplineSet
-387 1167 m 0
 -465 1167 -514 1244 -514 1307 c 0
 -514 1350 -491 1386 -438 1386 c 0
 -361 1386 -312 1309 -312 1246 c 0
 -312 1203 -335 1167 -387 1167 c 0
EndSplineSet
Validated: 1
EndChar

StartChar: qubuts
Encoding: 1467 1467 48
Width: 0
GlyphClass: 4
Flags: W
HStem: -604 214<218.795 346.59> -469 214<22.4103 147.254> -321 214<-171.59 -45.7926>
VStem: -207 197<-286.82 -141.18> -13 195<-434.82 -288.746> 185 197<-571.021 -423.977>
AnchorPoint: "A-8" -150 0 mark 0
AnchorPoint: "A-72" -3.5 0 mark 0
AnchorPoint: "A-48" -360.5 0 basemark 0
AnchorPoint: "A-5" -3.5 0 mark 0
LayerCount: 2
Fore
SplineSet
110 -469 m 0x4c
 35 -469 -13 -393 -13 -332 c 0
 -13 -290 9 -255 61 -255 c 0
 135 -255 182 -331 182 -392 c 0
 182 -434 162 -469 110 -469 c 0x4c
-84 -321 m 0x34
 -159 -321 -207 -245 -207 -184 c 0
 -207 -142 -185 -107 -133 -107 c 0
 -59 -107 -10 -183 -10 -244 c 0
 -10 -286 -32 -321 -84 -321 c 0x34
308 -604 m 0x84
 233 -604 185 -530 185 -469 c 0x44
 185 -427 207 -390 259 -390 c 0
 334 -390 382 -466 382 -527 c 0
 382 -569 360 -604 308 -604 c 0x84
EndSplineSet
Validated: 1
LCarets2: 1 0 
EndChar

StartChar: dagesh
Encoding: 1468 1468 49
Width: 0
GlyphClass: 4
Flags: W
HStem: 410 218<-184.454 -55.5458>
VStem: -221 202<446.511 591.489>
AnchorPoint: "A-3" 0 0 mark 0
LayerCount: 2
Fore
SplineSet
-95 410 m 0
 -172 410 -221 487 -221 549 c 0
 -221 592 -198 628 -145 628 c 0
 -68 628 -19 551 -19 489 c 0
 -19 446 -42 410 -95 410 c 0
EndSplineSet
Validated: 1
LCarets2: 1 0 
EndChar

StartChar: meteg
Encoding: 1469 1469 50
Width: 0
GlyphClass: 4
Flags: W
HStem: -572 445<68 93>
VStem: -35 231
AnchorPoint: "A-63" -153.425 0 mark 0
AnchorPoint: "A-62" -272.425 0 mark 0
AnchorPoint: "A-61" -382.925 0 mark 0
AnchorPoint: "A-8" -170.425 0 mark 0
AnchorPoint: "A-73" -425.425 0 basemark 0
AnchorPoint: "A-72" -340.425 0 basemark 0
AnchorPoint: "A-71" -306.425 0 basemark 0
AnchorPoint: "A-70" -238.425 0 basemark 0
AnchorPoint: "A-48" 50 0 mark 0
AnchorPoint: "A-4" -0.424805 0 mark 0
LayerCount: 2
Fore
SplineSet
196 -572 m 1
 68 -572 l 1
 -35 -127 l 1
 93 -127 l 1
 196 -572 l 1
EndSplineSet
Validated: 1
Ligature2: "remove taam before meteg table" lowerdot meteg
Ligature2: "remove taam before meteg table" dehi meteg
Ligature2: "remove taam before meteg table" yerahbenyomo meteg
Ligature2: "remove taam before meteg table" darga meteg
Ligature2: "remove taam before meteg table" merkhakefula meteg
Ligature2: "remove taam before meteg table" merkha meteg
Ligature2: "remove taam before meteg table" mahapakh meteg
Ligature2: "remove taam before meteg table" munah meteg
Ligature2: "remove taam before meteg table" atnahhafukh meteg
Ligature2: "remove taam before meteg table" tevir meteg
Ligature2: "remove taam before meteg table" yetiv meteg
Ligature2: "remove taam before meteg table" tipeha meteg
Ligature2: "remove taam before meteg table" atnah meteg
LCarets2: 1 0 
EndChar

StartChar: makaf
Encoding: 1470 1470 51
Width: 686
GlyphClass: 2
Flags: W
HStem: 802 278<-119.967 376.816>
VStem: -122 499<802 1080>
LayerCount: 2
Fore
SplineSet
341 1080 m 2
 350 1080 373 1077 381 1042 c 1
 377 935 l 1
 377 923 377 911 377 901 c 0
 377 884 377 871 377 859 c 0
 377 814 374 802 349 802 c 2
 -79 802 l 2
 -115 802 -122 834 -122 880 c 0
 -122 894 -122 909 -122 925 c 0
 -122 933 -122 941 -122 949 c 2
 -122 1055 l 1
 -118 1073 -102 1080 -89 1080 c 2
 341 1080 l 2
EndSplineSet
Validated: 1
EndChar

StartChar: rafe
Encoding: 1471 1471 52
Width: 0
GlyphClass: 4
Flags: W
HStem: 1169 149<-492 -82>
VStem: -526 478
AnchorPoint: "A-3" -6 0 mark 0
LayerCount: 2
Fore
SplineSet
-48 1169 m 1
 -492 1169 l 1
 -526 1318 l 1
 -82 1318 l 1
 -48 1169 l 1
EndSplineSet
Validated: 1
LCarets2: 1 0 
EndChar

StartChar: paseq
Encoding: 1472 1472 53
Width: 644
GlyphClass: 2
Flags: W
VStem: -77 462
LayerCount: 2
Fore
SplineSet
385 -164 m 1
 245 -164 l 1
 -77 1229 l 1
 63 1229 l 1
 385 -164 l 1
EndSplineSet
Validated: 1
EndChar

StartChar: shindot
Encoding: 1473 1473 54
Width: 0
GlyphClass: 4
Flags: W
HStem: 1167 219<-359.454 -230.204>
VStem: -396 202<1203.59 1349.41>
AnchorPoint: "A-60" -329.8 0 mark 0
LayerCount: 2
Fore
SplineSet
-269 1167 m 0
 -347 1167 -396 1244 -396 1307 c 0
 -396 1350 -373 1386 -320 1386 c 0
 -243 1386 -194 1309 -194 1246 c 0
 -194 1203 -217 1167 -269 1167 c 0
EndSplineSet
Validated: 1
EndChar

StartChar: sindot
Encoding: 1474 1474 55
Width: 0
GlyphClass: 4
Flags: W
HStem: 1167 219<-359.454 -230.204>
VStem: -396 202<1203.59 1349.41>
AnchorPoint: "A-60" 357 0 mark 0
LayerCount: 2
Fore
SplineSet
-269 1167 m 0
 -347 1167 -396 1244 -396 1307 c 0
 -396 1350 -373 1386 -320 1386 c 0
 -243 1386 -194 1309 -194 1246 c 0
 -194 1203 -217 1167 -269 1167 c 0
EndSplineSet
Validated: 1
EndChar

StartChar: sofpasuq
Encoding: 1475 1475 56
Width: 545
GlyphClass: 2
Flags: W
LayerCount: 2
Fore
SplineSet
-107 795 m 1
 -9 959 l 2
 6 986 16 988 45 959 c 1
 217 795 l 1
 232 780 240 769 240 755 c 0
 240 748 237 740 232 730 c 1
 135 567 l 2
 119 540 110 538 81 567 c 1
 -92 730 l 1
 -108 747 -115 758 -115 770 c 0
 -115 777 -112 785 -107 795 c 1
27 218 m 2
 123 384 l 2
 139 411 149 413 177 384 c 1
 351 218 l 2
 375 196 379 179 365 157 c 2
 268 -9 l 2
 252 -36 243 -38 214 -9 c 1
 41 157 l 2
 15 183 12 194 27 218 c 2
EndSplineSet
Validated: 1
EndChar

StartChar: nunhapukha
Encoding: 1478 1478 59
Width: 692
GlyphClass: 2
Flags: W
HStem: 0 296<260 488> 786 273<139.235 312.773>
VStem: -106 429<840.297 1045>
LayerCount: 2
Fore
SplineSet
-15 1132 m 1
 11 1091 31 1055 124 1055 c 0
 155 1055 190 1059 226 1059 c 0
 249 1059 272 1057 294 1051 c 1
 323 1045 l 1
 312 778 l 1
 287 782 l 1
 266 784 248 786 231 786 c 0
 173 786 153 772 153 741 c 0
 153 689 210 589 248 426 c 0
 253 403 254 394 256 387 c 1
 260 296 l 1
 488 295 l 1
 638 0 l 1
 168 0 l 1
 155 25 141 65 126 130 c 0
 101 239 133 369 92 546 c 0
 70 641 22 686 16 782 c 1
 -85 816 -106 927 -106 1015 c 0
 -106 1071 -98 1118 -96 1132 c 1
 -15 1132 l 1
EndSplineSet
Validated: 1
EndChar

StartChar: qamatsqatan
Encoding: 1479 1479 60
Width: 0
GlyphClass: 4
Flags: W
HStem: -275 136<-112 22.174 112 208>
VStem: 19 198<-580.539 -485.124>
AnchorPoint: "A-8" -150 0 mark 0
AnchorPoint: "A-71" -0.424805 0 mark 0
AnchorPoint: "A-48" -289.425 0 basemark 0
AnchorPoint: "A-5" -0.424805 0 mark 0
LayerCount: 2
Fore
SplineSet
145 -628 m 0
 105 -628 74 -611 19 -513 c 1
 26 -371 l 2
 26 -347 20 -295 15 -275 c 1
 -112 -275 l 1
 -144 -139 l 1
 208 -139 l 1
 240 -275 l 1
 112 -275 l 1
 117 -295 127 -336 145 -373 c 2
 217 -513 l 1
 210 -566 204 -588 177 -624 c 1
 168 -626 158 -628 145 -628 c 0
EndSplineSet
Validated: 1
EndChar

StartChar: alef
Encoding: 1488 1488 61
Width: 1158
GlyphClass: 2
Flags: W
HStem: -17 21G<947.556 1036> 0 73<187 220.983>
VStem: 65 169<427.346 567.461> 447 444<842 1028>
AnchorPoint: "A-63" 591.975 0 basechar 0
AnchorPoint: "A-62" 591.975 0 basechar 0
AnchorPoint: "A-61" 591.975 0 basechar 0
AnchorPoint: "A-59" 86.2246 0 basechar 0
AnchorPoint: "A-21" -279.275 0 basechar 0
AnchorPoint: "A-8" 591.975 0 basechar 0
AnchorPoint: "A-20" 120.225 0 basechar 0
AnchorPoint: "A-7" 630 0 basechar 0
AnchorPoint: "A-6" 640 0 basechar 0
AnchorPoint: "A-5" 630 0 basechar 0
AnchorPoint: "A-4" 630 0 basechar 0
LayerCount: 2
Fore
SplineSet
688 1056 m 0x70
 736 1056 891 988 891 842 c 0
 891 801 879 753 849 700 c 1
 794 700 l 1
 785 717 778 736 776 759 c 1
 755 709 740 660 740 612 c 0
 740 555 761 500 819 448 c 1
 935 346 l 2
 1006 284 1070 198 1070 110 c 0
 1070 68 1055 24 1017 -17 c 1
 952 -17 l 1xb0
 946 10 l 2
 935 55 908 92 875 121 c 1
 292 603 l 1
 252 578 234 549 234 517 c 0
 234 509 235 502 237 494 c 0
 262 386 486 299 518 162 c 1
 520 151 521 141 521 132 c 0
 521 52 463 4 414 0 c 1
 407 0 l 1
 412 -28 410 -28 404 0 c 1
 187 0 l 1
 170 73 l 1
 198 80 221 86 221 110 c 0
 221 112 222 116 221 119 c 0
 206 185 65 306 65 442 c 0
 65 510 100 583 203 654 c 1
 78 763 l 1
 -26 855 -55 938 -55 1002 c 0
 -55 1079 -13 1129 -8 1136 c 1
 58 1136 l 1
 65 1108 l 2
 75 1066 97 1023 137 987 c 1
 609 600 l 1
 614 664 628 716 652 769 c 1
 543 797 478 867 454 970 c 0
 449 992 447 1011 447 1028 c 0
 447 1076 463 1107 478 1136 c 1
 548 1136 l 1
 558 1116 l 1
 586 1069 624 1056 688 1056 c 0x70
EndSplineSet
Validated: 1
LCarets2: 1 90 
Substitution2: "'jalt' Wide Letter Alternatives in Hebrew subtable" alef.wide
EndChar

StartChar: bet
Encoding: 1489 1489 62
Width: 1077
GlyphClass: 2
Flags: W
HStem: 0 295<122.484 735 842 986> 782 274<73.4138 626.389>
VStem: 105 912<2.173 293.448> 735 121<297.65 570.597>
AnchorPoint: "A-63" 512.55 0 basechar 0
AnchorPoint: "A-62" 512.55 0 basechar 0
AnchorPoint: "A-61" 512.55 0 basechar 0
AnchorPoint: "A-59" 83.2998 0 basechar 0
AnchorPoint: "A-21" -282.2 0 basechar 0
AnchorPoint: "A-8" 512.55 0 basechar 0
AnchorPoint: "A-20" 66.2998 0 basechar 0
AnchorPoint: "A-7" 550 0 basechar 0
AnchorPoint: "A-6" 560 0 basechar 0
AnchorPoint: "A-5" 550 0 basechar 0
AnchorPoint: "A-4" 600 0 basechar 0
LayerCount: 2
Fore
SplineSet
138 0 m 1xe0
 117 46 105 115 105 182 c 0xe0
 105 222 110 262 119 295 c 1
 735 295 l 1
 732 458 659 734 611 764 c 0
 586 779 534 782 438 782 c 2
 181 782 l 2
 70 782 -14 853 -36 950 c 0
 -41 970 -43 989 -43 1006 c 0
 -43 1067 -16 1105 0 1130 c 1
 58 1130 l 1
 68 1110 l 2
 85 1076 117 1056 161 1056 c 2
 328 1056 l 2
 695 1056 751 962 813 694 c 2
 843 562 l 2
 852 524 856 475 856 428 c 0xd0
 856 379 852 331 842 296 c 1
 986 295 l 1
 992 268 l 2
 998 240 1017 146 1017 59 c 0
 1017 39 1016 19 1014 0 c 1
 138 0 l 1xe0
EndSplineSet
Validated: 1
LCarets2: 1 81 
EndChar

StartChar: gimel
Encoding: 1490 1490 63
Width: 720
GlyphClass: 2
Flags: W
HStem: -21 283<81 251.868>
VStem: 298 381<63 521.5>
AnchorPoint: "A-3" 380 0 basechar 0
AnchorPoint: "A-63" 373.3 0 basechar 0
AnchorPoint: "A-62" 373.3 0 basechar 0
AnchorPoint: "A-61" 373.3 0 basechar 0
AnchorPoint: "A-59" 67.2998 0 basechar 0
AnchorPoint: "A-21" -298.2 0 basechar 0
AnchorPoint: "A-8" 373.3 0 basechar 0
AnchorPoint: "A-20" 143.8 0 basechar 0
AnchorPoint: "A-7" 373.3 0 basechar 0
AnchorPoint: "A-6" 373.3 0 basechar 0
AnchorPoint: "A-5" 400 0 basechar 0
AnchorPoint: "A-4" 400 0 basechar 0
LayerCount: 2
Fore
SplineSet
392 597 m 0
 429 436 679 272 679 79 c 0
 679 47 672 15 657 -18 c 1
 600 -18 l 1
 395 299 l 1
 342 0 l 1
 81 -21 l 1
 80 262 l 1
 198 282 238 280 269 325 c 0
 289 354 298 404 298 460 c 0
 298 583 254 737 190 769 c 0
 183 772 175 775 152 780 c 2
 111 789 l 1
 -14 815 -27 868 -46 947 c 0
 -50 965 -52 981 -52 996 c 0
 -52 1055 -25 1096 -8 1123 c 1
 55 1123 l 1
 64 1102 l 1
 77 1067 72 1073 76 1060 c 1
 80 1059 80 1058 92 1057 c 2
 167 1050 l 2
 372 1032 344 806 392 597 c 0
EndSplineSet
Validated: 1
LCarets2: 1 54 
EndChar

StartChar: dalet
Encoding: 1491 1491 64
Width: 989
GlyphClass: 2
Flags: W
HStem: -27 21G<584.762 687.5> 780 276<-11.2314 534>
VStem: 469 168<458.3 752.203> 575 193<14.3364 261.168>
AnchorPoint: "A-3" 530 0 basechar 0
AnchorPoint: "A-63" 523.75 0 basechar 0
AnchorPoint: "A-62" 438.75 0 basechar 0
AnchorPoint: "A-61" 353.75 0 basechar 0
AnchorPoint: "A-59" 39.25 0 basechar 0
AnchorPoint: "A-21" -326.25 0 basechar 0
AnchorPoint: "A-8" 494 0 basechar 0
AnchorPoint: "A-20" -45.75 0 basechar 0
AnchorPoint: "A-7" 520 0 basechar 0
AnchorPoint: "A-6" 560 0 basechar 0
AnchorPoint: "A-5" 650 0 basechar 0
AnchorPoint: "A-4" 650 0 basechar 0
LayerCount: 2
Fore
SplineSet
-117 941 m 0xe0
 -123 965 -125 986 -125 1005 c 0
 -125 1073 -95 1110 -83 1126 c 1
 -24 1126 l 1
 -14 1106 l 2
 -5 1087 12 1056 69 1056 c 2
 538 1056 l 2
 645 1056 698 1022 722 919 c 0
 727 895 730 877 730 861 c 0
 730 789 678 792 647 714 c 1
 640 698 637 680 637 659 c 0xe0
 637 554 714 386 759 192 c 0
 763 176 768 151 768 123 c 0
 768 63 744 -9 631 -27 c 1
 610 -27 l 1
 557 15 l 1
 569 39 575 59 575 82 c 0xd0
 575 142 536 218 489 423 c 0
 476 481 469 534 469 582 c 0
 469 662 488 727 534 780 c 1
 102 780 l 2
 -12 780 -94 841 -117 941 c 0xe0
EndSplineSet
Validated: 1
LCarets2: 1 73 
Substitution2: "'jalt' Wide Letter Alternatives in Hebrew subtable" dalet.wide
EndChar

StartChar: he
Encoding: 1492 1492 65
Width: 1181
GlyphClass: 2
Flags: W
HStem: -27 21G<882 919> 780 276<88.0116 758.943>
VStem: 148 184<197.134 473.994> 214 185<8.0674 244.03> 740 139<506.649 778.99> 867 176<21.8892 267.151>
AnchorPoint: "A-63" 597.592 0 basechar 0
AnchorPoint: "A-62" 597.592 0 basechar 0
AnchorPoint: "A-61" 597.592 0 basechar 0
AnchorPoint: "A-59" 100.342 0 basechar 0
AnchorPoint: "A-21" -265.158 0 basechar 0
AnchorPoint: "A-8" 597.592 0 basechar 0
AnchorPoint: "A-20" 100.342 0 basechar 0
AnchorPoint: "A-7" 620 0 basechar 0
AnchorPoint: "A-6" 620 0 basechar 0
AnchorPoint: "A-5" 630 0 basechar 0
AnchorPoint: "A-4" 600 0 basechar 0
LayerCount: 2
Fore
SplineSet
362 474 m 1xe0
 362 474 332 466 332 400 c 0xe0
 332 379 334 353 342 320 c 0
 363 228 399 144 399 80 c 0
 399 17 363 -26 239 -34 c 1
 191 20 l 1
 207 37 214 49 214 67 c 0xd0
 214 99 191 148 161 278 c 0
 152 317 148 353 148 384 c 0
 148 489 195 551 279 551 c 0
 305 551 320 544 348 532 c 1
 362 474 l 1xe0
-22 943 m 0
 -27 966 -29 987 -29 1005 c 0
 -29 1073 1 1109 13 1126 c 1
 73 1126 l 1
 83 1106 l 2
 96 1078 118 1056 161 1056 c 2
 704 1056 l 2
 835 1056 874 1002 893 919 c 2
 903 873 l 2
 906 861 907 851 907 842 c 0
 907 797 879 780 879 708 c 0xc8
 879 682 882 649 893 604 c 0
 921 481 1004 321 1034 192 c 0
 1040 165 1043 141 1043 120 c 0
 1043 -10 936 -22 902 -27 c 1
 854 21 l 1
 861 40 867 57 867 81 c 0xc4
 867 93 866 107 862 123 c 0
 825 283 740 490 740 654 c 0xc8
 740 700 747 743 763 780 c 1
 192 780 l 2
 78 780 0 847 -22 943 c 0
EndSplineSet
Validated: 1
LCarets2: 1 88 
Substitution2: "'jalt' Wide Letter Alternatives in Hebrew subtable" he.wide
EndChar

StartChar: vav
Encoding: 1493 1493 66
Width: 539
GlyphClass: 2
Flags: W
HStem: -20 21G<331 409> 756 300<-24.5054 158.291>
VStem: 331 123<-4 58.061>
AnchorPoint: "A-63" 264.25 0 basechar 0
AnchorPoint: "A-62" 196.25 0 basechar 0
AnchorPoint: "A-61" 264.25 0 basechar 0
AnchorPoint: "A-59" 56 0 basechar 0
AnchorPoint: "A-21" 158 0 basechar 0
AnchorPoint: "A-8" 349.25 0 basechar 0
AnchorPoint: "A-20" 158 0 basechar 0
AnchorPoint: "A-7" 295 0 basechar 0
AnchorPoint: "A-6" 320 0 basechar 0
AnchorPoint: "A-5" 370 0 basechar 0
AnchorPoint: "A-4" 380 0 basechar 0
LayerCount: 2
Fore
SplineSet
-105 1117 m 1
 -89 1114 -49 1112 -45 1112 c 1
 -35 1094 -40 1056 50 1056 c 0
 195 1056 256 950 285 824 c 2
 450 107 l 2
 453 95 454 84 454 73 c 0
 454 29 431 -4 387 -20 c 1
 331 -4 l 1
 176 667 l 2
 172 683 161 728 137 756 c 1
 114 756 123 754 83 761 c 1
 22 777 -111 803 -150 970 c 0
 -153 982 -154 994 -154 1006 c 0
 -154 1069 -118 1117 -105 1117 c 1
EndSplineSet
Validated: 1
LCarets2: 1 39 
EndChar

StartChar: zain
Encoding: 1494 1494 67
Width: 604
GlyphClass: 2
Flags: W
HStem: -21 21G<237.021 278.5>
VStem: 89 121<572.086 772.958> 227 172<22.4847 264.769>
AnchorPoint: "A-63" 223.139 0 basechar 0
AnchorPoint: "A-62" 223.139 0 basechar 0
AnchorPoint: "A-61" 223.139 0 basechar 0
AnchorPoint: "A-59" 61.6387 0 basechar 0
AnchorPoint: "A-21" -303.861 0 basechar 0
AnchorPoint: "A-8" 316.639 0 basechar 0
AnchorPoint: "A-20" 19.1387 0 basechar 0
AnchorPoint: "A-7" 300 0 basechar 0
AnchorPoint: "A-6" 308.139 0 basechar 0
AnchorPoint: "A-5" 300 0 basechar 0
AnchorPoint: "A-4" 316.639 0 basechar 0
LayerCount: 2
Fore
SplineSet
283 1005 m 1
 333 977 372 912 372 836 c 0
 372 797 362 755 337 713 c 1
 284 713 l 1
 276 734 l 1
 264 755 218 772 210 774 c 1
 217 559 346 404 388 221 c 0
 395 189 399 161 399 137 c 0
 399 2 297 -15 260 -21 c 1
 206 26 l 1
 217 49 l 1
 224 64 227 80 227 98 c 0
 227 221 89 418 89 661 c 0
 89 701 93 742 102 785 c 1
 -26 785 -107 870 -129 964 c 0
 -135 989 -137 1011 -137 1030 c 0
 -137 1083 -119 1118 -102 1147 c 1
 -39 1147 l 1
 -30 1125 l 2
 -22 1107 -8 1087 24 1080 c 0
 170 1050 235 1024 283 1005 c 1
EndSplineSet
Validated: 1
LCarets2: 1 46 
EndChar

StartChar: het
Encoding: 1495 1495 68
Width: 1175
GlyphClass: 2
Flags: W
HStem: -27 21G<219.745 256 876.408 914.5> 780 276<227.736 749.266>
VStem: 90 135<515.105 778.499> 208 174<18.243 280.461> 731 140<506.957 778.548> 861 175<22.5655 266.159>
AnchorPoint: "A-63" 594.325 0 basechar 0
AnchorPoint: "A-62" 594.325 0 basechar 0
AnchorPoint: "A-61" 594.325 0 basechar 0
AnchorPoint: "A-59" 58.8252 0 basechar 0
AnchorPoint: "A-21" -306.675 0 basechar 0
AnchorPoint: "A-8" 594.325 0 basechar 0
AnchorPoint: "A-20" 58.8252 0 basechar 0
AnchorPoint: "A-7" 615 0 basechar 0
AnchorPoint: "A-6" 620 0 basechar 0
AnchorPoint: "A-5" 594.325 0 basechar 0
AnchorPoint: "A-4" 620 0 basechar 0
AnchorPoint: "A-3" 594.325 0 basechar 0
LayerCount: 2
Fore
SplineSet
193 24 m 1xd0
 203 46 208 68 208 92 c 0xd0
 208 173 157 274 116 451 c 2
 108 485 l 2
 96 535 90 581 90 622 c 0
 90 682 103 733 133 780 c 1
 25 799 -9 866 -27 943 c 0
 -32 966 -34 987 -34 1005 c 0
 -34 1073 -4 1109 8 1126 c 1
 68 1126 l 1
 78 1106 l 2
 87 1089 104 1056 162 1056 c 2
 700 1056 l 2
 803 1056 862 1029 888 919 c 0
 895 890 897 867 897 848 c 0
 897 787 871 764 871 698 c 0xe8
 871 673 875 644 884 604 c 0
 908 498 997 316 1026 192 c 0
 1033 163 1036 138 1036 117 c 0
 1036 -11 933 -22 896 -27 c 1
 848 22 l 1
 853 34 861 50 861 79 c 0xc4
 861 92 860 108 855 128 c 0
 808 331 731 506 731 656 c 0
 731 700 738 741 753 780 c 1
 256 780 l 1
 237 763 225 746 225 709 c 0xe8
 225 688 229 661 237 624 c 0
 265 504 341 346 371 218 c 0
 379 184 382 154 382 129 c 0
 382 -11 275 -22 237 -27 c 1
 193 24 l 1xd0
EndSplineSet
Validated: 1
LCarets2: 1 91 
EndChar

StartChar: tet
Encoding: 1496 1496 69
Width: 1125
GlyphClass: 2
Flags: W
HStem: 0 295<336.386 799.229> 780 303<491.861 712.77>
VStem: -95 390<869.281 1004.95> 67 105<543.061 780> 806 133<243 673.288>
AnchorPoint: "A-63" 548.25 0 basechar 0
AnchorPoint: "A-62" 548.25 0 basechar 0
AnchorPoint: "A-61" 548.25 0 basechar 0
AnchorPoint: "A-59" 46.75 0 basechar 0
AnchorPoint: "A-21" -318.75 0 basechar 0
AnchorPoint: "A-8" 548.25 0 basechar 0
AnchorPoint: "A-20" 29.75 0 basechar 0
AnchorPoint: "A-7" 600 0 basechar 0
AnchorPoint: "A-6" 600 0 basechar 0
AnchorPoint: "A-5" 570 0 basechar 0
AnchorPoint: "A-4" 580 0 basechar 0
LayerCount: 2
Fore
SplineSet
284 0 m 1xd8
 234 218 67 445 67 710 c 0xd8
 67 735 69 760 72 786 c 1
 -18 810 -66 865 -87 959 c 0
 -93 982 -95 1001 -95 1020 c 0
 -95 1047 -90 1072 -81 1108 c 1
 0 1108 l 1
 9 1084 25 1056 92 1056 c 0
 189 1056 263 1031 286 933 c 0
 289 917 295 858 295 807 c 0xe8
 295 790 295 773 293 760 c 1
 282 745 275 741 260 741 c 0
 244 741 233 756 195 780 c 1
 184 782 180 778 173 780 c 1
 172 768 172 757 172 746 c 0
 172 579 265 433 364 295 c 1
 791 295 l 1
 801 341 806 380 806 421 c 0
 806 479 796 541 776 630 c 0
 746 756 675 780 606 780 c 2
 586 780 l 2
 539 780 479 773 466 670 c 1
 463 645 l 1
 363 666 l 1
 363 692 l 1
 365 885 386 1083 587 1083 c 0
 759 1083 844 899 900 658 c 0
 926 545 939 422 939 289 c 0
 939 197 933 101 921 0 c 1
 284 0 l 1xd8
EndSplineSet
Validated: 1
LCarets2: 1 85 
EndChar

StartChar: yod
Encoding: 1497 1497 70
Width: 509
GlyphClass: 2
Flags: W
HStem: 766 290<-50.4186 143.24>
VStem: 164 124<514.564 712.427>
AnchorPoint: "A-63" 222.875 0 basechar 0
AnchorPoint: "A-62" 222.875 0 basechar 0
AnchorPoint: "A-61" 222.875 0 basechar 0
AnchorPoint: "A-59" 44.375 0 basechar 0
AnchorPoint: "A-21" -321.125 0 basechar 0
AnchorPoint: "A-8" 239.875 0 basechar 0
AnchorPoint: "A-20" -15.125 0 basechar 0
AnchorPoint: "A-7" 230 0 basechar 0
AnchorPoint: "A-6" 250 0 basechar 0
AnchorPoint: "A-5" 239.875 0 basechar 0
AnchorPoint: "A-4" 280 0 basechar 0
LayerCount: 2
Fore
SplineSet
171 418 m 1
 93 490 l 1
 113 508 l 1
 149 542 164 572 164 613 c 0
 164 633 160 656 154 683 c 2
 145 722 l 2
 138 752 134 766 74 766 c 0
 -49 766 -131 852 -156 961 c 0
 -159 976 -161 990 -161 1003 c 0
 -161 1037 -151 1068 -137 1113 c 1
 -58 1113 l 1
 -45 1076 -16 1060 20 1060 c 1
 56 1056 l 1
 126 1056 230 975 257 858 c 2
 275 779 l 2
 283 744 288 705 288 668 c 0
 288 568 257 470 188 428 c 2
 171 418 l 1
EndSplineSet
Validated: 1
LCarets2: 1 36 
EndChar

StartChar: finalkaf
Encoding: 1498 1498 71
Width: 956
GlyphClass: 2
Flags: W
HStem: 780 280<-2.29913 514>
VStem: 771 141<-331.511 -157.868>
AnchorPoint: "A-63" 279.95 0 basechar 0
AnchorPoint: "A-62" 220.45 0 basechar 0
AnchorPoint: "A-61" 118.45 0 basechar 0
AnchorPoint: "A-59" 84.4502 0 basechar 0
AnchorPoint: "A-21" -281.05 0 basechar 0
AnchorPoint: "A-8" 347.95 0 basechar 0
AnchorPoint: "A-20" 16.4502 0 basechar 0
AnchorPoint: "A-7" 240 0 basechar 0
AnchorPoint: "A-6" 300 0 basechar 0
AnchorPoint: "A-5" 373.45 0 basechar 0
AnchorPoint: "A-4" 450 0 basechar 0
LayerCount: 2
Fore
SplineSet
752 -273 m 2
 514 780 l 1
 98 780 l 2
 -12 780 -87 846 -109 942 c 0
 -114 965 -117 985 -117 1004 c 0
 -117 1063 -93 1101 -76 1127 c 1
 -15 1127 l 1
 -6 1106 l 1
 8 1075 36 1060 85 1060 c 2
 502 1059 l 2
 622 1059 670 995 686 927 c 2
 693 897 l 2
 696 886 697 875 697 865 c 0
 697 847 693 831 684 817 c 1
 663 771 l 1
 658 763 656 752 666 711 c 1
 897 -156 l 1
 906 -196 912 -226 912 -251 c 0
 912 -303 887 -329 820 -356 c 0
 818 -356 771 -334 771 -334 c 25
 771 -334 753 -280 752 -273 c 2
EndSplineSet
Validated: 1
LCarets2: 1 72 
EndChar

StartChar: kaf
Encoding: 1499 1499 72
Width: 1052
GlyphClass: 2
Flags: W
HStem: 0 295<125 704.229> 781 278<49.9566 560.675>
VStem: 729 166<176 562.64>
AnchorPoint: "A-63" 469.65 0 basechar 0
AnchorPoint: "A-62" 469.65 0 basechar 0
AnchorPoint: "A-61" 469.65 0 basechar 0
AnchorPoint: "A-59" 78.6504 0 basechar 0
AnchorPoint: "A-21" -286.85 0 basechar 0
AnchorPoint: "A-8" 469.65 0 basechar 0
AnchorPoint: "A-20" 44.6504 0 basechar 0
AnchorPoint: "A-7" 480 0 basechar 0
AnchorPoint: "A-6" 469.65 0 basechar 0
AnchorPoint: "A-5" 469.65 0 basechar 0
AnchorPoint: "A-4" 500 0 basechar 0
LayerCount: 2
Fore
SplineSet
858 538 m 0
 882 434 895 348 895 277 c 0
 895 75 787 -0 508 0 c 2
 125 0 l 1
 112 295 l 1
 552 295 l 2
 681 295 729 329 729 417 c 0
 729 448 723 485 713 529 c 0
 671 712 624 781 461 781 c 2
 145 781 l 2
 35 781 -35 852 -56 946 c 0
 -61 968 -63 987 -63 1005 c 0
 -63 1065 -38 1101 -22 1126 c 1
 38 1126 l 1
 48 1106 l 2
 61 1079 83 1059 133 1059 c 2
 376 1059 l 2
 600 1059 771 914 858 538 c 0
EndSplineSet
Validated: 1
LCarets2: 1 74 
Substitution2: "'jalt' Wide Letter Alternatives in Hebrew subtable" kaf.wide
EndChar

StartChar: lamed
Encoding: 1500 1500 73
Width: 1011
GlyphClass: 2
Flags: W
HStem: -22 21G<515.5 583.5> 777 281<32.2408 658.656>
VStem: -245 278<1339.57 1471.95> -219 72<1523.51 1548> -90 113<1068.74 1305.34> 393 216<38.2066 250.932> 688 141<485 684.574>
AnchorPoint: "A-63" 397.325 0 basechar 0
AnchorPoint: "A-62" 371.825 0 basechar 0
AnchorPoint: "A-61" 397.325 0 basechar 0
AnchorPoint: "A-59" 133.825 0 basechar 0
AnchorPoint: "A-21" -231.675 0 basechar 0
AnchorPoint: "A-8" 490.825 0 basechar 0
AnchorPoint: "A-20" -149.222 -90 basechar 0
AnchorPoint: "A-7" 500 0 basechar 0
AnchorPoint: "A-6" 490 0 basechar 0
AnchorPoint: "A-5" 530 0 basechar 0
AnchorPoint: "A-4" 520 0 basechar 0
LayerCount: 2
Fore
SplineSet
-242 1402 m 0xce
 -243 1408 -245 1422 -245 1442 c 0xe6
 -245 1476 -240 1525 -219 1572 c 1
 -157 1572 l 1
 -147 1548 l 2xd6
 -147 1546 -143 1534 -117 1524 c 2
 -76 1509 l 2
 -19 1487 21 1453 33 1404 c 0
 33 1402 33 1401 33 1397 c 0xe6
 33 1385 32 1351 25 1232 c 1
 23 1180 l 1
 23 1171 23 1163 23 1156 c 0
 23 1072 41 1058 136 1058 c 2
 510 1058 l 2
 576 1058 634 1043 682 1009 c 1
 736 969 770 879 793 780 c 2
 817 677 l 2
 825 642 829 611 829 582 c 0
 829 539 820 502 799 473 c 2
 654 270 l 1
 620 229 609 198 609 170 c 0
 609 135 627 107 634 77 c 0
 636 66 638 56 638 45 c 0
 638 9 619 -22 548 -22 c 0
 483 -22 413 33 397 106 c 0
 394 117 393 127 393 138 c 0
 393 213 457 280 531 359 c 1
 660 503 l 1
 680 529 688 559 688 592 c 0
 688 608 686 625 682 643 c 2
 668 701 l 2
 650 774 640 777 486 777 c 2
 150 777 l 2
 -14 777 -90 900 -90 1077 c 0
 -90 1103 -88 1130 -85 1158 c 2
 -76 1243 l 2
 -73 1270 -74 1278 -102 1291 c 2
 -163 1318 l 2
 -190 1330 -230 1351 -242 1402 c 0xce
EndSplineSet
Validated: 1
LCarets2: 1 67 
Substitution2: "'jalt' Wide Letter Alternatives in Hebrew subtable" lamed.wide
EndChar

StartChar: finalmem
Encoding: 1501 1501 74
Width: 1114
GlyphClass: 2
Flags: W
HStem: 0 295<250 823> 780 279<42.8894 165 261 679.016>
VStem: 42 145<482.23 710>
AnchorPoint: "A-63" 556.9 0 basechar 0
AnchorPoint: "A-62" 556.9 0 basechar 0
AnchorPoint: "A-61" 556.9 0 basechar 0
AnchorPoint: "A-59" 76.6504 0 basechar 0
AnchorPoint: "A-21" -288.85 0 basechar 0
AnchorPoint: "A-8" 556.9 0 basechar 0
AnchorPoint: "A-20" 42.6504 0 basechar 0
AnchorPoint: "A-7" 600 0 basechar 0
AnchorPoint: "A-6" 580 0 basechar 0
AnchorPoint: "A-5" 580 0 basechar 0
AnchorPoint: "A-4" 600 0 basechar 0
AnchorPoint: "A-3" 569.65 0 basechar 0
LayerCount: 2
Fore
SplineSet
507 780 m 2
 261 780 l 1
 202 668 l 1
 192 646 187 621 187 594 c 0
 187 574 190 552 195 529 c 2
 250 295 l 1
 823 295 l 1
 775 501 l 2
 741 645 708 698 677 741 c 0
 650 778 602 780 507 780 c 2
165 780 m 1
 14 780 -73 881 -73 993 c 0
 -73 1037 -60 1082 -31 1124 c 1
 29 1124 l 1
 38 1104 l 2
 52 1076 72 1059 118 1059 c 2
 482 1056 l 2
 614 1055 659 1041 728 988 c 0
 796 935 841 826 872 692 c 2
 1032 0 l 1
 172 0 l 1
 47 542 l 2
 44 557 42 571 42 584 c 0
 42 618 53 650 79 697 c 1
 90 719 113 748 165 780 c 1
EndSplineSet
Validated: 1
LCarets2: 1 83 
Substitution2: "'jalt' Wide Letter Alternatives in Hebrew subtable" finalmem.wide
EndChar

StartChar: mem
Encoding: 1502 1502 75
Width: 1204
GlyphClass: 2
Flags: W
HStem: 0 295<488 896>
VStem: 120 181<49.909 549.755> 172 167<0 217.92> 896 141<295 530.92>
AnchorPoint: "A-63" 573.75 0 basechar 0
AnchorPoint: "A-62" 573.75 0 basechar 0
AnchorPoint: "A-61" 573.75 0 basechar 0
AnchorPoint: "A-59" 89.25 0 basechar 0
AnchorPoint: "A-21" -276.25 0 basechar 0
AnchorPoint: "A-8" 650 0 basechar 0
AnchorPoint: "A-20" 123.25 0 basechar 0
AnchorPoint: "A-7" 600 0 basechar 0
AnchorPoint: "A-6" 630 0 basechar 0
AnchorPoint: "A-5" 610 0 basechar 0
AnchorPoint: "A-4" 600 0 basechar 0
LayerCount: 2
Fore
SplineSet
-36 960 m 0xb0
 -42 985 -44 1007 -44 1026 c 0
 -44 1070 -33 1103 -22 1135 c 1
 41 1135 l 1
 52 1115 l 2
 71 1080 107 1070 140 1067 c 2
 234 1059 l 1
 418 1035 351 882 391 845 c 1
 462 891 496 949 496 1018 c 0
 496 1028 495 1038 494 1048 c 1
 491 1075 l 1
 521 1071 l 1
 793 1029 941 763 1003 493 c 0
 1024 404 1034 302 1037 184 c 2
 1041 0 l 1
 485 0 l 1
 488 295 l 1
 896 295 l 1
 895 354 883 405 862 498 c 0
 825 660 721 780 597 783 c 1
 591 783 l 1
 483 780 416 731 361 622 c 1
 327 547 301 457 301 329 c 0xd0
 301 246 312 147 339 27 c 1
 345 0 l 1
 180 0 l 1
 172 25 l 1xb0
 137 135 120 233 120 322 c 0xd0
 120 489 179 623 286 733 c 1
 285 756 284 763 284 764 c 0
 262 768 240 768 172 777 c 1
 58 797 -17 881 -36 960 c 0xb0
EndSplineSet
Validated: 1
LCarets2: 1 89 
EndChar

StartChar: finalnun
Encoding: 1503 1503 76
Width: 514
GlyphClass: 2
Flags: W
VStem: 142 101<592.122 768.484>
AnchorPoint: "A-63" -114.2 0 basechar 0
AnchorPoint: "A-62" -190.7 0 basechar 0
AnchorPoint: "A-61" -301.2 0 basechar 0
AnchorPoint: "A-59" 81.2998 0 basechar 0
AnchorPoint: "A-21" -284.2 0 basechar 0
AnchorPoint: "A-8" -67.4502 0 basechar 0
AnchorPoint: "A-20" 21.7998 0 basechar 0
AnchorPoint: "A-7" -173.7 0 basechar 0
AnchorPoint: "A-6" -139.7 0 basechar 0
AnchorPoint: "A-5" -30 0 basechar 0
AnchorPoint: "A-4" 81.2998 0 basechar 0
AnchorPoint: "A-3" 81.2998 0 basechar 0
LayerCount: 2
Fore
SplineSet
-131 956 m 0
 -137 981 -139 1002 -139 1021 c 0
 -139 1074 -121 1108 -104 1137 c 1
 -40 1137 l 1
 -31 1114 l 2
 -14 1071 5 1057 35 1056 c 1
 59 1056 l 1
 173 1049 235 992 262 876 c 1
 264 864 265 854 265 846 c 0
 265 803 243 783 243 706 c 0
 243 666 249 609 269 524 c 0
 272 513 274 501 278 489 c 2
 437 -59 l 1
 455 -118 462 -166 462 -204 c 0
 462 -299 417 -335 372 -354 c 1
 321 -337 l 1
 119 537 l 1
 115 556 113 573 113 589 c 0
 113 656 142 698 142 737 c 0
 142 747 139 758 134 769 c 1
 105 784 -81 740 -131 956 c 0
EndSplineSet
Validated: 1
LCarets2: 1 36 
EndChar

StartChar: nun
Encoding: 1504 1504 77
Width: 669
GlyphClass: 2
Flags: W
HStem: 0 294<69 343>
VStem: -34 632
AnchorPoint: "A-63" 256.825 0 basechar 0
AnchorPoint: "A-62" 256.825 0 basechar 0
AnchorPoint: "A-61" 256.825 0 basechar 0
AnchorPoint: "A-59" 44.3252 0 basechar 0
AnchorPoint: "A-21" -299.925 0 basechar 0
AnchorPoint: "A-8" 316.325 0 basechar 0
AnchorPoint: "A-20" 95.3252 0 basechar 0
AnchorPoint: "A-7" 316.325 0 basechar 0
AnchorPoint: "A-6" 330 0 basechar 0
AnchorPoint: "A-5" 330 0 basechar 0
AnchorPoint: "A-4" 316.325 0 basechar 0
LayerCount: 2
Fore
SplineSet
154 1057 m 2
 199 1052 l 1
 445 1027 363 798 420 549 c 0
 472 328 598 195 598 4 c 0
 598 3 598 1 598 0 c 1
 69 0 l 1
 47 294 l 1
 343 295 l 1
 315 417 l 2
 257 667 292 779 203 779 c 1
 42 781 -34 910 -34 1019 c 0
 -34 1064 -21 1105 4 1132 c 1
 10 1140 l 1
 71 1140 l 1
 80 1117 l 2
 90 1094 93 1088 96 1081 c 1
 107 1069 130 1059 154 1057 c 2
EndSplineSet
Validated: 1
LCarets2: 1 47 
EndChar

StartChar: samekh
Encoding: 1505 1505 78
Width: 1148
GlyphClass: 2
Flags: W
HStem: -24 286<396.166 770.319> 780 276<182.916 650.126>
VStem: 56 121<470.734 777.613> 818 150<306.83 626.552>
AnchorPoint: "A-63" 581.7 0 basechar 0
AnchorPoint: "A-62" 581.7 0 basechar 0
AnchorPoint: "A-61" 581.7 0 basechar 0
AnchorPoint: "A-59" 88.7002 0 basechar 0
AnchorPoint: "A-21" -268.3 0 basechar 0
AnchorPoint: "A-8" 581.7 0 basechar 0
AnchorPoint: "A-20" 88.7002 0 basechar 0
AnchorPoint: "A-7" 600 0 basechar 0
AnchorPoint: "A-6" 600 0 basechar 0
AnchorPoint: "A-5" 585 0 basechar 0
AnchorPoint: "A-4" 581.7 0 basechar 0
LayerCount: 2
Fore
SplineSet
99 780 m 1
 53 799 -49 881 -49 996 c 0
 -49 1036 -36 1080 -6 1126 c 1
 56 1126 l 1
 64 1106 l 2
 73 1089 93 1056 150 1056 c 2
 428 1056 l 2
 678 1056 855 942 948 538 c 0
 962 479 968 422 968 370 c 0
 968 135 839 -24 646 -24 c 2
 603 -24 l 2
 311 -24 128 207 74 441 c 0
 62 495 56 541 56 583 c 0
 56 657 73 717 99 780 c 1
805 530 m 0
 755 745 669 780 504 780 c 2
 195 780 l 1
 182 741 177 710 177 680 c 0
 177 640 186 601 199 544 c 0
 247 340 354 262 526 262 c 2
 628 262 l 2
 735 262 818 300 818 430 c 0
 818 459 814 492 805 530 c 0
EndSplineSet
Validated: 1
LCarets2: 1 87 
EndChar

StartChar: ayin
Encoding: 1506 1506 79
Width: 1030
GlyphClass: 2
Flags: W
HStem: 7 271<444.627 566.458>
VStem: 574 143<292.829 638.926>
AnchorPoint: "A-63" 451.126 0 basechar 0
AnchorPoint: "A-62" 451.126 0 basechar 0
AnchorPoint: "A-61" 451.126 0 basechar 0
AnchorPoint: "A-59" 17.626 0 basechar 0
AnchorPoint: "A-21" -347.874 0 basechar 0
AnchorPoint: "A-8" 451.126 0 basechar 0
AnchorPoint: "A-20" 0.625977 0 basechar 0
AnchorPoint: "A-7" 450 0 basechar 0
AnchorPoint: "A-6" 450 0 basechar 0
AnchorPoint: "A-5" 450 0 basechar 0
AnchorPoint: "A-4" 451.126 0 basechar 0
AnchorPoint: "A-3" 565 89 basechar 0
LayerCount: 2
Fore
SplineSet
448 278 m 1
 597 296 563 315 574 388 c 1
 574 542 631 651 631 711 c 0
 631 732 624 747 606 755 c 0
 592 761 412 784 374 948 c 0
 370 966 368 984 368 1001 c 0
 368 1050 384 1093 402 1131 c 1
 476 1131 l 1
 486 1110 l 2
 496 1089 507 1077 517 1071 c 0
 577 1038 736 1067 770 920 c 0
 774 904 775 887 775 871 c 0
 775 772 717 668 717 495 c 0
 717 437 723 371 741 295 c 0
 746 272 751 244 751 215 c 0
 751 119 702 7 471 7 c 1
 79 -37 l 1
 62 234 l 1
 323 264 l 1
 258 546 55 336 55 781 c 1
 -90 817 -144 909 -144 1016 c 0
 -144 1053 -137 1092 -126 1131 c 1
 -61 1131 l 1
 -50 1110 l 1
 -36 1078 -13 1056 23 1052 c 1
 69 1052 l 2
 164 1052 249 968 266 894 c 0
 270 876 272 860 272 847 c 0
 272 803 252 784 235 758 c 1
 177 758 l 1
 193 687 207 634 252 610 c 1
 407 533 413 430 416 414 c 2
 448 278 l 1
EndSplineSet
Validated: 1
LCarets2: 1 78 
Substitution2: "Automatic Alternate Ayin Subtable" ayin.alt
Substitution2: "'salt' Stylistic Alternatives in Hebrew subtable" ayin.alt
EndChar

StartChar: finalpe
Encoding: 1507 1507 80
Width: 996
GlyphClass: 2
Flags: W
HStem: 362 244<263.414 364.291> 780 276<156.081 582.491>
VStem: 19 126<563 778.646> 861 141<-332.75 -271.877>
AnchorPoint: "A-63" 396.35 0 basechar 0
AnchorPoint: "A-62" 302.85 0 basechar 0
AnchorPoint: "A-61" 209.35 0 basechar 0
AnchorPoint: "A-59" 107.35 0 basechar 0
AnchorPoint: "A-21" -258.15 0 basechar 0
AnchorPoint: "A-8" 421.85 0 basechar 0
AnchorPoint: "A-20" 107.35 0 basechar 0
AnchorPoint: "A-7" 328.35 0 basechar 0
AnchorPoint: "A-6" 379.35 0 basechar 0
AnchorPoint: "A-5" 472.85 0 basechar 0
AnchorPoint: "A-4" 600 0 basechar 0
LayerCount: 2
Fore
SplineSet
421 428 m 2
 421 427 422 420 422 412 c 0
 422 392 415 362 362 362 c 0
 333 362 292 371 262 371 c 0
 201 371 185 339 174 318 c 1
 110 318 l 1
 83 357 48 404 32 471 c 0
 23 509 19 546 19 580 c 0
 19 657 38 726 66 785 c 1
 7 814 -54 898 -54 994 c 0
 -54 1037 -42 1082 -12 1126 c 1
 48 1126 l 1
 65 1093 78 1056 141 1056 c 2
 356 1056 l 2
 638 1056 691 947 756 716 c 2
 875 284 l 2
 962 -31 1002 -177 1002 -252 c 0
 1002 -317 971 -329 916 -352 c 1
 861 -334 l 1
 669 498 l 2
 605 775 557 780 469 780 c 2
 172 780 l 1
 154 734 145 701 145 678 c 0
 145 626 186 618 248 606 c 1
 373 589 399 524 405 496 c 2
 421 428 l 2
EndSplineSet
Validated: 1
LCarets2: 1 73 
EndChar

StartChar: pe
Encoding: 1508 1508 81
Width: 1022
GlyphClass: 2
Flags: W
HStem: 0 295<113 685.875> 781 278<114.31 530.659>
VStem: -31 144<633 779.882> 711 147<236.5 562.749>
AnchorPoint: "A-63" 431.65 0 basechar 0
AnchorPoint: "A-62" 431.65 0 basechar 0
AnchorPoint: "A-61" 431.65 0 basechar 0
AnchorPoint: "A-59" 15.1504 0 basechar 0
AnchorPoint: "A-21" -350.35 0 basechar 0
AnchorPoint: "A-8" 440.15 0 basechar 0
AnchorPoint: "A-20" 83.1504 0 basechar 0
AnchorPoint: "A-7" 470 0 basechar 0
AnchorPoint: "A-6" 450 0 basechar 0
AnchorPoint: "A-5" 440.15 0 basechar 0
AnchorPoint: "A-4" 440.15 0 basechar 0
LayerCount: 2
Fore
SplineSet
71 407 m 1
 0 507 -31 596 -31 670 c 0
 -31 724 -14 770 15 807 c 1
 -13 832 l 1
 -46 859 -67 920 -73 946 c 0
 -78 968 -80 987 -80 1005 c 0
 -80 1066 -54 1102 -38 1126 c 1
 22 1126 l 1
 32 1106 l 2
 40 1087 59 1059 117 1059 c 2
 343 1059 l 2
 565 1059 734 915 821 538 c 0
 845 436 858 347 858 274 c 0
 858 199 844 141 813 103 c 0
 756 32 644 0 474 0 c 2
 110 0 l 1
 113 295 l 1
 499 295 l 2
 630 295 711 308 711 422 c 0
 711 448 707 479 698 516 c 0
 641 764 567 781 440 781 c 2
 144 781 l 1
 122 765 113 748 113 727 c 0
 113 721 113 715 115 708 c 0
 130 646 275 697 340 613 c 0
 349 602 355 589 358 575 c 2
 370 523 l 2
 371 518 374 508 374 496 c 0
 374 475 365 449 325 449 c 0
 304 449 242 456 224 456 c 0
 164 456 147 428 134 407 c 1
 71 407 l 1
EndSplineSet
Validated: 1
LCarets2: 1 75 
EndChar

StartChar: finaltsadi
Encoding: 1509 1509 82
Width: 1100
GlyphClass: 2
Flags: W
VStem: 163 127<515.417 761.634>
AnchorPoint: "A-63" 569.75 0 basechar 0
AnchorPoint: "A-62" 612.25 0 basechar 0
AnchorPoint: "A-61" 612.25 0 basechar 0
AnchorPoint: "A-59" 119.25 0 basechar 0
AnchorPoint: "A-21" -246.25 0 basechar 0
AnchorPoint: "A-8" 663.25 0 basechar 0
AnchorPoint: "A-20" 59.75 0 basechar 0
AnchorPoint: "A-7" 900 0 basechar 0
AnchorPoint: "A-6" 830 0 basechar 0
AnchorPoint: "A-5" 750 0 basechar 0
AnchorPoint: "A-4" 620 0 basechar 0
AnchorPoint: "A-3" 144.75 0 basechar 0
LayerCount: 2
Fore
SplineSet
144 762 m 0
 22 762 -93 841 -124 973 c 0
 -129 994 -131 1014 -131 1034 c 0
 -131 1069 -124 1101 -111 1133 c 1
 -34 1133 l 1
 -18 1094 3 1069 40 1063 c 1
 105 1056 l 1
 227 1047 305 1000 325 916 c 0
 328 903 329 889 329 874 c 0
 329 792 290 689 290 600 c 0
 290 581 292 563 296 546 c 1
 305 514 l 1
 401 624 491 705 586 773 c 1
 473 816 411 924 411 1026 c 0
 411 1064 419 1100 436 1133 c 1
 523 1133 l 1
 539 1085 568 1068 602 1063 c 1
 668 1056 l 1
 670 1056 l 1
 707 1049 817 1038 844 924 c 0
 849 902 851 880 851 861 c 0
 851 808 836 764 815 726 c 1
 762 726 l 1
 753 748 l 1
 748 748 746 750 733 743 c 1
 694 717 666 697 621 659 c 1
 541 568 l 2
 431 442 393 349 393 265 c 0
 393 128 493 17 534 -162 c 0
 539 -185 542 -206 542 -224 c 0
 542 -328 461 -350 435 -359 c 1
 379 -342 l 1
 169 475 l 1
 164 496 163 519 163 543 c 0
 163 602 173 664 173 707 c 0
 173 740 167 762 144 762 c 0
EndSplineSet
Validated: 1
LCarets2: 1 71 
EndChar

StartChar: tsadi
Encoding: 1510 1510 83
Width: 1078
GlyphClass: 2
Flags: W
HStem: 0 295<200 623>
AnchorPoint: "A-63" 530.625 0 basechar 0
AnchorPoint: "A-62" 530.625 0 basechar 0
AnchorPoint: "A-61" 530.625 0 basechar 0
AnchorPoint: "A-59" 139.625 0 basechar 0
AnchorPoint: "A-21" -225.875 0 basechar 0
AnchorPoint: "A-8" 530.625 0 basechar 0
AnchorPoint: "A-20" 88.625 0 basechar 0
AnchorPoint: "A-7" 550 0 basechar 0
AnchorPoint: "A-6" 550 0 basechar 0
AnchorPoint: "A-5" 550 0 basechar 0
AnchorPoint: "A-4" 550 0 basechar 0
LayerCount: 2
Fore
SplineSet
189 724 m 2
 180 762 174 780 114 780 c 0
 -4 780 -74 867 -97 965 c 0
 -102 984 -103 1001 -103 1016 c 0
 -103 1052 -93 1080 -78 1114 c 1
 0 1114 l 1
 16 1078 35 1060 69 1058 c 2
 104 1056 l 2
 231 1048 271 1027 297 914 c 0
 326 788 292 684 401 616 c 2
 488 562 l 1
 509 655 532 721 569 786 c 1
 480 819 436 893 419 965 c 0
 416 980 414 993 414 1005 c 0
 414 1041 426 1071 442 1112 c 1
 534 1112 l 1
 545 1084 562 1065 609 1060 c 1
 665 1056 l 2
 775 1048 829 954 829 854 c 0
 829 808 818 761 795 721 c 1
 742 721 l 1
 732 743 l 1
 719 773 718 778 700 778 c 0
 692 778 643 701 643 605 c 0
 643 585 645 565 650 544 c 0
 662 494 698 450 760 409 c 2
 933 291 l 1
 935 0 l 1
 200 0 l 1
 183 295 l 1
 623 295 l 1
 329 466 l 2
 241 517 225 569 218 596 c 2
 189 724 l 2
EndSplineSet
Validated: 1
LCarets2: 1 75 
EndChar

StartChar: kof
Encoding: 1511 1511 84
Width: 1107
GlyphClass: 2
Flags: W
HStem: -13 21G<505.5 577> 780 276<54.9835 719.28>
VStem: 379 256<36.5366 196.077> 379 223<46.5258 270.917> 764 144<490.193 745.466>
AnchorPoint: "A-63" 516.825 0 basechar 0
AnchorPoint: "A-62" 516.825 0 basechar 0
AnchorPoint: "A-61" 516.825 0 basechar 0
AnchorPoint: "A-59" 57.8252 0 basechar 0
AnchorPoint: "A-21" -307.675 0 basechar 0
AnchorPoint: "A-8" 686.825 0 basechar 0
AnchorPoint: "A-20" 40.8252 0 basechar 0
AnchorPoint: "A-7" 790 0 basechar 0
AnchorPoint: "A-6" 720 0 basechar 0
AnchorPoint: "A-5" 630 0 basechar 0
AnchorPoint: "A-4" 516.825 0 basechar 0
LayerCount: 2
Fore
SplineSet
-52 943 m 0xe8
 -57 965 -59 984 -59 1002 c 0
 -59 1063 -34 1100 -18 1126 c 1
 43 1126 l 1
 52 1105 l 1
 61 1087 78 1056 135 1056 c 2
 525 1056 l 2
 746 1056 828 943 868 770 c 2
 890 677 l 2
 902 626 908 585 908 551 c 0
 908 481 884 438 835 401 c 1
 653 276 l 1
 614 256 602 228 602 198 c 0xd8
 602 157 625 114 631 88 c 0
 633 77 635 67 635 56 c 0
 635 19 615 -13 539 -13 c 0
 472 -13 403 33 388 98 c 0
 382 125 379 149 379 170 c 0
 379 287 463 323 560 384 c 1
 722 492 l 1
 751 513 764 541 764 577 c 0
 764 590 762 605 759 620 c 2
 743 688 l 2
 727 757 707 780 577 780 c 2
 156 780 l 2
 45 780 -30 847 -52 943 c 0xe8
336 -345 m 1
 281 -332 l 1
 77 548 l 2
 73 566 71 583 71 598 c 0
 71 646 89 686 124 724 c 1
 150 738 173 736 197 737 c 1
 422 -240 l 1
 423 -245 423 -249 423 -253 c 0
 423 -272 412 -293 336 -345 c 1
EndSplineSet
Validated: 1
LCarets2: 1 85 
EndChar

StartChar: resh
Encoding: 1512 1512 85
Width: 993
GlyphClass: 2
Flags: W
HStem: -21 21G<792 859.5> 780 276<-10.3922 572.605>
AnchorPoint: "A-63" 660.2 0 basechar 0
AnchorPoint: "A-62" 575.2 0 basechar 0
AnchorPoint: "A-61" 490.2 0 basechar 0
AnchorPoint: "A-59" 73.7002 0 basechar 0
AnchorPoint: "A-21" -291.8 0 basechar 0
AnchorPoint: "A-8" 626.2 0 basechar 0
AnchorPoint: "A-20" -2.7998 0 basechar 0
AnchorPoint: "A-7" 640 0 basechar 0
AnchorPoint: "A-6" 800 0 basechar 0
AnchorPoint: "A-5" 830 0 basechar 0
AnchorPoint: "A-4" 830 0 basechar 0
LayerCount: 2
Fore
SplineSet
-120 943 m 0
 -125 965 -127 984 -127 1002 c 0
 -127 1063 -102 1100 -86 1126 c 1
 -26 1126 l 1
 -16 1106 l 2
 -7 1087 11 1056 68 1056 c 2
 270 1056 l 2
 443 1056 563 1041 632 988 c 0
 701 935 746 827 777 691 c 2
 913 102 l 2
 915 92 917 83 917 74 c 0
 917 20 872 -6 847 -21 c 1
 792 -4 l 1
 681 478 l 2
 631 693 608 780 404 780 c 2
 91 780 l 2
 -19 780 -98 847 -120 943 c 0
EndSplineSet
Validated: 1
LCarets2: 1 72 
Substitution2: "'jalt' Wide Letter Alternatives in Hebrew subtable" resh.wide
EndChar

StartChar: shin
Encoding: 1513 1513 86
Width: 1402
GlyphClass: 2
Flags: W
HStem: 0 295<340.865 435.168 546 829.287>
VStem: 74 107<547.888 767> 421 125<296 450.578> 1015 149<678.476 870>
AnchorPoint: "A-63" 675.575 0 basechar 0
AnchorPoint: "A-62" 675.575 0 basechar 0
AnchorPoint: "A-61" 675.575 0 basechar 0
AnchorPoint: "A-59" 110.325 0 basechar 0
AnchorPoint: "A-21" -255.175 0 basechar 0
AnchorPoint: "A-8" 675.575 0 basechar 0
AnchorPoint: "A-20" 42.3252 0 basechar 0
AnchorPoint: "A-7" 670 0 basechar 0
AnchorPoint: "A-6" 675.575 0 basechar 0
AnchorPoint: "A-5" 640 0 basechar 0
AnchorPoint: "A-4" 620 0 basechar 0
LayerCount: 2
Fore
SplineSet
338 0 m 1
 211 303 74 487 74 736 c 0
 74 750 73 764 74 779 c 1
 -30 820 -85 918 -85 1019 c 0
 -85 1057 -77 1095 -61 1131 c 1
 15 1131 l 1
 29 1104 42 1070 129 1056 c 1
 238 1037 297 949 297 856 c 0
 297 811 284 766 257 726 c 1
 210 728 l 1
 201 750 l 1
 196 760 187 764 181 767 c 1
 183 713 193 668 210 594 c 0
 233 494 282 402 379 296 c 1
 421 296 l 1
 475 450 489 570 506 799 c 1
 416 835 360 900 344 971 c 0
 342 981 340 992 340 1001 c 0
 340 1048 365 1088 389 1128 c 1
 452 1128 l 1
 457 1107 474 1075 504 1069 c 2
 576 1056 l 1
 690 1029 721 965 738 894 c 0
 739 887 740 880 740 873 c 0
 740 831 717 786 690 744 c 1
 651 745 l 1
 650 753 645 757 642 760 c 0
 638 764 626 769 622 769 c 1
 616 587 593 449 546 295 c 1
 820 295 l 1
 836 392 895 502 992 672 c 1
 1009 704 1015 713 1015 723 c 0
 1015 728 1014 732 1012 739 c 0
 996 810 829 781 794 930 c 0
 791 942 790 955 790 968 c 0
 790 1026 815 1087 841 1128 c 1
 919 1128 l 1
 924 1115 931 1068 960 1059 c 2
 1020 1041 l 1
 1118 1009 1144 976 1158 916 c 0
 1162 898 1164 879 1164 861 c 0
 1164 690 996 515 996 71 c 0
 996 48 996 24 997 0 c 1
 338 0 l 1
EndSplineSet
Validated: 1
LCarets2: 1 104 
EndChar

StartChar: tav
Encoding: 1514 1514 87
Width: 1227
GlyphClass: 2
Flags: W
HStem: 0 21G<150.915 515 997 1065> 782 277<151.599 239 350 779.335>
VStem: 197 133<420.382 775.766> 997 125<0 62.0403>
AnchorPoint: "A-3" 700 0 basechar 0
AnchorPoint: "A-63" 649.6 0 basechar 0
AnchorPoint: "A-62" 649.6 0 basechar 0
AnchorPoint: "A-61" 649.6 0 basechar 0
AnchorPoint: "A-59" 101.35 0 basechar 0
AnchorPoint: "A-21" -242.9 0 basechar 0
AnchorPoint: "A-8" 649.6 0 basechar 0
AnchorPoint: "A-20" 135.35 0 basechar 0
AnchorPoint: "A-7" 680 0 basechar 0
AnchorPoint: "A-6" 700 0 basechar 0
AnchorPoint: "A-5" 700 0 basechar 0
AnchorPoint: "A-4" 720 0 basechar 0
LayerCount: 2
Fore
SplineSet
348 514 m 0
 395 312 464 256 490 145 c 1
 515 0 l 1
 152 0 l 1
 136 295 l 1
 256 295 l 1
 222 419 l 1
 216 445 l 2
 204 499 197 550 197 597 c 0
 197 653 206 703 224 749 c 1
 239 782 l 1
 127 785 62 854 41 946 c 0
 36 968 34 987 34 1005 c 0
 34 1075 67 1115 74 1126 c 1
 137 1126 l 1
 148 1106 l 2
 158 1087 177 1059 241 1059 c 1
 272 1057 303 1057 333 1057 c 0
 386 1057 439 1058 492 1059 c 1
 704 1059 795 1026 844 989 c 0
 912 936 956 827 987 691 c 2
 1117 128 l 2
 1121 112 1122 98 1122 86 c 0
 1122 20 1078 -4 1052 -19 c 1
 997 0 l 1
 881 502 l 2
 830 723 774 782 652 782 c 0
 651 782 650 782 649 782 c 2
 350 776 l 1
 337 725 l 1
 332 705 330 682 330 658 c 0
 330 615 337 565 348 514 c 0
EndSplineSet
Validated: 1
LCarets2: 1 91 
Substitution2: "'jalt' Wide Letter Alternatives in Hebrew subtable" tav.wide
EndChar

StartChar: geresh
Encoding: 1523 1523 91
Width: 483
GlyphClass: 2
Flags: W
HStem: 596 528<-31 55>
VStem: -103 258<786.125 1091.07>
LayerCount: 2
Fore
SplineSet
112 789 m 2
 55 596 l 1
 -31 596 l 1
 -94 908 l 2
 -100 939 -103 966 -103 988 c 0
 -103 1103 -33 1124 22 1124 c 0
 85 1124 136 1088 153 1014 c 0
 154 1008 155 1001 155 993 c 0
 155 943 131 855 112 789 c 2
EndSplineSet
Validated: 1
EndChar

StartChar: zerononjoin
Encoding: 8204 8204 95
Width: 0
GlyphClass: 2
Flags: W
HStem: 1195 424
VStem: -562 475
LayerCount: 2
Fore
SplineSet
-349 1512 m 1
 -269 1619 l 1
 -137 1515 l 1
 -220 1407 l 1
 -87 1299 l 1
 -171 1195 l 1
 -300 1301 l 1
 -385 1195 l 1
 -513 1301 l 1
 -431 1407 l 1
 -562 1513 l 1
 -483 1621 l 1
 -349 1512 l 1
EndSplineSet
Validated: 1
EndChar

StartChar: zerojoin
Encoding: 8205 8205 96
Width: 0
GlyphClass: 2
Flags: W
HStem: 1396 242<-576 -450 -216 -124> 1489 149<-450 -238>
VStem: -632 564
LayerCount: 2
Fore
SplineSet
-238 1489 m 1x60
 -450 1489 l 1x60
 -428 1396 l 1
 -576 1396 l 1xa0
 -632 1638 l 1x60
 -124 1638 l 1
 -68 1396 l 1
 -216 1396 l 1xa0
 -238 1489 l 1x60
EndSplineSet
Validated: 1
EndChar

StartChar: lrm
Encoding: 8206 8206 97
Width: 0
GlyphClass: 2
Flags: W
HStem: 1340 149<-545 -394>
VStem: -580 490
LayerCount: 2
Fore
SplineSet
-433 1520 m 1
 -354 1628 l 1
 -90 1414 l 1
 -255 1200 l 1
 -384 1308 l 1
 -358 1340 l 1
 -545 1340 l 1
 -580 1489 l 1
 -394 1489 l 1
 -433 1520 l 1
EndSplineSet
Validated: 1
EndChar

StartChar: rlm
Encoding: 8207 8207 98
Width: 0
GlyphClass: 2
Flags: W
HStem: 1332 149<-258 -106>
VStem: -561 489
LayerCount: 2
Fore
SplineSet
-218 1301 m 1
 -297 1193 l 1
 -561 1407 l 1
 -396 1621 l 1
 -267 1513 l 1
 -293 1481 l 1
 -106 1481 l 1
 -72 1332 l 1
 -258 1332 l 1
 -218 1301 l 1
EndSplineSet
Validated: 1
EndChar

StartChar: quoteleft
Encoding: 8216 8216 99
Width: 385
GlyphClass: 2
Flags: W
HStem: 826 258<-53.0887 56.157>
VStem: -190 134<990 1225.26>
LayerCount: 2
Fore
SplineSet
0 826 m 0
 -93 826 -158 894 -181 990 c 0
 -187 1018 -190 1045 -190 1070 c 0
 -190 1180 -133 1266 -39 1359 c 1
 -23 1376 l 1
 53 1310 l 1
 37 1292 l 2
 8 1259 -14 1233 -28 1214 c 1
 -49 1180 -56 1159 -56 1138 c 0
 -56 1129 -54 1119 -52 1109 c 0
 -46 1083 -38 1084 -32 1084 c 0
 -32 1084 72 1075 99 958 c 0
 101 948 102 938 102 928 c 0
 102 868 59 826 0 826 c 0
EndSplineSet
Validated: 1
EndChar

StartChar: quoteright
Encoding: 8217 8217 100
Width: 384
GlyphClass: 2
Flags: W
HStem: 816 21G<-114.03 -75> 1108 258<-168.802 -61.8126>
VStem: -58 134<966.146 1202>
LayerCount: 2
Fore
SplineSet
-115 1366 m 0
 -22 1366 44 1298 66 1202 c 0
 73 1173 76 1146 76 1120 c 0
 76 1011 19 926 -75 833 c 1
 -91 816 l 1
 -167 882 l 1
 -151 900 l 2
 -122 933 -102 960 -86 980 c 1
 -63 1017 -58 1039 -58 1055 c 0
 -58 1066 -60 1074 -62 1083 c 0
 -68 1109 -76 1108 -82 1108 c 0
 -146 1114 -198 1168 -212 1232 c 0
 -215 1243 -216 1254 -216 1264 c 0
 -216 1323 -174 1366 -115 1366 c 0
EndSplineSet
Validated: 1
EndChar

StartChar: quotesinglbase
Encoding: 8218 8218 101
Width: 384
GlyphClass: 2
Flags: W
HStem: -28 260<87.2976 195.977>
VStem: 198 132<-169.734 -2>
LayerCount: 2
Fore
SplineSet
139 232 m 0
 232 232 298 164 320 68 c 0
 327 39 330 11 330 -15 c 0
 330 -123 273 -208 179 -301 c 1
 163 -318 l 1
 88 -252 l 1
 104 -234 l 2
 132 -201 153 -174 169 -154 c 1
 190 -120 198 -91 198 -69 c 0
 198 -43 186 -28 171 -28 c 0
 171 -28 70 -18 43 100 c 0
 41 111 39 121 39 131 c 0
 39 190 81 232 139 232 c 0
EndSplineSet
Validated: 1
EndChar

StartChar: newshekel
Encoding: 8362 8362 105
Width: 1024
GlyphClass: 2
Flags: W
HStem: 0 128<474.693 774> 936 120<14 313.969>
LayerCount: 2
Fore
SplineSet
667 296 m 1
 472 296 l 1
 359 786 l 2
 329 916 290 936 152 936 c 2
 14 936 l 1
 230 0 l 1
 37 0 l 1
 -207 1056 l 1
 140 1056 l 2
 170 1056 199 1057 226 1057 c 0
 303 1057 368 1052 422 1018 c 0
 457 995 518 939 547 813 c 2
 667 296 l 1
108 780 m 1
 294 780 l 1
 412 268 l 2
 429 196 451 177 474 164 c 0
 488 156 552 128 634 128 c 2
 774 128 l 1
 560 1056 l 1
 758 1056 l 1
 1002 0 l 1
 650 0 l 2
 284 0 246 198 237 240 c 2
 108 780 l 1
EndSplineSet
Validated: 1
EndChar

StartChar: Euro
Encoding: 8364 8364 106
Width: 1024
GlyphClass: 2
Flags: W
HStem: -54 122<439.182 706.204> 410 116<-42 10 253 665> 576 118<-76 -11 217 671> 1016 110<259.297 512.044>
VStem: -11 207<694 936.53> 44 209<305.939 410> 633 89<762 824.637>
LayerCount: 2
Fore
SplineSet
339 1126 m 0xfa
 467 1126 564 1088 657 1046 c 1
 722 762 l 1
 639 762 l 1
 633 788 l 1
 585 942 497 1016 363 1016 c 0
 222 1016 196 869 196 754 c 0xfa
 196 723 197 717 199 694 c 1
 678 694 l 1
 671 576 l 1
 217 576 l 1
 217 572 222 530 223 526 c 1
 674 526 l 1
 665 410 l 1
 253 410 l 1
 314 203 429 68 562 68 c 0
 704 68 744 140 791 236 c 2
 801 257 l 1
 881 212 l 1
 871 189 l 1
 820 63 753 -54 558 -54 c 0
 319 -54 140 117 44 410 c 1xf6
 -49 410 l 1
 -42 526 l 1
 10 526 l 1
 3 576 l 1
 -83 576 l 1
 -76 694 l 1
 -11 694 l 1
 -12 708 -11 701 -11 715 c 0
 -11 942 95 1126 339 1126 c 0xfa
EndSplineSet
Validated: 1
EndChar

StartChar: dottedcircle
Encoding: 9676 9676 107
Width: 1150
GlyphClass: 2
Flags: W
HStem: -40 198<546.875 670.125> 20 198<333.875 459.163 731.875 857.163> 194 198<146.727 270.5 840.727 963.5> 428 198<40.875 164.5 836.875 960.5> 662 198<38.7271 161.5 732.727 855.5> 836 198<146.727 270.5 543.375 668.5> 896 198<330.875 454.5>
VStem: 10 186<458.247 595.753 689.678 827.174> 115 188<225.4 359.702 867.4 1001.7> 303 186<51.1059 188.114 922.341 1061.17> 516 185<-9.75342 127.82 863.678 1001.7> 701 186<51.1059 188.114 693.4 829.753> 809 186<225.4 361.753 454.341 593.174>
AnchorPoint: "A-63" 656.075 0 basechar 0
AnchorPoint: "A-62" 656.075 0 basechar 0
AnchorPoint: "A-61" 656.075 0 basechar 0
AnchorPoint: "A-59" 93.375 0 basechar 0
AnchorPoint: "A-21" -272.125 0 basechar 0
AnchorPoint: "A-8" 622.075 0 basechar 0
AnchorPoint: "A-60" 622.075 0 basechar 0
AnchorPoint: "A-20" 25.375 0 basechar 0
AnchorPoint: "A-7" 622.075 0 basechar 0
AnchorPoint: "A-6" 622.075 0 basechar 0
AnchorPoint: "A-5" 600 0 basechar 0
AnchorPoint: "A-4" 622.075 0 basechar 0
AnchorPoint: "A-3" 622.075 0 basechar 0
LayerCount: 2
Fore
SplineSet
586 158 m 1x9060
 657 156 701 87 701 32 c 0
 701 -7 680 -40 631 -40 c 1
 560 -38 516 31 516 87 c 0
 516 125 538 158 586 158 c 1x9060
771 218 m 1x5060
 843 216 887 148 887 92 c 0x5060
 887 53 865 20 816 20 c 1
 745 24 701 91 701 147 c 0
 701 185 722 218 771 218 c 1x5060
875 626 m 1
 947 624 992 555 992 499 c 0
 992 461 970 428 921 428 c 1
 850 430 806 499 806 555 c 0
 806 594 827 626 875 626 c 1
770 860 m 1x1860
 842 858 887 789 887 733 c 0x1860
 887 695 865 662 816 662 c 1
 745 666 701 734 701 789 c 0
 701 828 722 860 770 860 c 1x1860
369 1094 m 1x1260
 441 1092 486 1023 486 967 c 0
 486 929 464 896 415 896 c 1
 344 898 300 967 300 1023 c 0
 300 1062 321 1094 369 1094 c 1x1260
79 626 m 1
 151 624 196 555 196 499 c 0
 196 461 174 428 125 428 c 1
 54 430 10 499 10 555 c 0x1160
 10 594 31 626 79 626 c 1
878 392 m 1x3068
 950 390 995 321 995 265 c 0
 995 227 973 194 924 194 c 1
 853 198 809 266 809 321 c 0
 809 360 830 392 878 392 c 1x3068
76 860 m 1x1860
 148 858 193 789 193 733 c 0
 193 695 171 662 122 662 c 1
 51 666 7 734 7 789 c 0
 7 828 28 860 76 860 c 1x1860
184 392 m 1x30e0
 256 390 303 321 303 265 c 0
 303 227 279 194 230 194 c 1
 159 198 115 266 115 321 c 0
 115 360 136 392 184 392 c 1x30e0
184 1034 m 1x14e0
 256 1032 303 963 303 907 c 0
 303 869 279 836 230 836 c 1
 159 840 115 908 115 963 c 0
 115 1002 136 1034 184 1034 c 1x14e0
582 1034 m 1
 654 1032 701 963 701 907 c 0
 701 869 677 836 628 836 c 1
 557 840 512 908 512 963 c 0
 512 1002 534 1034 582 1034 c 1
373 218 m 1x5060
 445 216 489 148 489 92 c 0
 489 53 467 20 418 20 c 1
 347 24 303 91 303 147 c 0
 303 185 324 218 373 218 c 1x5060
EndSplineSet
Validated: 1
LCarets2: 1 93 
EndChar

StartChar: yodyodpatah
Encoding: 64287 64287 110
Width: 1029
GlyphClass: 2
Flags: W
HStem: 258 150<72 827> 783 273<-49.918 138.661 400.92 605.632>
VStem: 160 150<537.772 777.136> 623 130<540.026 777.254>
AnchorPoint: "A-63" 520 0 basechar 0
AnchorPoint: "A-62" 520 0 basechar 0
AnchorPoint: "A-61" 520 0 basechar 0
AnchorPoint: "A-59" 0 0 basechar 0
AnchorPoint: "A-21" -430 0 basechar 0
AnchorPoint: "A-8" 510 0 basechar 0
AnchorPoint: "A-20" -70 0 basechar 0
AnchorPoint: "A-4" 510 0 basechar 0
LayerCount: 2
Fore
SplineSet
630 442 m 1
 545 512 l 1
 568 530 l 1
 608 564 623 594 623 635 c 0
 623 654 620 675 614 701 c 2
 606 737 l 2
 599 768 595 783 534 783 c 0
 391 783 301 867 276 974 c 0
 273 986 272 996 272 1007 c 0
 272 1040 285 1068 304 1112 c 1
 395 1112 l 1
 409 1076 442 1060 482 1060 c 1
 518 1056 l 1
 588 1056 680 1035 719 867 c 2
 736 791 l 2
 748 740 753 697 753 660 c 0
 753 519 679 471 630 442 c 1
166 442 m 1
 88 512 l 1
 108 530 l 2
 145 564 160 593 160 634 c 0
 160 653 156 675 150 701 c 2
 141 740 l 2
 134 769 130 783 70 783 c 0
 -53 783 -134 867 -159 974 c 0
 -162 986 -163 997 -163 1007 c 0
 -163 1040 -151 1068 -136 1111 c 1
 -57 1111 l 1
 -45 1076 -16 1060 20 1060 c 1
 56 1056 l 1
 135 1056 239 1035 278 867 c 2
 295 791 l 2
 305 747 310 708 310 674 c 0
 310 508 203 464 166 442 c 1
861 258 m 1
 72 258 l 1
 38 408 l 1
 827 408 l 1
 861 258 l 1
EndSplineSet
Validated: 1
EndChar

StartChar: ayin.alt
Encoding: 64288 64288 111
Width: 1030
GlyphClass: 2
Flags: W
HStem: 7 271<444.627 566.458>
VStem: 574 143<292.829 638.926>
AnchorPoint: "A-63" 432.65 0 basechar 0
AnchorPoint: "A-62" 432.65 0 basechar 0
AnchorPoint: "A-61" 432.65 0 basechar 0
AnchorPoint: "A-59" 16.1504 0 basechar 0
AnchorPoint: "A-21" -349.35 0 basechar 0
AnchorPoint: "A-8" 432.65 0 basechar 0
AnchorPoint: "A-20" 16.1504 0 basechar 0
AnchorPoint: "A-7" 450 0 basechar 0
AnchorPoint: "A-6" 450 0 basechar 0
AnchorPoint: "A-5" 450 0 basechar 0
AnchorPoint: "A-4" 451 0 basechar 0
AnchorPoint: "A-3" 565 89 basechar 0
LayerCount: 2
Fore
SplineSet
448 278 m 1
 597 296 563 315 574 388 c 1
 574 542 631 651 631 711 c 0
 631 732 624 747 606 755 c 0
 592 761 412 784 374 948 c 0
 370 966 368 984 368 1001 c 0
 368 1050 384 1093 402 1131 c 1
 476 1131 l 1
 486 1110 l 2
 496 1089 507 1077 517 1071 c 0
 577 1038 736 1067 770 920 c 0
 774 904 775 887 775 871 c 0
 775 772 717 668 717 495 c 0
 717 437 723 371 741 295 c 0
 746 272 751 244 751 215 c 0
 751 119 702 7 471 7 c 1
 79 -37 l 1
 62 234 l 1
 323 264 l 1
 258 546 55 336 55 781 c 1
 -90 817 -144 909 -144 1016 c 0
 -144 1053 -137 1092 -126 1131 c 1
 -61 1131 l 1
 -50 1110 l 1
 -36 1078 -13 1056 23 1052 c 1
 69 1052 l 2
 164 1052 249 968 266 894 c 0
 270 876 272 860 272 847 c 0
 272 803 252 784 235 758 c 1
 177 758 l 1
 193 687 207 634 252 610 c 1
 407 533 413 430 416 414 c 2
 448 278 l 1
EndSplineSet
Validated: 1
LCarets2: 1 77 
EndChar

StartChar: alef.wide
Encoding: 64289 64289 112
Width: 792
GlyphClass: 2
Flags: W
HStem: -18 21G<1500.6 1589> 0 73<237 271.006>
VStem: 107 180<408.485 567.438> 1151 139<493.681 785.561>
AnchorPoint: "A-63" 893.6 0 basechar 0
AnchorPoint: "A-62" 893.6 0 basechar 0
AnchorPoint: "A-61" 893.6 0 basechar 0
AnchorPoint: "A-59" 103.1 0 basechar 0
AnchorPoint: "A-21" -262.4 0 basechar 0
AnchorPoint: "A-8" 893.6 0 basechar 0
AnchorPoint: "A-20" 111.6 0 basechar 0
AnchorPoint: "A-7" 920 0 basechar 0
AnchorPoint: "A-6" 930 0 basechar 0
AnchorPoint: "A-5" 900 0 basechar 0
AnchorPoint: "A-4" 893.6 0 basechar 0
AnchorPoint: "A-3" 1014.49 -450 basechar 0
LayerCount: 2
Fore
SplineSet
1216 409 m 1x70
 1176 481 1151 556 1151 629 c 0
 1151 684 1165 738 1197 788 c 1
 1098 818 1036 891 1016 981 c 0
 1012 996 1011 1009 1011 1022 c 0
 1011 1054 1021 1084 1040 1119 c 1
 1117 1119 l 1
 1132 1090 1155 1071 1190 1063 c 2
 1280 1044 l 1
 1390 1019 1446 977 1446 858 c 0
 1446 841 1445 823 1443 803 c 1
 1414 793 1391 789 1330 788 c 1
 1308 734 1290 679 1290 625 c 0
 1290 565 1311 508 1370 455 c 2
 1487 352 l 2
 1555 292 1623 205 1623 113 c 0
 1623 69 1608 25 1570 -18 c 1
 1507 -18 l 1xb0
 1499 7 l 2
 1486 51 1464 87 1433 116 c 1
 1082 256 724 426 362 625 c 1
 308 587 287 549 287 512 c 0
 287 393 498 273 532 124 c 0
 536 107 538 92 538 79 c 0
 538 13 490 0 454 0 c 2
 237 0 l 1
 220 73 l 1
 247 80 271 86 271 109 c 0
 271 112 272 116 271 119 c 0
 259 171 134 304 113 395 c 0
 109 411 107 427 107 442 c 0
 107 532 170 607 262 675 c 1
 128 767 l 1
 47 837 -9 921 -9 1007 c 0
 -9 1049 4 1093 35 1135 c 1
 107 1135 l 1
 123 1092 135 1042 186 997 c 1
 429 766 773 569 1216 409 c 1x70
EndSplineSet
Validated: 1
LCarets2: 1 137 
EndChar

StartChar: dalet.wide
Encoding: 64290 64290 113
Width: 1648
GlyphClass: 2
Flags: W
HStem: -27 21G<1255.14 1310.5> 780 276<41.2006 1187>
VStem: 1135 161<458.151 768.489> 1244 183<14.0844 263.759>
AnchorPoint: "A-63" 1180.22 0 basechar 0
AnchorPoint: "A-62" 1095.22 0 basechar 0
AnchorPoint: "A-61" 1010.22 0 basechar 0
AnchorPoint: "A-59" 109.225 0 basechar 0
AnchorPoint: "A-21" -256.275 0 basechar 0
AnchorPoint: "A-8" 1120.72 0 basechar 0
AnchorPoint: "A-20" 24.2246 0 basechar 0
AnchorPoint: "A-7" 1200 0 basechar 0
AnchorPoint: "A-6" 1229 0 basechar 0
AnchorPoint: "A-5" 1273.72 0 basechar 0
AnchorPoint: "A-4" 1320 0 basechar 0
AnchorPoint: "A-3" 746.725 0 basechar 0
LayerCount: 2
Fore
SplineSet
-68 941 m 0xe0
 -74 965 -76 986 -76 1005 c 0
 -76 1073 -46 1110 -34 1126 c 1
 25 1126 l 1
 35 1106 l 2
 48 1078 69 1056 118 1056 c 2
 1197 1056 l 2
 1300 1056 1356 1025 1381 919 c 0
 1386 896 1389 877 1389 862 c 0
 1389 789 1336 793 1305 714 c 0
 1299 698 1296 680 1296 660 c 0xe0
 1296 553 1373 388 1418 192 c 0
 1424 165 1427 141 1427 121 c 0
 1427 7 1343 -17 1278 -27 c 1
 1230 15 l 1
 1240 36 1244 55 1244 76 c 0xd0
 1244 137 1207 217 1159 423 c 0
 1144 490 1135 550 1135 603 c 0
 1135 673 1150 731 1187 780 c 1
 125 780 l 2
 1 780 -48 852 -68 941 c 0xe0
EndSplineSet
Validated: 1
LCarets2: 1 123 
EndChar

StartChar: he.wide
Encoding: 64291 64291 114
Width: 1791
GlyphClass: 2
Flags: W
HStem: 780 276<157.789 1378.92>
VStem: 196 185<194.081 463.993> 261 186<8.95241 244.795> 1359 136<504.983 775.886> 1483 177<13.6722 267.457>
AnchorPoint: "A-63" 934.875 0 basechar 0
AnchorPoint: "A-62" 934.875 0 basechar 0
AnchorPoint: "A-61" 934.875 0 basechar 0
AnchorPoint: "A-59" 152.875 0 basechar 0
AnchorPoint: "A-21" -212.625 0 basechar 0
AnchorPoint: "A-8" 917.875 0 basechar 0
AnchorPoint: "A-20" 152.875 0 basechar 0
AnchorPoint: "A-7" 950 0 basechar 0
AnchorPoint: "A-6" 970 0 basechar 0
AnchorPoint: "A-5" 960 0 basechar 0
AnchorPoint: "A-4" 917.875 0 basechar 0
AnchorPoint: "A-3" 917.875 0 basechar 0
LayerCount: 2
Fore
SplineSet
49 943 m 0x90
 44 965 42 985 42 1003 c 0
 42 1073 74 1109 85 1126 c 1
 145 1126 l 1
 154 1106 l 1
 168 1077 188 1056 232 1056 c 2
 1321 1053 l 2
 1447 1053 1490 1007 1511 916 c 2
 1521 870 l 2
 1524 859 1525 849 1525 840 c 0
 1525 794 1495 777 1495 704 c 0x90
 1495 678 1499 646 1509 602 c 0
 1537 482 1619 326 1650 189 c 0
 1657 160 1660 135 1660 114 c 0
 1660 -11 1559 -24 1520 -30 c 1
 1472 18 l 1
 1479 38 1483 57 1483 78 c 0x88
 1483 161 1431 262 1385 458 c 0
 1369 530 1359 592 1359 648 c 0
 1359 695 1366 737 1383 777 c 1
 248 780 l 2
 168 780 79 813 49 943 c 0x90
411 464 m 1
 411 464 381 454 381 391 c 0xc0
 381 373 383 350 390 322 c 0
 411 229 447 144 447 81 c 0
 447 17 411 -25 288 -33 c 1
 241 21 l 1
 255 40 261 53 261 70 c 0xa0
 261 103 239 149 209 278 c 0
 201 314 196 348 196 379 c 0xc0
 196 475 238 541 330 541 c 0
 356 541 371 534 397 522 c 1
 411 464 l 1
EndSplineSet
Validated: 1
LCarets2: 1 137 
EndChar

StartChar: kaf.wide
Encoding: 64292 64292 115
Width: 1598
GlyphClass: 2
Flags: W
HStem: 0 296<206 1276.41> 781 275<105.375 1122.36>
VStem: 1296 150<182.5 560.036>
AnchorPoint: "A-63" 746.525 0 basechar 0
AnchorPoint: "A-62" 746.525 0 basechar 0
AnchorPoint: "A-61" 746.525 0 basechar 0
AnchorPoint: "A-59" 100.525 0 basechar 0
AnchorPoint: "A-21" -264.975 0 basechar 0
AnchorPoint: "A-8" 746.525 0 basechar 0
AnchorPoint: "A-20" 83.5254 0 basechar 0
AnchorPoint: "A-7" 760 0 basechar 0
AnchorPoint: "A-6" 746.525 0 basechar 0
AnchorPoint: "A-5" 850 0 basechar 0
AnchorPoint: "A-4" 746.525 0 basechar 0
AnchorPoint: "A-3" 763.525 0 basechar 0
LayerCount: 2
Fore
SplineSet
1409 538 m 0
 1432 436 1446 350 1446 278 c 0
 1446 87 1349 -0 1081 0 c 2
 171 0 l 1
 206 296 l 1
 1133 296 l 2
 1248 296 1296 325 1296 412 c 0
 1296 442 1290 478 1280 523 c 0
 1237 709 1184 781 1029 781 c 2
 204 781 l 2
 99 781 17 848 -5 946 c 0
 -10 967 -12 986 -12 1004 c 0
 -12 1063 13 1100 29 1126 c 1
 90 1126 l 1
 100 1106 l 2
 112 1078 135 1056 184 1056 c 2
 938 1056 l 2
 1151 1056 1322 916 1409 538 c 0
EndSplineSet
Validated: 1
LCarets2: 1 121 
EndChar

StartChar: lamed.wide
Encoding: 64293 64293 116
Width: 1559
GlyphClass: 2
Flags: W
HStem: -22 21G<1077 1142.5> 781 275<78.2552 1204.33>
VStem: -198 98<1446 1544> -42 109<1068.84 1305.34> 981 181<29.6103 271.99> 1235 139<485.009 687.763>
AnchorPoint: "A-63" 945.75 0 basechar 0
AnchorPoint: "A-62" 945.75 0 basechar 0
AnchorPoint: "A-61" 945.75 0 basechar 0
AnchorPoint: "A-59" 155.25 0 basechar 0
AnchorPoint: "A-21" -210.25 0 basechar 0
AnchorPoint: "A-8" 1030.75 0 basechar 0
AnchorPoint: "A-20" -112.122 -90 basechar 0
AnchorPoint: "A-7" 1030.75 0 basechar 0
AnchorPoint: "A-6" 1030.75 0 basechar 0
AnchorPoint: "A-5" 1090 0 basechar 0
AnchorPoint: "A-4" 1100 0 basechar 0
AnchorPoint: "A-3" 767.25 0 basechar 0
LayerCount: 2
Fore
SplineSet
-194 1402 m 0
 -196 1409 -198 1425 -198 1446 c 0
 -198 1479 -193 1525 -173 1568 c 1
 -110 1568 l 1
 -100 1544 l 2
 -100 1542 -96 1530 -70 1520 c 2
 -28 1505 l 1
 62 1471 80 1423 80 1356 c 0
 80 1320 74 1279 73 1232 c 2
 71 1180 l 1
 68 1166 67 1153 67 1141 c 0
 67 1084 101 1056 164 1056 c 2
 1042 1056 l 2
 1108 1056 1167 1040 1216 1005 c 1
 1269 964 1313 900 1337 799 c 2
 1361 693 l 2
 1369 657 1374 623 1374 593 c 0
 1374 550 1365 514 1344 485 c 2
 1201 277 l 1
 1171 237 1162 206 1162 178 c 0
 1162 140 1181 110 1188 78 c 0
 1191 67 1192 56 1192 46 c 0
 1192 9 1172 -22 1113 -22 c 0
 1041 -22 981 34 981 125 c 0
 981 189 1011 270 1088 360 c 1
 1208 504 l 1
 1227 530 1235 560 1235 592 c 0
 1235 609 1233 626 1229 644 c 2
 1216 702 l 2
 1200 771 1186 781 1037 781 c 2
 195 781 l 2
 32 781 -42 902 -42 1077 c 0
 -42 1103 -40 1130 -37 1158 c 2
 -28 1243 l 2
 -25 1270 -26 1278 -54 1291 c 2
 -115 1318 l 2
 -142 1330 -182 1351 -194 1402 c 0
EndSplineSet
Validated: 1
LCarets2: 1 113 
EndChar

StartChar: finalmem.wide
Encoding: 64294 64294 117
Width: 1726
GlyphClass: 2
Flags: W
HStem: 0 296<301 1432> 780 279<89.2783 183 315 1290.92>
VStem: 92 143<386.125 709.961>
AnchorPoint: "A-63" 843.3 0 basechar 0
AnchorPoint: "A-62" 843.3 0 basechar 0
AnchorPoint: "A-61" 843.3 0 basechar 0
AnchorPoint: "A-59" 95.2998 0 basechar 0
AnchorPoint: "A-21" -270.2 0 basechar 0
AnchorPoint: "A-8" 843.3 0 basechar 0
AnchorPoint: "A-20" 61.2998 0 basechar 0
AnchorPoint: "A-7" 900 0 basechar 0
AnchorPoint: "A-6" 900 0 basechar 0
AnchorPoint: "A-5" 900 0 basechar 0
AnchorPoint: "A-4" 900 0 basechar 0
AnchorPoint: "A-3" 860.3 0 basechar 0
LayerCount: 2
Fore
SplineSet
-16 945 m 0
 -21 968 -24 988 -24 1006 c 0
 -24 1065 0 1100 18 1126 c 1
 78 1126 l 1
 88 1106 l 2
 101 1077 123 1059 168 1059 c 2
 992 1059 l 2
 1146 1059 1266 1041 1335 988 c 0
 1382 951 1438 876 1480 692 c 2
 1640 0 l 1
 222 0 l 1
 97 540 l 2
 94 556 92 571 92 585 c 0
 92 629 107 666 129 699 c 2
 183 780 l 1
 170 780 l 2
 32 780 0 874 -16 945 c 0
1103 780 m 2
 315 780 l 1
 251 670 l 2
 240 650 235 627 235 600 c 0
 235 579 238 556 244 531 c 2
 301 296 l 1
 1432 296 l 1
 1384 501 l 2
 1350 645 1334 686 1303 729 c 0
 1275 767 1177 780 1103 780 c 2
EndSplineSet
Validated: 1
LCarets2: 1 132 
EndChar

StartChar: resh.wide
Encoding: 64295 64295 118
Width: 1594
GlyphClass: 2
Flags: W
HStem: -21 21G<1390 1457.5> 781 278<34.8811 1166.11>
AnchorPoint: "A-63" 1269.35 0 basechar 0
AnchorPoint: "A-62" 1184.35 0 basechar 0
AnchorPoint: "A-61" 1099.35 0 basechar 0
AnchorPoint: "A-59" 147.35 0 basechar 0
AnchorPoint: "A-21" -218.15 0 basechar 0
AnchorPoint: "A-8" 1235.35 0 basechar 0
AnchorPoint: "A-20" 70.8496 0 basechar 0
AnchorPoint: "A-7" 1200 0 basechar 0
AnchorPoint: "A-6" 1350 0 basechar 0
AnchorPoint: "A-5" 1400 0 basechar 0
AnchorPoint: "A-4" 1430 0 basechar 0
AnchorPoint: "A-3" 784.85 0 basechar 0
LayerCount: 2
Fore
SplineSet
-74 943 m 0
 -79 965 -81 984 -81 1002 c 0
 -81 1063 -56 1100 -40 1126 c 1
 20 1126 l 1
 30 1106 l 2
 43 1078 65 1056 114 1056 c 2
 887 1059 l 1
 898 1059 l 2
 1047 1059 1162 1040 1230 988 c 0
 1277 951 1333 876 1375 691 c 2
 1511 102 l 2
 1513 92 1515 83 1515 74 c 0
 1515 20 1470 -6 1445 -21 c 1
 1390 -4 l 1
 1279 478 l 2
 1232 678 1212 719 1136 754 c 0
 1103 769 1062 781 1012 781 c 2
 136 781 l 2
 26 781 -52 847 -74 943 c 0
EndSplineSet
Validated: 1
LCarets2: 1 118 
EndChar

StartChar: tav.wide
Encoding: 64296 64296 119
Width: 1839
GlyphClass: 2
Flags: W
HStem: 0 3G<204.797 562 1637 1708.5> 780 279<204.332 295 393 1403.56>
VStem: 250 114<462.642 779.352>
AnchorPoint: "A-63" 999.67 0 basechar 0
AnchorPoint: "A-62" 999.67 0 basechar 0
AnchorPoint: "A-61" 999.67 0 basechar 0
AnchorPoint: "A-59" 141.175 0 basechar 0
AnchorPoint: "A-21" -203.075 0 basechar 0
AnchorPoint: "A-8" 999.67 0 basechar 0
AnchorPoint: "A-20" 175.175 0 basechar 0
AnchorPoint: "A-7" 1050 0 basechar 0
AnchorPoint: "A-6" 1050 0 basechar 0
AnchorPoint: "A-5" 1060 0 basechar 0
AnchorPoint: "A-4" 1050 0 basechar 0
AnchorPoint: "A-3" 999.67 0 basechar 0
LayerCount: 2
Fore
SplineSet
313 295 m 1
 291 372 250 488 250 603 c 0
 250 653 258 703 279 750 c 1
 295 780 l 1
 185 784 117 854 96 946 c 0
 91 968 89 987 89 1005 c 0
 89 1075 121 1112 131 1126 c 1
 192 1126 l 1
 202 1106 l 2
 211 1087 230 1059 290 1059 c 2
 1140 1060 l 2
 1294 1060 1414 1042 1482 990 c 0
 1551 937 1596 828 1627 692 c 2
 1757 129 l 2
 1761 114 1762 100 1762 87 c 0
 1762 29 1726 2 1691 -18 c 1
 1637 0 l 1
 1521 502 l 2
 1463 756 1364 780 1228 780 c 2
 393 780 l 1
 375 727 l 2
 367 703 364 678 364 652 c 0
 364 487 503 289 537 145 c 1
 562 0 l 1
 205 0 l 1
 202 295 l 1
 313 295 l 1
EndSplineSet
Validated: 1
LCarets2: 1 143 
EndChar

StartChar: hebrewplussign
Encoding: 64297 64297 120
Width: 1173
GlyphClass: 2
Flags: W
HStem: 402 142<78 428 577 959>
LayerCount: 2
Fore
SplineSet
992 402 m 1
 78 402 l 1
 45 544 l 1
 428 544 l 1
 329 974 l 1
 478 974 l 1
 577 544 l 1
 959 544 l 1
 992 402 l 1
EndSplineSet
Validated: 1
EndChar

StartChar: aleflamed
Encoding: 64335 64335 153
Width: 1148
GlyphClass: 3
Flags: W
HStem: -16 21G<921.6 1009.5> 773 284<-30.7045 173.684>
VStem: -307 280<1340.49 1490.96> -151 111<1063.86 1306.5> 424 451<834 1032> 586 134<624 771.057> 783 92<703.926 758.247>
AnchorPoint: "A-63" 874 0 basechar 0
AnchorPoint: "A-62" 1034 0 basechar 0
AnchorPoint: "A-61" 1094 0 basechar 0
AnchorPoint: "A-20" 154 0 basechar 0
AnchorPoint: "A-7" 636 0 basechar 0
AnchorPoint: "A-6" 600 0 basechar 0
AnchorPoint: "A-5" 680 0 basechar 0
AnchorPoint: "A-4" 634 0 basechar 0
LayerCount: 2
Fore
SplineSet
765 759 m 1xc2
 758 764 743 770 729 773 c 1
 724 687 l 1
 723 664 720 639 720 613 c 0
 720 563 732 507 793 448 c 1
 903 343 l 2
 979 270 1043 193 1043 111 c 0
 1043 70 1028 28 991 -16 c 1
 928 -16 l 1
 920 9 l 2
 907 53 871 93 848 115 c 2
 284 650 l 1
 175 734 l 1
 162 746 131 773 80 773 c 2
 50 773 l 2
 -78 773 -151 923 -151 1096 c 0xd6
 -151 1117 -150 1139 -148 1160 c 1
 -138 1245 l 2
 -136 1272 -137 1280 -165 1293 c 2
 -226 1320 l 2
 -253 1332 -292 1353 -304 1404 c 0
 -306 1411 -307 1427 -307 1448 c 0
 -307 1487 -302 1543 -281 1590 c 1
 -218 1590 l 1
 -208 1570 l 2
 -202 1557 -193 1548 -179 1543 c 2
 -135 1527 l 2
 -78 1506 -38 1472 -27 1424 c 0
 -27 1423 -27 1420 -27 1417 c 0xe0
 -27 1388 -36 1291 -37 1232 c 1
 -40 1182 l 2
 -40 1178 -40 1174 -40 1171 c 0
 -40 1119 -27 1057 12 1057 c 2
 65 1057 l 2
 115 1057 167 1023 215 978 c 2
 586 624 l 1
 586 629 586 635 586 641 c 0xd4
 586 679 592 723 611 776 c 1
 498 808 453 880 432 972 c 0
 427 994 424 1014 424 1032 c 0
 424 1074 437 1106 454 1137 c 1
 524 1137 l 1
 534 1116 l 2
 546 1093 588 1059 630 1055 c 0
 802 1040 875 940 875 834 c 0xc8
 875 789 862 743 838 702 c 1
 783 702 l 1
 781 723 780 743 765 759 c 1xc2
EndSplineSet
Validated: 1
Ligature2: "'ccmp' Alef Lamed Ligature subtable" alef cgj lamed
Ligature2: "'ccmp' Alef Lamed Ligature subtable" alef .null lamed
LCarets2: 2 0 0 
Ligature2: "'ccmp' Alef Lamed Ligature subtable" alef zerojoin lamed
EndChar

StartChar: hatafsegol_meteg
Encoding: 65542 -1 159
Width: 0
GlyphClass: 4
Flags: W
HStem: -590 220<-154.796 -26.2039 366.546 491.961> -336 220<-330.933 -203.204 -94.7961 31.9338 307.546 433.811>
VStem: -367 200<-300.893 -153.001> -191 201<-552.999 -407.001> -131 200<-298.999 -151.107> 271 201<-299.406 -152.107> 330 200<-553.406 -406.107>
AnchorPoint: "A-7" -6.25 0 mark 0
LayerCount: 2
Fore
SplineSet
299 -575 m 1xc0
 192 -573 l 1
 90 -128 l 1
 196 -130 l 1
 299 -575 l 1xc0
456 -590 m 0
 379 -590 330 -513 330 -450 c 0
 330 -407 353 -371 406 -371 c 0
 481 -371 530 -449 530 -512 c 0xc2
 530 -554 508 -590 456 -590 c 0
398 -336 m 0
 320 -336 271 -259 271 -196 c 0
 271 -153 294 -117 347 -117 c 0
 423 -117 472 -195 472 -258 c 0xc4
 472 -300 450 -336 398 -336 c 0
-56 -116 m 0
 20 -116 69 -194 69 -257 c 0
 69 -300 47 -336 -5 -336 c 0
 -82 -336 -131 -258 -131 -195 c 0xc8
 -131 -152 -108 -116 -56 -116 c 0
-116 -370 m 0
 -39 -370 10 -448 10 -511 c 0
 10 -554 -13 -590 -65 -590 c 0
 -142 -590 -191 -512 -191 -449 c 0xd0
 -191 -406 -168 -370 -116 -370 c 0
-293 -116 m 0
 -216 -116 -167 -194 -167 -257 c 0
 -167 -300 -190 -336 -242 -336 c 0
 -318 -336 -367 -258 -367 -195 c 0xe0
 -367 -152 -344 -116 -293 -116 c 0
EndSplineSet
Validated: 1
Ligature2: "'ccmp' Hataf CGJ Meteg substitutions subtable" hatafsegol cgj meteg
Ligature2: "'ccmp' Hataf CGJ Meteg substitutions subtable" hatafsegol .null meteg
Ligature2: "'ccmp' Hataf CGJ Meteg substitutions subtable" hatafsegol zerojoin meteg
LCarets2: 2 0 0 
EndChar

StartChar: hatafpatah_meteg
Encoding: 65543 -1 160
Width: 0
GlyphClass: 4
Flags: W
HStem: -587 219<302.204 430.796> -333 219<243.204 372.273> -262 125<-294 -5>
VStem: 207 202<-296.406 -150.594> 266 201<-550.406 -404.594>
AnchorPoint: "A-7" -1.97461 0 mark 0
LayerCount: 2
Fore
SplineSet
21 -262 m 1xa0
 -294 -262 l 1
 -320 -137 l 1
 -5 -137 l 1
 21 -262 l 1xa0
245 -573 m 1
 152 -575 l 1
 49 -130 l 1
 143 -128 l 1
 245 -573 l 1
392 -587 m 0
 315 -587 266 -510 266 -447 c 0
 266 -404 289 -368 341 -368 c 0
 418 -368 467 -445 467 -508 c 0x88
 467 -551 444 -587 392 -587 c 0
333 -333 m 0xd0
 256 -333 207 -256 207 -193 c 0
 207 -150 230 -114 282 -114 c 0
 359 -114 409 -191 409 -254 c 0
 409 -297 386 -333 333 -333 c 0xd0
EndSplineSet
Validated: 1
Ligature2: "'ccmp' Hataf CGJ Meteg substitutions subtable" hatafpatah cgj meteg
Ligature2: "'ccmp' Hataf CGJ Meteg substitutions subtable" hatafpatah .null meteg
Ligature2: "'ccmp' Hataf CGJ Meteg substitutions subtable" hatafpatah zerojoin meteg
LCarets2: 2 1 0 
EndChar

StartChar: hatafqamats_meteg
Encoding: 65544 -1 161
Width: 0
GlyphClass: 4
Flags: W
HStem: -587 219<303.204 431.41> -333 219<244.204 372.41> -282 149<-300 -164 -76 18>
VStem: -180 198<-535.003 -443.472> -173 97<-351.054 -282> 208 201<-296.406 -151.001> 267 201<-550.406 -405.001>
AnchorPoint: "A-7" -1.7002 0 mark 0
LayerCount: 2
Fore
SplineSet
-76 -282 m 1xa8
 -69 -308 -62 -336 -45 -367 c 1
 18 -466 l 1
 10 -519 4 -541 -22 -577 c 1
 -32 -579 -41 -581 -54 -581 c 0
 -69 -581 -79 -578 -91 -575 c 1
 -135 -545 -151 -518 -180 -466 c 1xb0
 -164 -365 l 1
 -163 -362 -162 -357 -162 -352 c 0
 -162 -332 -168 -300 -173 -282 c 1xa8
 -300 -282 l 1
 -334 -133 l 1
 18 -133 l 1xb0
 52 -282 l 1
 -76 -282 l 1xa8
267 -575 m 1x82
 165 -575 l 1
 62 -130 l 1
 166 -130 l 1
 267 -575 l 1x82
393 -587 m 0
 316 -587 267 -510 267 -447 c 0
 267 -404 290 -368 342 -368 c 0
 418 -368 468 -446 468 -509 c 0
 468 -551 445 -587 393 -587 c 0
334 -333 m 0xc4
 257 -333 208 -256 208 -193 c 0
 208 -150 231 -114 283 -114 c 0
 359 -114 409 -192 409 -255 c 0
 409 -297 386 -333 334 -333 c 0xc4
EndSplineSet
Validated: 1
Ligature2: "'ccmp' Hataf CGJ Meteg substitutions subtable" hatafqamats cgj meteg
Ligature2: "'ccmp' Hataf CGJ Meteg substitutions subtable" hatafqamats .null meteg
Ligature2: "'ccmp' Hataf CGJ Meteg substitutions subtable" hatafqamats zerojoin meteg
LCarets2: 2 0 0 
EndChar

StartChar: hatafsegol_leftmeteg
Encoding: 65545 -1 162
Width: 0
Flags: W
HStem: -589 220<4.2039 130.934 366.204 491.961> -335 220<-172.457 -44.5458 64.1982 191.802 307.204 432.961>
VStem: -208 200<-299.893 -152.001> -32 200<-551.999 -404.107> 28 200<-299.893 -150.352> 271 200<-298.896 -152.352> 330 200<-552.896 -406.352>
AnchorPoint: "A-7" -6.25 0 mark 0
LayerCount: 2
Fore
SplineSet
-176 -581 m 1xc0
 -282 -579 l 1
 -385 -134 l 1
 -279 -136 l 1
 -176 -581 l 1xc0
456 -589 m 0
 379 -589 330 -513 330 -451 c 0
 330 -407 353 -371 406 -371 c 0
 481 -371 530 -449 530 -511 c 0xc2
 530 -554 508 -589 456 -589 c 0
397 -335 m 0
 320 -335 271 -259 271 -197 c 0
 271 -153 294 -117 347 -117 c 0
 422 -117 471 -195 471 -257 c 0xc4
 471 -300 449 -335 397 -335 c 0
103 -115 m 0
 179 -115 228 -193 228 -256 c 0
 228 -299 205 -335 153 -335 c 0
 76 -335 28 -258 28 -195 c 0xc8
 28 -151 51 -115 103 -115 c 0
43 -369 m 0
 119 -369 168 -447 168 -510 c 0
 168 -553 146 -589 94 -589 c 0
 17 -589 -32 -511 -32 -448 c 0xd0
 -32 -405 -9 -369 43 -369 c 0
-134 -115 m 0
 -57 -115 -8 -193 -8 -256 c 0
 -8 -299 -31 -335 -84 -335 c 0
 -160 -335 -208 -257 -208 -194 c 0xe0
 -208 -151 -186 -115 -134 -115 c 0
EndSplineSet
Validated: 1
Ligature2: "'ccmp' Hataf Meteg substitutions subtable" hatafsegol meteg
LCarets2: 1 0 
EndChar

StartChar: hatafpatah_leftmeteg
Encoding: 65546 -1 163
Width: 0
GlyphClass: 4
Flags: W
HStem: -587 219<302.204 430.796> -333 219<243.204 372.273> -263 125<-144 144>
VStem: 207 202<-296.406 -150.594> 266 201<-550.406 -404.594>
AnchorPoint: "A-7" -1.97461 0 mark 0
LayerCount: 2
Fore
SplineSet
171 -263 m 1xa0
 -144 -263 l 1
 -171 -138 l 1
 144 -138 l 1
 171 -263 l 1xa0
-126 -581 m 1
 -219 -583 l 1
 -322 -138 l 1
 -229 -136 l 1
 -126 -581 l 1
392 -587 m 0
 315 -587 266 -510 266 -447 c 0
 266 -404 289 -368 341 -368 c 0
 418 -368 467 -445 467 -508 c 0x88
 467 -551 444 -587 392 -587 c 0
333 -333 m 0xd0
 256 -333 207 -256 207 -193 c 0
 207 -150 230 -114 282 -114 c 0
 359 -114 409 -191 409 -254 c 0
 409 -297 386 -333 333 -333 c 0xd0
EndSplineSet
Validated: 1
Ligature2: "'ccmp' Hataf Meteg substitutions subtable" hatafpatah meteg
LCarets2: 1 0 
EndChar

StartChar: hatafqamats_leftmeteg
Encoding: 65547 -1 164
Width: 0
GlyphClass: 4
Flags: W
HStem: -587 219<301.204 429.41> -333 219<242.204 370.41> -287 149<-148 -11.9998 76 170>
VStem: -28 198<-540.003 -448.472> -21 97<-356.054 -287> 206 201<-296.406 -151.001> 265 201<-550.406 -405.001>
AnchorPoint: "A-7" -3.7002 0 mark 0
LayerCount: 2
Fore
SplineSet
76 -287 m 1xac
 83 -313 90 -341 107 -372 c 1
 170 -471 l 1
 162 -524 156 -546 130 -582 c 1
 120 -584 111 -587 98 -587 c 0
 83 -587 73 -583 61 -580 c 1
 17 -550 1 -523 -28 -471 c 1xb0
 -12 -370 l 1
 -11 -367 -10 -362 -10 -357 c 0
 -10 -337 -16 -305 -21 -287 c 1xa8
 -148 -287 l 1
 -182 -138 l 1
 170 -138 l 1xb0
 206 -287 l 1
 76 -287 l 1xac
-114 -581 m 1
 -218 -581 l 1
 -321 -136 l 1
 -217 -136 l 1
 -114 -581 l 1
391 -587 m 0
 314 -587 265 -510 265 -447 c 0
 265 -404 288 -368 340 -368 c 0
 416 -368 466 -446 466 -509 c 0x82
 466 -551 443 -587 391 -587 c 0
332 -333 m 0xc4
 255 -333 206 -256 206 -193 c 0
 206 -150 229 -114 281 -114 c 0
 357 -114 407 -192 407 -255 c 0
 407 -297 384 -333 332 -333 c 0xc4
EndSplineSet
Validated: 1
Ligature2: "'ccmp' Hataf Meteg substitutions subtable" hatafqamats meteg
LCarets2: 1 0 
EndChar

StartChar: exclam
Encoding: 33 33 165
Width: 505
Flags: W
HStem: 1238 20G<-83.5 12>
VStem: -169 345<971.401 1151.92> 52 303<131.234 246.406>
LayerCount: 2
Fore
SplineSet
58 220 m 2xa0
 134 389 l 2
 146 418 154 420 181 389 c 2
 335 220 l 2
 344 210 355 195 355 177 c 0
 355 170 353 163 350 155 c 2
 274 -14 l 2
 262 -43 254 -45 227 -14 c 2
 73 155 l 2
 60 169 52 181 52 196 c 0
 52 203 54 211 58 220 c 2xa0
176 553 m 2xc0
 176 552 176 552 176 551 c 0
 176 518 150 485 136 485 c 0
 117 485 74 528 63 553 c 2
 -122 966 l 2
 -140 1004 -154 1051 -161 1082 c 0
 -166 1105 -169 1126 -169 1145 c 0
 -169 1220 -126 1258 -41 1258 c 0
 65 1258 129 1200 157 1079 c 0
 163 1052 171 1007 171 966 c 2
 176 553 l 2xc0
EndSplineSet
Validated: 1
EndChar

StartChar: quotedbl
Encoding: 34 34 166
Width: 802
Flags: W
HStem: 645 556<-65 -9 322 378>
VStem: -134 274<977.737 1176.75> 254 275<960 1172.94>
LayerCount: 2
Fore
SplineSet
11 1201 m 0
 112 1201 140 1163 140 1109 c 0
 140 1095 138 1080 135 1065 c 1
 -9 645 l 1
 -65 645 l 1
 -134 1065 l 1
 -134 1071 -134 1077 -134 1083 c 0
 -134 1168 -78 1201 11 1201 c 0
402 1201 m 0
 484 1201 529 1172 529 1111 c 0
 529 1097 527 1082 522 1065 c 1
 378 645 l 1
 322 645 l 1
 254 1065 l 1
 253 1071 254 1079 254 1086 c 0
 254 1134 285 1201 402 1201 c 0
EndSplineSet
Validated: 1
EndChar

StartChar: numbersign
Encoding: 35 35 167
Width: 979
Flags: W
HStem: 0 21G<174.24 329 474.293 630> 375 142<-17 132 297 431 597 746> 701 142<-48 102 270 402 568 715>
LayerCount: 2
Fore
SplineSet
143 375 m 1
 -17 375 l 1
 -49 517 l 1
 132 517 l 1
 116 701 l 1
 -48 701 l 1
 -81 843 l 1
 102 843 l 1
 72 1195 l 1
 226 1195 l 1
 256 843 l 1
 402 843 l 1
 371 1195 l 1
 524 1195 l 1
 556 843 l 1
 715 843 l 1
 748 701 l 1
 568 701 l 1
 586 517 l 1
 746 517 l 1
 778 375 l 1
 597 375 l 1
 630 0 l 1
 476 0 l 1
 444 375 l 1
 297 375 l 1
 329 0 l 1
 176 0 l 1
 143 375 l 1
270 701 m 1
 285 517 l 1
 431 517 l 1
 415 701 l 1
 270 701 l 1
EndSplineSet
Validated: 1
EndChar

StartChar: dollar
Encoding: 36 36 168
Width: 979
Flags: W
HStem: -20 95<255.319 429 549 630.172> 1101 92<91.0168 170 290 428.843>
VStem: -122 182<858.291 1062.45> -22 244<130.5 353.35> 441 262<871.099 1033.37> 670 195<117.343 339.531>
LayerCount: 2
Fore
SplineSet
373 739 m 1xe8
 422 725 l 1
 685 650 812 543 854 360 c 0
 862 327 865 295 865 266 c 0
 865 107 755 4 549 -20 c 1
 598 -234 l 1
 499 -234 l 1
 451 -24 l 1
 195 -5 19 104 -17 261 c 0
 -21 277 -22 292 -22 306 c 0
 -22 376 21 422 92 422 c 0
 203 422 263 337 263 259 c 0
 263 226 252 194 229 171 c 1
 224 165 222 159 222 153 c 0xd4
 222 108 355 75 429 70 c 1
 335 476 l 1
 273 495 l 1
 40 562 -75 659 -112 819 c 0
 -119 849 -122 878 -122 905 c 0
 -122 1013 -71 1102 21 1152 c 0
 60 1174 90 1183 170 1193 c 1
 129 1367 l 1
 228 1367 l 1
 268 1195 l 1
 501 1180 667 1086 698 951 c 0
 701 937 703 923 703 910 c 0
 703 843 659 797 586 797 c 0
 510 797 424 859 424 950 c 0
 424 969 428 989 436 1010 c 1
 440 1017 441 1024 441 1030 c 0
 441 1067 381 1092 290 1101 c 1
 373 739 l 1xe8
267 770 m 1
 191 1101 l 1
 104 1085 60 1046 60 981 c 0xe0
 60 968 62 953 66 937 c 0
 84 857 141 806 244 777 c 1
 267 770 l 1
441 445 m 1xc8
 527 75 l 1
 629 84 670 144 670 211 c 0xc4
 670 225 668 240 665 254 c 0
 633 392 507 427 441 445 c 1xc8
EndSplineSet
Validated: 1
EndChar

StartChar: percent
Encoding: 37 37 169
Width: 1421
Flags: W
HStem: 0 21G<317 470.867> 24 130<968.932 1132.24> 538 131<82.8597 246.831> 556 139<1024.01 1164.8> 969 125<406.134 650.313> 1188 20G<52.5 186> 1212 20G<722.5 887>
VStem: -154 220<683.673 969.918> 312 102<739.799 976.797> 730 221<171.05 449.179> 1200 99<229.075 522.067>
LayerCount: 2
Fore
SplineSet
887 1232 m 1xefe0
 464 0 l 1
 317 0 l 1
 653 988 l 1
 616 975 559 969 506 969 c 0
 468 969 432 972 405 978 c 1
 411 951 414 921 414 891 c 0
 414 814 394 732 356 669 c 0
 301 579 229 538 132 538 c 0
 1 538 -116 630 -146 756 c 0
 -151 780 -154 805 -154 832 c 0
 -154 1000 -46 1208 151 1208 c 0
 221 1208 274 1184 331 1126 c 1
 382 1104 432 1094 495 1094 c 0
 621 1094 696 1133 749 1232 c 1
 887 1232 l 1xefe0
193 1072 m 1
 145 1055 133 1038 104 951 c 1
 78 875 66 824 66 784 c 0
 66 769 68 755 71 742 c 0
 81 698 117 669 158 669 c 0
 252 669 312 791 312 903 c 0
 312 946 303 988 283 1021 c 1
 247 1033 223 1046 193 1072 c 1
1033 695 m 0xdfe0
 1154 695 1261 606 1289 483 c 0
 1296 455 1299 425 1299 394 c 0
 1299 312 1277 224 1236 152 c 1
 1189 72 1110 24 1020 24 c 0
 887 24 769 114 740 239 c 0
 733 266 730 296 730 325 c 0
 730 401 750 480 787 544 c 1
 845 641 931 695 1033 695 c 0xdfe0
1091 556 m 0
 1053 556 1025 528 1000 461 c 0
 966 374 951 311 951 265 c 0
 951 251 952 238 955 227 c 0
 964 186 1003 154 1041 154 c 0
 1131 154 1200 266 1200 386 c 0
 1200 408 1198 430 1193 452 c 0
 1180 508 1135 556 1091 556 c 0
EndSplineSet
Validated: 1
EndChar

StartChar: ampersand
Encoding: 38 38 170
Width: 1454
Flags: W
HStem: -27 186<1040.73 1231.53> -27 141<322.562 690.517> 604 92<755 906.985 1081.6 1199> 1169 89<353.113 532.58>
VStem: -12 262<344.146 524.226> 121 219<947.28 1157.01> 610 186<842.344 1090.68> 1248 93<170.146 282.11>
LayerCount: 2
Fore
SplineSet
1199 696 m 1x77
 1221 604 l 1
 1100 601 1067 574 1030 444 c 1
 1004 360 996 336 963 271 c 1
 1039 194 1102 159 1163 159 c 0
 1219 159 1248 205 1248 293 c 0
 1248 296 1248 299 1248 302 c 1
 1338 283 l 1
 1340 264 1341 246 1341 230 c 0
 1341 192 1336 160 1323 126 c 0
 1283 18 1214 -27 1095 -27 c 0xb7
 989 -27 891 12 799 87 c 1
 709 10 602 -27 465 -27 c 0
 182 -27 32 152 -3 305 c 0
 -9 331 -12 356 -12 379 c 0x7b
 -12 578 194 666 251 695 c 1
 178 797 147 858 128 940 c 0
 123 962 121 985 121 1007 c 0
 121 1069 140 1128 175 1169 c 1
 228 1229 312 1258 423 1258 c 0
 609 1258 756 1159 790 1014 c 0
 794 996 796 978 796 962 c 0
 796 810 627 742 561 712 c 1
 682 564 832 396 883 352 c 1
 915 406 930 448 930 487 c 0
 930 499 929 510 926 521 c 0
 912 579 863 602 755 604 c 1
 733 696 l 1
 1199 696 l 1x77
311 609 m 1
 267 577 250 535 250 489 c 0
 250 423 286 350 329 292 c 1
 414 174 508 114 610 114 c 0x7b
 653 114 682 123 716 152 c 1
 554 306 419 457 311 609 c 1
495 792 m 1
 509 799 511 801 519 804 c 1
 584 841 610 899 610 958 c 0
 610 1062 528 1169 433 1169 c 0
 376 1169 340 1130 340 1074 c 0x37
 340 1064 341 1053 344 1041 c 0
 359 976 400 910 495 792 c 1
EndSplineSet
Validated: 1
EndChar

StartChar: quotesingle
Encoding: 39 39 171
Width: 416
Flags: W
HStem: 645 556<-65 -9>
VStem: -134 275<953.438 1173.44>
LayerCount: 2
Fore
SplineSet
11 1201 m 0
 92 1201 141 1174 141 1113 c 0
 141 1109 140 1105 140 1101 c 0
 139 1091 139 1077 135 1065 c 2
 -9 645 l 1
 -65 645 l 1
 -134 1065 l 1
 -135 1070 -134 1077 -134 1085 c 0
 -134 1127 -111 1201 11 1201 c 0
EndSplineSet
Validated: 1
EndChar

StartChar: parenleft
Encoding: 40 40 172
Width: 663
Flags: W
HStem: 1238 20G<236.5 291.419>
VStem: -20 195<511.088 956.993>
LayerCount: 2
Fore
SplineSet
604 -116 m 1
 623 -201 l 1
 214 -11 -20 367 -20 709 c 0
 -20 834 11 955 76 1060 c 0
 133 1149 186 1198 287 1258 c 1
 306 1172 l 1
 229 1107 199 1054 183 952 c 1
 178 918 175 880 175 839 c 0
 175 605 262 274 400 70 c 1
 458 -12 506 -58 604 -116 c 1
EndSplineSet
Validated: 1
EndChar

StartChar: parenright
Encoding: 41 41 173
Width: 663
Flags: W
HStem: 1238 20G<-200.581 4>
VStem: 243 195<103.878 544.718>
LayerCount: 2
Fore
SplineSet
-186 1172 m 1
 -205 1258 l 1
 213 1064 438 685 438 347 c 0
 438 221 406 100 342 -3 c 0
 285 -92 232 -141 131 -201 c 1
 112 -116 l 1
 189 -51 220 2 235 104 c 1
 241 138 243 177 243 218 c 0
 243 453 156 783 18 986 c 1
 -40 1068 -88 1114 -186 1172 c 1
EndSplineSet
Validated: 1
EndChar

StartChar: asterisk
Encoding: 42 42 174
Width: 853
Flags: W
HStem: 655 162<-56.2884 96.8307 442.089 573.72> 935 174<-114.51 15.3763 352.789 487.165> 1238 20G<119.5 161>
VStem: 74 150<1003 1218.18> 228 147<546.275 763> 345 182<967.689 1090.38>
LayerCount: 2
Fore
SplineSet
213 845 m 1xf8
 190 828 l 1
 88 758 121 655 25 655 c 0
 -32 655 -76 708 -76 756 c 0
 -76 780 -64 803 -37 817 c 1
 23 844 73 811 158 865 c 1
 182 882 l 1
 151 898 l 1
 91 927 77 930 -11 935 c 1
 -100 941 -144 1000 -144 1048 c 0
 -144 1081 -122 1109 -79 1109 c 0
 -12 1109 34 1045 59 1017 c 1
 94 981 121 957 165 935 c 2
 196 920 l 1
 188 952 l 2
 161 1071 93 1097 77 1167 c 0
 75 1175 74 1182 74 1189 c 0
 74 1228 101 1258 138 1258 c 0
 184 1258 231 1217 243 1166 c 0
 245 1157 246 1149 246 1142 c 0
 246 1101 224 1069 224 1012 c 0
 224 994 226 975 231 952 c 2
 239 920 l 1
 262 935 l 1
 306 966 313 978 345 1050 c 0
 362 1091 389 1109 427 1109 c 0
 483 1109 527 1058 527 1011 c 0xf4
 527 986 515 963 488 947 c 0
 470 938 464 939 398 932 c 1
 354 930 327 920 293 898 c 1
 269 882 l 1
 300 867 l 2
 360 838 375 834 461 829 c 1
 551 822 596 762 596 714 c 0
 596 681 575 655 535 655 c 0
 438 655 416 765 287 828 c 1
 256 845 l 1
 264 812 l 2
 291 692 356 667 372 599 c 0
 374 591 375 584 375 576 c 0
 375 536 350 507 311 507 c 0
 267 507 219 548 208 597 c 0
 206 606 205 612 205 620 c 0
 205 635 209 653 220 698 c 1
 226 718 228 736 228 754 c 0
 228 772 226 791 221 812 c 2
 213 845 l 1xf8
EndSplineSet
Validated: 1
EndChar

StartChar: plus
Encoding: 43 43 175
Width: 1034
Flags: W
HStem: 0 21G<415.375 616> 333 196<10 298 539 825>
LayerCount: 2
Fore
SplineSet
343 333 m 1
 10 333 l 1
 -35 529 l 1
 298 529 l 1
 221 862 l 1
 417 862 l 1
 494 529 l 1
 825 529 l 1
 870 333 l 1
 539 333 l 1
 616 0 l 1
 420 0 l 1
 343 333 l 1
EndSplineSet
Validated: 1
EndChar

StartChar: comma
Encoding: 44 44 176
Width: 474
Flags: W
VStem: 144 76<-269.781 -242>
LayerCount: 2
Fore
SplineSet
185 -270 m 0
 156 -270 144 -236 144 -219 c 0
 144 -217 144 -216 144 -215 c 1
 147 20 l 2
 147 44 143 60 126 75 c 1
 41 157 l 2
 15 183 12 194 27 218 c 2
 123 384 l 2
 139 411 149 413 177 384 c 2
 346 218 l 1
 368 194 373 183 365 157 c 1
 220 -242 l 2
 212 -261 198 -270 185 -270 c 0
EndSplineSet
Validated: 1
EndChar

StartChar: hyphen
Encoding: 45 45 177
Width: 665
Flags: W
HStem: 382 255<-37.2263 469.248>
VStem: -41 510<382 637>
LayerCount: 2
Fore
SplineSet
472 602 m 2
 469 408 l 2
 468 391 467 382 443 382 c 2
 -8 382 l 2
 -42 382 -40 390 -41 416 c 1
 -37 611 l 1
 -38 628 -36 637 -12 637 c 2
 438 637 l 2
 474 637 473 628 472 602 c 2
EndSplineSet
Validated: 1
EndChar

StartChar: period
Encoding: 46 46 178
Width: 474
Flags: W
LayerCount: 2
Fore
SplineSet
27 218 m 2
 123 384 l 2
 139 411 149 413 177 384 c 1
 351 218 l 2
 375 196 379 179 365 157 c 2
 268 -9 l 2
 252 -36 243 -38 214 -9 c 1
 41 157 l 2
 15 183 12 194 27 218 c 2
EndSplineSet
Validated: 1
EndChar

StartChar: slash
Encoding: 47 47 179
Width: 474
Flags: W
HStem: -26 21G<-33 95.0561> 1238 20G<96.9439 225>
VStem: -33 258
LayerCount: 2
Fore
SplineSet
99 1258 m 1
 225 1258 l 1
 93 -26 l 1
 -33 -26 l 1
 99 1258 l 1
EndSplineSet
Validated: 1
EndChar

StartChar: zero
Encoding: 48 48 180
Width: 979
Flags: W
HStem: -24 89<375.003 548.81> 1120 88<152.462 327.926>
VStem: -116 251<716.33 1017.55> 567 253<162.719 468.275>
LayerCount: 2
Fore
SplineSet
211 1208 m 0
 325 1208 438 1157 540 1060 c 1
 724 882 820 619 820 396 c 0
 820 164 715 -24 496 -24 c 0
 240 -24 -9 237 -91 592 c 0
 -108 664 -116 732 -116 795 c 0
 -116 1042 7 1208 211 1208 c 0
229 1120 m 0
 169 1120 138 1083 135 1015 c 1
 135 1013 135 1011 135 1008 c 0
 135 850 267 275 340 150 c 0
 373 95 420 65 473 65 c 0
 531 65 564 101 567 169 c 1
 567 171 567 173 567 176 c 0
 567 332 435 915 360 1034 c 1
 329 1089 280 1120 229 1120 c 0
EndSplineSet
Validated: 1
EndChar

StartChar: one
Encoding: 49 49 181
Width: 979
Flags: W
HStem: 0 92<157 329.911 605.04 817> 995 96<-88 140.3> 1188 20G<250.5 358.615>
LayerCount: 2
Fore
SplineSet
354 1208 m 1
 576 246 l 2
 607 114 592 92 762 92 c 2
 817 92 l 1
 838 0 l 1
 157 0 l 1
 136 92 l 1
 191 92 l 2
 300 92 330 99 330 139 c 0
 330 162 320 196 308 246 c 2
 168 852 l 2
 136 994 136 993 -17 995 c 1
 -88 995 l 1
 -110 1091 l 1
 90 1094 207 1128 294 1208 c 1
 354 1208 l 1
EndSplineSet
Validated: 1
EndChar

StartChar: two
Encoding: 50 50 182
Width: 979
Flags: W
HStem: 0 256<240 706.301> 667 299<16.6106 126.543> 1111 97<46.3479 305.392>
VStem: -137 339<774.146 892.679> -137 151<922.5 1075.84> 412 293<641.083 971.107> 709 92<356.81 454>
LayerCount: 2
Fore
SplineSet
709 454 m 1xf6
 801 454 l 1
 869 -7 l 1
 816 -2 792 0 763 0 c 2
 121 0 l 2
 97 0 76 -2 34 -7 c 1
 15 73 l 1
 180 432 412 580 412 819 c 0
 412 848 408 879 401 911 c 0
 372 1037 286 1111 167 1111 c 0
 83 1111 14 1056 14 1011 c 0xee
 14 993 25 977 50 966 c 0
 138 928 180 885 197 812 c 0
 200 798 202 784 202 771 c 0xf6
 202 706 160 667 85 667 c 0
 -17 667 -102 745 -129 864 c 0
 -135 888 -137 911 -137 934 c 0xee
 -137 1093 -1 1208 202 1208 c 0
 484 1208 705 1026 705 807 c 0
 705 752 691 697 661 640 c 1
 592 514 407 433 240 256 c 1
 569 256 l 1
 698 259 709 251 709 351 c 0
 709 357 709 363 709 369 c 2
 709 454 l 1xf6
EndSplineSet
Validated: 1
EndChar

StartChar: three
Encoding: 51 51 183
Width: 979
Flags: W
HStem: -24 89<254.69 506.183> 567 121<135.826 310.391> 577 92<207.976 380.671> 1120 88<57.4303 291.462>
VStem: -135 188<925.5 1102.2> 401 272<721.46 992.295> 544 294<101.957 423.456>
LayerCount: 2
Fore
SplineSet
177 688 m 0xda
 223 688 278 669 312 669 c 0
 370 669 401 717 401 799 c 0
 401 831 396 867 387 908 c 0
 357 1041 276 1120 168 1120 c 0
 112 1120 53 1094 53 1062 c 0
 53 1053 58 1043 70 1034 c 1
 130 988 157 952 168 906 c 0
 171 894 172 882 172 871 c 0
 172 811 131 771 61 771 c 0
 -55 771 -135 873 -135 978 c 0
 -135 1091 -43 1208 192 1208 c 0
 434 1208 623 1087 665 906 c 0
 670 884 673 863 673 843 c 0xbc
 673 745 611 676 495 640 c 1
 452 628 l 1
 545 616 591 604 645 577 c 0
 768 514 838 372 838 247 c 0
 838 173 813 105 761 61 c 0
 695 6 585 -24 460 -24 c 0
 214 -24 19 94 -20 266 c 0
 -24 282 -26 297 -26 311 c 0
 -26 382 21 428 96 428 c 0
 181 428 258 367 277 287 c 0
 280 275 281 264 281 254 c 0
 281 190 230 172 230 143 c 0
 230 141 231 139 231 137 c 0
 240 101 323 65 395 65 c 0
 493 65 544 125 544 231 c 0
 544 262 540 297 531 335 c 0
 494 495 422 577 316 577 c 0xba
 300 577 269 567 205 567 c 0
 159 567 127 610 127 645 c 0
 127 669 141 688 177 688 c 0xda
EndSplineSet
Validated: 1
EndChar

StartChar: four
Encoding: 52 52 184
Width: 979
Flags: W
HStem: 0 92<333 458.979 746.861 894> 309 114<59 395 690 834> 1188 20G<363.538 503>
LayerCount: 2
Fore
SplineSet
663 423 m 1
 834 423 l 1
 861 309 l 1
 690 309 l 1
 704 246 l 2
 729 138 731 131 746 116 c 1
 764 101 805 92 875 92 c 2
 894 92 l 1
 915 0 l 1
 333 0 l 1
 312 92 l 1
 331 92 l 2
 430 92 459 100 459 137 c 0
 459 160 448 195 436 246 c 2
 422 309 l 1
 -39 309 l 1
 -68 435 l 1
 375 1208 l 1
 492 1208 l 1
 514 1082 533 987 542 949 c 2
 663 423 l 1
395 423 m 1
 297 850 l 1
 59 423 l 1
 395 423 l 1
EndSplineSet
Validated: 1
EndChar

StartChar: five
Encoding: 53 53 185
Width: 979
Flags: W
HStem: -24 97<236.69 495.882> 669 116<118.912 393.894> 915 264<55.1547 473.414> 1188 20G<-85.5 -42.5>
VStem: -37 135<517.61 603.251> 537 296<132.567 479.115>
LayerCount: 2
Fore
SplineSet
242 1179 m 0
 486 1179 562 1208 571 1208 c 0
 584 1208 593 1187 593 1156 c 0
 593 1125 585 1085 565 1046 c 1
 519 962 414 915 272 915 c 0
 205 915 135 923 51 940 c 1
 76 720 l 1
 177 771 227 785 307 785 c 0
 632 785 833 524 833 299 c 0
 833 127 716 -24 448 -24 c 0
 212 -24 33 87 -7 258 c 0
 -11 276 -13 293 -13 308 c 0
 -13 385 35 432 117 432 c 0
 204 432 275 376 295 292 c 0
 298 280 299 269 299 259 c 0
 299 179 215 179 215 149 c 0
 215 148 216 146 216 145 c 0
 224 109 305 73 382 73 c 0
 484 73 537 135 537 253 c 0
 537 293 531 339 519 391 c 0
 476 575 390 669 262 669 c 0
 192 669 129 647 88 604 c 1
 95 588 98 574 98 562 c 0
 98 524 68 509 42 509 c 0
 6 509 -29 536 -37 572 c 0
 -39 579 -37 585 -37 590 c 0
 -37 607 -30 621 -8 649 c 1
 -54 944 -73 1071 -98 1208 c 1
 13 1186 100 1179 242 1179 c 0
EndSplineSet
Validated: 1
EndChar

StartChar: six
Encoding: 54 54 186
Width: 979
Flags: W
HStem: -24 80<397.812 557.424> 601 128<277.353 462.974> 816 21G<499 598.5> 1120 88<218.729 393.775>
VStem: -100 271<618.155 977.87> 395 291<890.511 1086> 579 281<124.771 435.972>
LayerCount: 2
Fore
SplineSet
203 616 m 1xfc
 256 698 317 729 426 729 c 0
 627 729 802 586 849 381 c 0
 857 348 860 316 860 286 c 0xfa
 860 102 724 -24 509 -24 c 0
 277 -24 18 134 -72 522 c 0
 -91 605 -100 680 -100 749 c 0
 -100 849 -80 936 -38 1014 c 1
 31 1145 143 1208 305 1208 c 0
 501 1208 647 1116 681 969 c 0
 685 954 686 940 686 926 c 0
 686 858 639 816 558 816 c 0
 440 816 373 905 373 986 c 0
 373 1008 378 1029 388 1048 c 1
 393 1056 395 1064 395 1071 c 0
 395 1101 358 1120 311 1120 c 0
 219 1120 171 1037 171 882 c 0
 171 842 174 796 181 746 c 0
 185 714 198 636 203 616 c 1xfc
257 485 m 1
 257 384 317 56 487 56 c 0
 547 56 579 105 579 197 c 0
 579 242 571 297 556 362 c 0
 521 516 456 598 366 601 c 0
 364 601 362 601 360 601 c 0
 298 601 259 556 257 485 c 1
EndSplineSet
Validated: 1
EndChar

StartChar: seven
Encoding: 55 55 187
Width: 979
Flags: W
HStem: -24 21G<434 525.5> 930 254<15.5514 521.784> 1188 20G<-141.647 -57.5 601 657.789>
VStem: -84 96<698 819.856> 278 282<176.44 573.5>
LayerCount: 2
Fore
SplineSet
302 930 m 0
 228 930 156 937 76 937 c 0
 21 937 11 919 11 803 c 0
 11 791 11 779 11 765 c 1
 12 688 l 1
 -84 698 l 1
 -144 1208 l 1
 29 1189 113 1184 270 1184 c 0
 446 1184 549 1191 653 1208 c 1
 670 1137 l 1
 594 820 560 649 560 498 c 0
 560 392 577 296 607 166 c 0
 612 142 615 120 615 101 c 0
 615 19 569 -24 482 -24 c 0
 386 -24 309 42 286 143 c 0
 280 168 278 193 278 220 c 0
 278 366 358 541 450 763 c 1
 526 937 l 1
 383 934 309 930 302 930 c 0
EndSplineSet
Validated: 1
EndChar

StartChar: eight
Encoding: 56 56 188
Width: 979
Flags: W
HStem: -24 89<317.172 611.054> 1120 88<113.146 367.631>
VStem: -122 203<871.278 1079.47> -26 219<196.502 464.461> 469 208<768.829 1014.09> 664 194<118.953 349.625>
LayerCount: 2
Fore
SplineSet
526 701 m 1xe8
 708 634 810 527 847 367 c 0
 854 335 858 305 858 276 c 0
 858 93 714 -24 477 -24 c 0
 218 -24 24 94 -18 278 c 0
 -23 301 -26 322 -26 342 c 0xd4
 -26 411 4 466 62 500 c 0
 87 515 108 522 158 539 c 1
 6 611 -80 710 -111 845 c 0
 -118 876 -122 905 -122 932 c 0
 -122 1102 12 1208 240 1208 c 0
 460 1208 635 1101 671 944 c 0
 675 926 677 908 677 890 c 0
 677 834 655 784 612 749 c 0
 592 732 570 720 526 701 c 1xe8
422 737 m 1
 428 742 421 740 429 744 c 1
 431 748 l 1
 456 775 469 817 469 864 c 0
 469 884 467 904 462 925 c 0
 435 1044 345 1120 231 1120 c 0
 129 1120 81 1061 81 991 c 0xe8
 81 913 141 821 254 782 c 0
 289 770 348 754 422 737 c 1
260 493 m 1
 214 445 193 405 193 353 c 0
 193 332 197 309 203 283 c 0
 234 146 337 65 475 65 c 0
 590 65 664 128 664 221 c 0xd4
 664 235 663 250 659 265 c 0
 627 402 528 423 260 493 c 1
EndSplineSet
Validated: 1
EndChar

StartChar: nine
Encoding: 57 57 189
Width: 979
Flags: W
HStem: -24 89<318.455 488.579> 449 128<246.542 425.761> 1120 88<147.907 314.77>
VStem: -153 277<759.041 1064.5> 27 287<109.431 282.114> 540 266<191.305 557.915>
LayerCount: 2
Fore
SplineSet
500 561 m 1xec
 447 481 383 449 277 449 c 0
 82 449 -95 598 -141 799 c 0
 -149 834 -153 867 -153 899 c 0xf4
 -153 1083 -21 1208 190 1208 c 0
 425 1208 692 1032 778 659 c 0
 797 579 806 502 806 432 c 0
 806 338 790 255 758 183 c 1
 700 48 576 -24 400 -24 c 0
 207 -24 63 62 32 195 c 0
 28 211 27 226 27 240 c 0
 27 315 76 365 155 365 c 0
 240 365 311 309 330 227 c 0
 333 213 335 201 335 191 c 0
 335 150 314 136 314 110 c 0
 314 107 314 103 315 99 c 0
 320 79 343 65 381 65 c 0
 497 65 540 151 540 282 c 0
 540 362 524 458 500 561 c 1xec
224 1120 m 0
 149 1120 124 1058 124 979 c 0
 124 860 181 702 217 650 c 0
 247 607 300 577 348 577 c 0
 420 577 446 636 446 714 c 0
 446 823 394 969 344 1043 c 1
 313 1092 268 1120 224 1120 c 0
EndSplineSet
Validated: 1
EndChar

StartChar: colon
Encoding: 58 58 190
Width: 474
Flags: W
LayerCount: 2
Fore
SplineSet
-107 795 m 5
 -9 959 l 6
 6 986 16 988 45 959 c 5
 217 795 l 5
 232 780 240 769 240 755 c 4
 240 748 237 740 232 730 c 5
 135 567 l 6
 119 540 110 538 81 567 c 5
 -92 730 l 5
 -108 747 -115 758 -115 770 c 4
 -115 777 -112 785 -107 795 c 5
27 218 m 6
 123 384 l 6
 139 411 149 413 177 384 c 5
 351 218 l 6
 375 196 379 179 365 157 c 6
 268 -9 l 6
 252 -36 243 -38 214 -9 c 5
 41 157 l 6
 15 183 12 194 27 218 c 6
EndSplineSet
Validated: 1
EndChar

StartChar: semicolon
Encoding: 59 59 191
Width: 474
Flags: W
VStem: 144 76<-269.781 -242>
LayerCount: 2
Fore
SplineSet
185 -270 m 0
 156 -270 144 -236 144 -219 c 0
 144 -217 144 -216 144 -215 c 1
 147 20 l 2
 147 44 143 60 126 75 c 1
 41 157 l 2
 15 183 12 194 27 218 c 2
 123 384 l 2
 139 411 149 413 177 384 c 2
 346 218 l 1
 368 194 373 183 365 157 c 1
 220 -242 l 2
 212 -261 198 -270 185 -270 c 0
-107 795 m 1
 -9 959 l 2
 6 986 16 988 45 959 c 1
 217 795 l 1
 232 780 240 769 240 755 c 0
 240 748 237 740 232 730 c 1
 135 567 l 2
 119 540 110 538 81 567 c 1
 -92 730 l 1
 -108 747 -115 758 -115 770 c 0
 -115 777 -112 785 -107 795 c 1
EndSplineSet
Validated: 1
EndChar

StartChar: less
Encoding: 60 60 192
Width: 1034
Flags: W
LayerCount: 2
Fore
SplineSet
793 689 m 1
 293 432 l 1
 913 171 l 1
 962 -43 l 1
 3 353 l 1
 -33 507 l 1
 744 903 l 1
 793 689 l 1
EndSplineSet
Validated: 1
EndChar

StartChar: equal
Encoding: 61 61 193
Width: 1034
Flags: W
HStem: 157 196<51 866> 509 196<-31 784>
LayerCount: 2
Fore
SplineSet
51 157 m 1
 6 353 l 1
 866 353 l 1
 911 157 l 1
 51 157 l 1
-31 509 m 1
 -76 705 l 1
 784 705 l 1
 829 509 l 1
 -31 509 l 1
EndSplineSet
Validated: 1
EndChar

StartChar: greater
Encoding: 62 62 194
Width: 1034
Flags: W
LayerCount: 2
Fore
SplineSet
-77 689 m 1
 -126 903 l 1
 834 507 l 1
 870 353 l 1
 92 -43 l 1
 43 171 l 1
 542 432 l 1
 -77 689 l 1
EndSplineSet
Validated: 1
EndChar

StartChar: question
Encoding: 63 63 195
Width: 853
Flags: W
HStem: 1155 103<83.1312 211.984>
VStem: -196 275<969.968 1154.26> 195 106<533.469 569.516> 199 302<128.594 246.406> 297 302<757.394 1050.69>
LayerCount: 2
Fore
SplineSet
205 220 m 1xd0
 280 389 l 2
 292 418 301 420 328 389 c 2
 481 220 l 2
 490 210 501 195 501 177 c 0
 501 170 499 163 496 155 c 2
 421 -14 l 2
 409 -43 400 -45 373 -14 c 2
 220 155 l 1
 205 173 199 184 199 195 c 0
 199 202 201 210 205 220 c 1xd0
195 608 m 1xe0
 195 609 195 611 195 612 c 0xe0
 195 723 297 763 297 897 c 0
 297 919 294 944 287 973 c 0
 263 1080 188 1155 124 1155 c 0
 91 1155 79 1144 79 1123 c 0
 79 1091 109 1036 124 969 c 0
 127 957 128 946 128 935 c 0
 128 874 83 833 9 833 c 0
 -85 833 -169 900 -190 992 c 0
 -194 1009 -196 1026 -196 1041 c 0
 -196 1171 -68 1258 133 1258 c 0
 372 1258 549 1140 592 954 c 0
 597 933 599 913 599 893 c 0xc8
 599 837 580 787 547 748 c 0
 468 654 352 618 301 505 c 1
 289 483 284 481 265 503 c 2
 210 568 l 2
 200 580 194 589 195 608 c 1xe0
EndSplineSet
Validated: 1
EndChar

StartChar: at
Encoding: 64 64 196
Width: 1274
Flags: W
HStem: -26 105<430.565 849.811> 247 89<374.053 523.699> 253 104<753.734 894.013> 889 89<411.208 563.714> 1154 104<193.182 608.338>
VStem: -120 110<537.821 952.726> 145 192<418.049 795.852> 589 162<420.337 617.303> 972 104<445.046 806.789>
LayerCount: 2
Fore
SplineSet
761 253 m 0xbf80
 689 253 610 283 604 375 c 1
 579 288 526 247 441 247 c 0xdf80
 313 247 190 359 157 502 c 0
 149 536 145 573 145 610 c 0
 145 785 232 978 431 978 c 0
 506 978 553 952 611 889 c 1
 617 949 l 1
 795 949 l 1
 751 457 l 1
 751 449 751 442 751 435 c 0
 751 387 759 357 804 357 c 0
 855 357 972 427 972 603 c 0
 972 637 968 674 958 715 c 0
 899 969 664 1154 396 1154 c 0
 147 1154 -10 991 -10 758 c 0
 -10 716 -5 671 6 625 c 0
 77 316 356 79 646 79 c 0
 829 79 964 165 1024 324 c 1
 1142 324 l 1
 1131 261 1112 222 1069 167 c 0
 970 36 838 -26 666 -26 c 0
 321 -26 -19 260 -102 618 c 0
 -114 670 -120 720 -120 768 c 0
 -120 1050 78 1258 374 1258 c 0
 690 1258 996 1022 1064 727 c 0
 1072 690 1076 654 1076 619 c 0
 1076 418 944 253 761 253 c 0xbf80
488 889 m 0
 383 889 337 705 337 554 c 0
 337 511 341 470 348 437 c 0
 363 372 400 336 449 336 c 0
 504 336 543 386 561 478 c 0
 577 562 589 689 589 763 c 0
 589 785 588 802 586 812 c 0
 576 853 532 889 488 889 c 0
EndSplineSet
Validated: 1
EndChar

StartChar: A
Encoding: 65 65 197
Width: 1295
Flags: W
HStem: 0 92<-31 76.8998 317.576 463 729 856.984 1200.76 1328> 372 114<391 729> 1238 20G<590.448 737.28>
LayerCount: 2
Fore
SplineSet
599 1258 m 1
 729 1258 l 1
 1167 200 l 2
 1203 113 1231 95 1328 92 c 1
 1328 0 l 1
 729 0 l 1
 729 92 l 1
 758 94 l 1
 835 94 857 104 857 135 c 0
 857 149 850 174 836 205 c 2
 771 372 l 1
 346 372 l 1
 319 307 l 2
 297 258 292 239 292 210 c 0
 292 131 340 99 463 92 c 1
 463 0 l 1
 -31 0 l 1
 -31 92 l 1
 70 102 133 169 212 353 c 2
 599 1258 l 1
563 894 m 1
 391 486 l 1
 729 486 l 1
 563 894 l 1
EndSplineSet
Validated: 1
EndChar

StartChar: B
Encoding: 66 66 198
Width: 1327
Flags: W
HStem: 0 92<29 194.281 515.857 837.906> 585 94<514 798.226> 1140 92<29 194.281 534.803 816.249>
VStem: 207 307<118.651 585 679 1115.3> 891 309<788.622 1066.23> 930 326<183.94 474.16>
LayerCount: 2
Fore
SplineSet
29 1232 m 1xf4
 688 1232 l 2
 891 1232 971 1219 1065 1164 c 1
 1149 1118 1200 1027 1200 930 c 0xf8
 1200 828 1145 745 1043 696 c 0
 995 674 948 663 864 649 c 1
 953 637 1004 623 1062 596 c 0
 1188 540 1256 442 1256 323 c 0
 1256 209 1184 100 1075 51 c 1
 988 13 897 0 720 0 c 2
 29 0 l 1
 29 92 l 1
 55 92 l 2
 144 92 180 99 195 118 c 0
 207 132 207 138 207 246 c 2
 207 986 l 2
 207 1095 207 1101 195 1116 c 0
 180 1133 144 1140 55 1140 c 2
 29 1140 l 1
 29 1232 l 1xf4
514 679 m 1
 597 679 l 2
 703 679 761 692 807 730 c 0
 862 773 891 839 891 923 c 0
 891 1065 810 1140 660 1140 c 2
 609 1140 l 2
 577 1140 551 1133 534 1118 c 0
 517 1104 514 1090 514 1041 c 2
 514 679 l 1
514 585 m 1
 514 201 l 2
 514 145 514 140 519 126 c 0
 529 102 558 92 618 92 c 2
 669 92 l 2
 751 92 807 107 850 143 c 0
 899 184 930 259 930 341 c 0xf4
 930 430 894 505 836 544 c 0
 788 575 739 585 631 585 c 2
 514 585 l 1
EndSplineSet
Validated: 1
EndChar

StartChar: C
Encoding: 67 67 199
Width: 1327
Flags: W
HStem: -26 106<584.122 919.805> 1169 89<575.789 891.893>
VStem: 68 340<351.377 850.548> 1118 90<763 886.422> 1128 106<311.457 430.381>
LayerCount: 2
Fore
SplineSet
1191 1251 m 1xf0
 1208 763 l 1
 1118 753 l 1xf0
 1041 1038 916 1169 727 1169 c 0
 517 1169 408 984 408 631 c 0
 408 256 517 80 749 80 c 0
 945 80 1082 215 1128 452 c 1
 1234 427 l 1xe8
 1169 122 995 -26 693 -26 c 0
 493 -26 348 32 230 162 c 0
 121 283 68 424 68 601 c 0
 68 983 338 1258 713 1258 c 0
 834 1258 913 1237 1026 1169 c 1
 1118 1251 l 1
 1191 1251 l 1xf0
EndSplineSet
Validated: 1
EndChar

StartChar: D
Encoding: 68 68 200
Width: 1421
Flags: W
HStem: 0 92<32 197.281 524.762 840.145> 1140 92<32 197.281 523.599 835.023>
VStem: 210 307<118.651 1113.35> 1014 339<361.12 890.577>
LayerCount: 2
Fore
SplineSet
210 246 m 2
 210 986 l 2
 210 1094 210 1100 198 1114 c 0
 183 1133 147 1140 58 1140 c 2
 32 1140 l 1
 32 1232 l 1
 640 1232 l 2
 881 1232 1007 1208 1109 1140 c 0
 1269 1036 1353 859 1353 630 c 0
 1353 396 1270 210 1118 104 c 0
 1012 31 875 0 660 0 c 2
 32 0 l 1
 32 92 l 1
 58 92 l 2
 147 92 183 99 198 118 c 0
 210 132 210 138 210 246 c 2
620 92 m 2
 655 92 l 2
 769 92 871 135 922 208 c 1
 978 285 1014 450 1014 633 c 0
 1014 974 899 1140 662 1140 c 2
 620 1140 l 2
 538 1140 517 1120 517 1038 c 2
 517 203 l 2
 517 113 536 92 620 92 c 2
EndSplineSet
Validated: 1
EndChar

StartChar: E
Encoding: 69 69 201
Width: 1295
Flags: W
HStem: 0 92<27 192.281 539.94 908.274> 591 93<512 681.964> 1140 92<27 192.281 524.25 898.835>
VStem: 205 307<118.651 591 684 1113.35> 777 92<348 489.06 785.94 927> 1094 89<788 911.58> 1116 91<339.678 459>
LayerCount: 2
Fore
SplineSet
1172 1232 m 1xfa
 1183 788 l 1
 1094 788 l 1xfc
 1068 877 1031 963 995 1014 c 0
 937 1094 833 1140 707 1140 c 2
 659 1140 l 2
 589 1140 548 1129 529 1103 c 0
 515 1083 512 1063 512 993 c 2
 512 684 l 1
 541 684 l 2
 674 684 758 770 777 927 c 1
 869 927 l 1
 869 348 l 1
 777 348 l 1
 758 505 674 591 541 591 c 2
 512 591 l 1
 512 212 l 2
 512 156 517 136 539 116 c 0
 559 96 582 92 666 92 c 2
 717 92 l 2
 924 92 1044 203 1116 459 c 1
 1207 459 l 1
 1186 0 l 1
 27 0 l 1
 27 92 l 1
 53 92 l 2
 142 92 178 99 193 118 c 0
 205 132 205 138 205 246 c 2
 205 986 l 2
 205 1094 205 1100 193 1114 c 0
 178 1133 142 1140 53 1140 c 2
 27 1140 l 1
 27 1232 l 1
 1172 1232 l 1xfa
EndSplineSet
Validated: 1
EndChar

StartChar: F
Encoding: 70 70 202
Width: 1232
Flags: W
HStem: 0 92<38 202.281 524.93 720> 591 93<522 692.81> 1140 92<38 202.281 534.25 893.451>
VStem: 215 307<118.651 591 684 1113.35> 787 92<348 489.06 785.055 927> 1089 89<788 912.692>
LayerCount: 2
Fore
SplineSet
1167 1232 m 1
 1178 788 l 1
 1089 788 l 1
 1063 878 1026 965 990 1014 c 0
 932 1094 827 1140 701 1140 c 2
 669 1140 l 2
 599 1140 558 1129 539 1103 c 0
 525 1083 522 1063 522 993 c 2
 522 684 l 1
 551 684 l 2
 686 684 768 768 787 927 c 1
 879 927 l 1
 879 348 l 1
 787 348 l 1
 768 505 686 591 551 591 c 2
 522 591 l 1
 522 246 l 2
 522 138 522 132 534 118 c 0
 549 99 586 92 676 92 c 2
 720 92 l 1
 720 0 l 1
 38 0 l 1
 38 92 l 1
 63 92 l 2
 152 92 188 99 203 118 c 0
 215 132 215 138 215 246 c 2
 215 986 l 2
 215 1094 215 1100 203 1114 c 0
 188 1133 152 1140 63 1140 c 2
 38 1140 l 1
 38 1232 l 1
 1167 1232 l 1
EndSplineSet
Validated: 1
EndChar

StartChar: G
Encoding: 71 71 203
Width: 1421
Flags: W
HStem: -26 89<564.769 858.266> 481 92<788 956.628 1254.71 1394> 1169 89<591.436 918.144>
VStem: 67 341<343.589 854.736> 963 279<168.657 456.348> 1152 90<761 894.829>
LayerCount: 2
Fore
SplineSet
1227 1251 m 1xf4
 1242 761 l 1
 1152 761 l 1xf4
 1096 1020 947 1169 746 1169 c 0
 645 1169 554 1121 505 1041 c 0
 442 939 408 789 408 608 c 0
 408 448 432 309 478 210 c 0
 521 118 606 63 710 63 c 0
 862 63 963 168 963 328 c 2
 963 352 l 2
 963 477 955 481 807 481 c 2
 788 481 l 1
 788 573 l 1
 1394 573 l 1
 1394 481 l 1
 1297 479 1269 474 1254 457 c 0
 1242 443 1242 436 1242 328 c 2xf8
 1242 -26 l 1
 1152 -26 l 1
 1068 143 l 1
 1019 92 992 70 949 44 c 0
 870 0 766 -26 662 -26 c 0
 309 -26 67 228 67 597 c 0
 67 785 120 928 236 1051 c 1
 362 1188 529 1258 725 1258 c 0
 848 1258 932 1234 1051 1166 c 1
 1152 1251 l 1
 1227 1251 l 1xf4
EndSplineSet
Validated: 1
EndChar

StartChar: H
Encoding: 72 72 204
Width: 1484
Flags: W
HStem: 0 92<34 199.281 531.719 698 787 951.281 1273.72 1451> 579 102<519 964> 1140 92<34 199.281 531.719 698 787 951.281 1273.93 1451>
VStem: 212 307<118.651 579 681 1113.35> 964 307<118.651 579 681 1113.35>
LayerCount: 2
Fore
SplineSet
964 579 m 1
 519 579 l 1
 519 246 l 2
 519 137 519 132 531 118 c 0
 546 99 583 92 672 92 c 2
 698 92 l 1
 698 0 l 1
 34 0 l 1
 34 92 l 1
 60 92 l 2
 149 92 185 99 200 118 c 0
 212 132 212 138 212 246 c 2
 212 985 l 2
 212 1094 212 1100 200 1114 c 0
 185 1133 149 1140 60 1140 c 2
 34 1140 l 1
 34 1232 l 1
 698 1232 l 1
 698 1140 l 1
 672 1140 l 2
 583 1140 546 1133 531 1114 c 0
 519 1100 519 1094 519 985 c 2
 519 681 l 1
 964 681 l 1
 964 985 l 2
 964 1093 964 1100 952 1114 c 0
 937 1133 901 1140 812 1140 c 2
 787 1140 l 1
 787 1232 l 1
 1451 1232 l 1
 1451 1140 l 1
 1425 1140 l 2
 1336 1140 1298 1133 1283 1114 c 0
 1271 1100 1271 1094 1271 985 c 2
 1271 246 l 2
 1271 137 1271 132 1283 118 c 0
 1298 99 1336 92 1425 92 c 2
 1451 92 l 1
 1451 0 l 1
 787 0 l 1
 787 92 l 1
 812 92 l 2
 901 92 937 99 952 118 c 0
 964 132 964 138 964 246 c 2
 964 579 l 1
EndSplineSet
Validated: 1
EndChar

StartChar: I
Encoding: 73 73 205
Width: 757
Flags: W
HStem: 0 92<48 212.281 534.715 712> 1140 92<48 212.281 534.715 712>
VStem: 225 307<118.651 1113.35>
LayerCount: 2
Fore
SplineSet
225 246 m 2
 225 986 l 2
 225 1094 225 1100 213 1114 c 0
 198 1133 162 1140 73 1140 c 2
 48 1140 l 1
 48 1232 l 1
 712 1232 l 1
 712 1140 l 1
 686 1140 l 2
 597 1140 559 1133 544 1114 c 0
 532 1100 532 1095 532 986 c 2
 532 246 l 2
 532 137 532 132 544 118 c 0
 559 99 597 92 686 92 c 2
 712 92 l 1
 712 0 l 1
 48 0 l 1
 48 92 l 1
 73 92 l 2
 162 92 198 99 213 118 c 0
 225 132 225 138 225 246 c 2
EndSplineSet
Validated: 1
EndChar

StartChar: J
Encoding: 74 74 206
Width: 1105
Flags: W
HStem: -26 105<198.079 497.156> 229 334<145.417 338.233> 1140 92<427 591.281 913.715 1091>
VStem: 7 136<140.742 384.5> 604 307<211.019 1113.35>
LayerCount: 2
Fore
SplineSet
911 986 m 2
 911 478 l 2
 911 275 869 164 761 79 c 0
 674 9 560 -26 420 -26 c 0
 164 -26 7 103 7 311 c 0
 7 458 95 563 218 563 c 0
 320 563 394 490 394 389 c 0
 394 297 327 229 237 229 c 0
 223 229 211 231 196 234 c 0
 187 236 181 237 176 237 c 0
 157 237 143 224 143 205 c 0
 143 138 239 79 345 79 c 0
 434 79 515 118 558 179 c 0
 592 230 604 295 604 418 c 2
 604 986 l 2
 604 1095 604 1100 592 1114 c 0
 577 1133 541 1140 452 1140 c 2
 427 1140 l 1
 427 1232 l 1
 1091 1232 l 1
 1091 1140 l 1
 1065 1140 l 2
 976 1140 938 1133 923 1114 c 0
 911 1100 911 1095 911 986 c 2
EndSplineSet
Validated: 1
EndChar

StartChar: K
Encoding: 75 75 207
Width: 1390
Flags: W
HStem: 0 92<26 190.281 512.93 689 775 912.973 1279.13 1396> 1140 92<26 190.281 512.93 689 775 941.401 1200.18 1350>
VStem: 203 307<118.651 427 587 1113.35>
LayerCount: 2
Fore
SplineSet
654 577 m 1
 510 427 l 1
 510 246 l 2
 510 138 510 132 522 118 c 0
 537 99 575 92 664 92 c 2
 689 92 l 1
 689 0 l 1
 26 0 l 1
 26 92 l 1
 51 92 l 2
 140 92 176 99 191 118 c 0
 203 132 203 138 203 246 c 2
 203 986 l 2
 203 1094 203 1100 191 1114 c 0
 176 1133 140 1140 51 1140 c 2
 26 1140 l 1
 26 1232 l 1
 689 1232 l 1
 689 1140 l 1
 664 1140 l 2
 575 1140 537 1133 522 1114 c 0
 510 1100 510 1094 510 986 c 2
 510 587 l 1
 887 986 l 2
 918 1020 944 1061 944 1080 c 0
 944 1119 900 1140 816 1140 c 2
 775 1140 l 1
 775 1232 l 1
 1350 1232 l 1
 1350 1140 l 1
 1237 1133 1152 1084 1004 939 c 1
 862 790 l 1
 1217 224 l 2
 1296 101 1302 97 1396 92 c 1
 1396 0 l 1
 775 0 l 1
 775 92 l 1
 797 92 l 2
 876 92 913 104 913 131 c 0
 913 146 907 162 893 186 c 2
 654 577 l 1
EndSplineSet
Validated: 1
EndChar

StartChar: L
Encoding: 76 76 208
Width: 1232
Flags: W
HStem: 0 92<32 197.281 544.94 892.215> 1140 92<32 197.281 519.93 708>
VStem: 210 307<118.651 1113.35> 1106 90<330.874 459>
LayerCount: 2
Fore
SplineSet
1106 459 m 1
 1196 459 l 1
 1176 0 l 1
 32 0 l 1
 32 92 l 1
 58 92 l 2
 147 92 183 99 198 118 c 0
 210 132 210 138 210 247 c 2
 210 986 l 2
 210 1094 210 1100 198 1114 c 0
 183 1133 147 1140 58 1140 c 2
 32 1140 l 1
 32 1232 l 1
 708 1232 l 1
 708 1140 l 1
 671 1140 l 2
 581 1140 544 1133 529 1114 c 0
 517 1100 517 1094 517 986 c 2
 517 212 l 2
 517 156 522 136 544 116 c 0
 564 96 587 92 671 92 c 2
 707 92 l 2
 828 92 925 136 995 220 c 0
 1041 276 1072 341 1106 459 c 1
EndSplineSet
Validated: 1
EndChar

StartChar: M
Encoding: 77 77 209
Width: 1674
Flags: W
HStem: 0 92<15 153.72 359.282 502 995 1154.28 1487.72 1647> 1140 92<27 197.07 1487.72 1647>
VStem: 200 114<138.011 1078.39> 1167 308<118.652 1096.4>
LayerCount: 2
Fore
SplineSet
577 1232 m 1
 841 498 l 1
 1091 1232 l 1
 1647 1232 l 1
 1647 1140 l 1
 1628 1140 l 2
 1538 1140 1502 1133 1487 1114 c 0
 1475 1100 1475 1092 1475 986 c 2
 1475 246 l 2
 1475 140 1475 132 1487 118 c 0
 1502 99 1538 92 1628 92 c 2
 1647 92 l 1
 1647 0 l 1
 995 0 l 1
 995 92 l 1
 1014 92 l 2
 1104 92 1140 99 1155 118 c 0
 1167 132 1167 138 1167 246 c 2
 1167 1097 l 1
 790 0 l 1
 701 0 l 1
 314 1080 l 1
 314 370 l 2
 314 218 322 176 358 138 c 0
 385 109 434 94 502 92 c 1
 502 0 l 1
 15 0 l 1
 15 92 l 1
 82 94 128 109 155 138 c 0
 191 176 200 220 200 370 c 2
 200 986 l 2
 200 1094 200 1100 188 1114 c 0
 173 1133 136 1140 46 1140 c 2
 27 1140 l 1
 27 1232 l 1
 577 1232 l 1
EndSplineSet
Validated: 1
EndChar

StartChar: N
Encoding: 78 78 210
Width: 1421
Flags: W
HStem: 0 94<27 165.725 371.278 514> 1140 92<31 161.357 935 1073.72 1279.28 1422>
VStem: 212 114<140.011 932> 1120 114<461 1093.99>
LayerCount: 2
Fore
SplineSet
461 1232 m 1
 1120 461 l 1
 1120 862 l 2
 1120 1012 1111 1056 1075 1094 c 0
 1048 1123 1002 1138 935 1140 c 1
 935 1232 l 1
 1422 1232 l 1
 1422 1140 l 1
 1354 1138 1305 1123 1278 1094 c 0
 1242 1056 1234 1014 1234 862 c 2
 1234 -12 l 1
 1120 -12 l 1
 326 932 l 1
 326 370 l 2
 326 220 334 178 370 140 c 0
 397 111 441 97 514 94 c 1
 514 0 l 1
 27 0 l 1
 27 94 l 1
 100 97 140 111 167 140 c 0
 203 178 212 220 212 370 c 2
 212 1043 l 1
 169 1104 108 1138 31 1140 c 1
 31 1232 l 1
 461 1232 l 1
EndSplineSet
Validated: 1
EndChar

StartChar: O
Encoding: 79 79 211
Width: 1421
Flags: W
HStem: -26 89<568.924 855.641> 1169 89<563.019 852.341>
VStem: 67 341<359.654 843.378> 1014 341<364.994 841.948>
LayerCount: 2
Fore
SplineSet
712 1258 m 0
 879 1258 1012 1212 1126 1113 c 0
 1268 992 1355 797 1355 599 c 0
 1355 399 1273 226 1126 108 c 0
 1012 18 877 -26 703 -26 c 0
 333 -26 67 235 67 597 c 0
 67 797 152 990 295 1113 c 0
 406 1210 546 1258 712 1258 c 0
713 1169 m 0
 612 1169 544 1132 495 1048 c 0
 437 951 408 814 408 630 c 0
 408 451 439 301 495 195 c 0
 543 106 614 63 713 63 c 0
 908 63 1014 251 1014 597 c 0
 1014 781 983 936 927 1038 c 0
 878 1125 805 1169 713 1169 c 0
EndSplineSet
Validated: 1
EndChar

StartChar: P
Encoding: 80 80 212
Width: 1295
Flags: W
HStem: 0 92<41 206.281 538.719 717> 529 94<526 827.784> 1138 94<41 206.281 531.62 847.48>
VStem: 218 308<116.697 529 623 1113.4> 925 329<715.194 1056.47>
LayerCount: 2
Fore
SplineSet
526 529 m 1
 526 246 l 2
 526 137 526 131 538 116 c 0
 553 99 589 92 679 92 c 2
 717 92 l 1
 717 0 l 1
 41 0 l 1
 41 92 l 1
 67 92 l 2
 156 92 192 99 207 116 c 0
 217 129 218 135 218 205 c 0
 218 217 218 230 218 246 c 2
 218 985 l 2
 218 1001 218 1014 218 1026 c 0
 218 1096 217 1101 207 1114 c 0
 192 1131 156 1138 67 1138 c 2
 41 1138 l 1
 41 1232 l 1
 719 1232 l 2
 890 1232 990 1215 1082 1172 c 0
 1191 1121 1254 1017 1254 889 c 0
 1254 650 1074 529 717 529 c 2
 526 529 l 1
526 623 m 1
 625 623 l 2
 845 623 925 695 925 891 c 0
 925 1062 850 1138 688 1138 c 2
 620 1138 l 2
 543 1138 526 1120 526 1036 c 2
 526 623 l 1
EndSplineSet
Validated: 1
EndChar

StartChar: Q
Encoding: 81 81 213
Width: 1421
Flags: W
HStem: -321 159<996.5 1254.68> -26 89<567.758 804.512> 398 97<556.522 763.775> 1169 89<561.818 844.861>
VStem: 65 341<376.903 859.845> 1007 341<381.284 855.062> 1287 92<-150.11 -31>
LayerCount: 2
Fore
SplineSet
806 -43 m 2xfa
 806 -17 l 1
 765 -24 739 -26 698 -26 c 0
 507 -26 352 43 229 183 c 0
 121 304 65 454 65 620 c 0
 65 982 343 1258 710 1258 c 0
 1065 1258 1348 975 1348 620 c 0xfc
 1348 400 1239 194 1058 75 c 1
 1121 -116 1150 -162 1203 -162 c 0
 1256 -162 1278 -127 1287 -31 c 1
 1379 -31 l 1
 1379 -44 l 2
 1379 -208 1259 -321 1085 -321 c 0
 908 -321 806 -220 806 -43 c 2xfa
964 299 m 1
 991 371 1007 494 1007 631 c 0
 1007 776 983 910 940 1009 c 0
 894 1115 815 1169 707 1169 c 0
 509 1169 406 992 406 647 c 0
 406 505 418 396 442 323 c 1
 462 376 476 401 503 427 c 0
 547 470 616 495 688 495 c 0
 775 495 858 457 913 394 c 0
 935 367 945 347 964 299 c 1
809 90 m 1
 812 128 814 154 814 171 c 0
 814 318 759 398 660 398 c 0
 571 398 510 326 510 225 c 0
 510 128 587 63 701 63 c 0
 742 63 765 68 809 90 c 1
EndSplineSet
Validated: 1
EndChar

StartChar: R
Encoding: 82 82 214
Width: 1390
Flags: W
HStem: -26 144<1030 1278.38> 0 94<34 199.281 531.719 717> 592 94<519 755.328> 1140 92<34 199.281 524.397 840.112>
VStem: 212 307<118.696 592 686 1115.3> 911 326<771.646 1071.1> 1302 92<131.57 280>
LayerCount: 2
Fore
SplineSet
519 592 m 1xbe
 519 247 l 2
 519 138 519 133 531 118 c 0xbe
 546 101 583 94 672 94 c 2
 717 94 l 1
 717 0 l 1
 34 0 l 1
 34 94 l 1
 60 94 l 2x7e
 149 94 185 101 200 118 c 0
 212 133 212 138 212 247 c 2
 212 986 l 2
 212 1095 212 1101 200 1116 c 0
 185 1133 149 1140 60 1140 c 2
 34 1140 l 1
 34 1232 l 1
 763 1232 l 2
 920 1232 1034 1212 1099 1171 c 0
 1188 1113 1237 1025 1237 923 c 0
 1237 812 1177 719 1073 666 c 0
 1030 646 986 633 896 616 c 1
 1044 567 1109 490 1135 336 c 1
 1147 271 l 2
 1150 247 1154 231 1154 224 c 0
 1163 169 1164 157 1174 143 c 0
 1184 128 1205 118 1224 118 c 0
 1275 118 1300 172 1302 280 c 1
 1394 280 l 1
 1394 259 l 2
 1394 78 1288 -26 1104 -26 c 0
 956 -26 860 44 831 177 c 0
 826 204 817 277 807 391 c 1
 800 488 793 509 766 541 c 0
 735 575 687 592 614 592 c 2
 519 592 l 1xbe
519 686 m 1
 613 686 l 2
 840 686 911 741 911 915 c 0
 911 1070 840 1140 681 1140 c 2
 640 1140 l 2
 531 1140 519 1128 519 1031 c 2
 519 686 l 1
EndSplineSet
Validated: 1
EndChar

StartChar: S
Encoding: 83 83 215
Width: 1138
Flags: W
HStem: -26 89<458.262 791.621> 1169 89<361.192 684.31>
VStem: 89 196<776.995 1057.75> 89 85<379.969 471> 876 204<196.949 489.5> 935 91<802 897.13>
LayerCount: 2
Fore
SplineSet
1004 1244 m 1xe8
 1026 802 l 1
 935 802 l 1
 834 1044 692 1169 515 1169 c 0
 380 1169 285 1094 285 990 c 0xe4
 285 920 324 870 401 843 c 0
 444 828 444 828 575 802 c 1
 657 783 l 1
 952 718 1080 598 1080 381 c 0
 1080 142 896 -26 630 -26 c 0
 493 -26 384 10 280 89 c 1
 174 -12 l 1
 97 -12 l 1
 89 471 l 1
 174 471 l 1xd8
 268 215 437 63 630 63 c 0
 778 63 876 144 876 263 c 0
 876 323 848 373 800 399 c 0
 759 421 725 431 616 451 c 2
 510 471 l 1
 242 520 89 669 89 877 c 0
 89 1104 268 1258 531 1258 c 0
 650 1258 742 1231 838 1166 c 1
 927 1244 l 1
 1004 1244 l 1xe8
EndSplineSet
Validated: 1
EndChar

StartChar: T
Encoding: 84 84 216
Width: 1232
Flags: W
HStem: 0 92<271 460.07 782.719 961> 1143 89<271.931 461.878 771.044 959.971>
VStem: 26 90<770 942.284> 463 307<118.651 1142.37> 1116 91<770 938.641>
LayerCount: 2
Fore
SplineSet
1181 1232 m 1
 1207 770 l 1
 1116 770 l 1
 1090 908 1063 980 1015 1043 c 0
 960 1113 904 1143 831 1143 c 0
 780 1143 770 1131 770 1073 c 2
 770 246 l 2
 770 138 770 132 782 118 c 0
 797 99 833 92 923 92 c 2
 961 92 l 1
 961 0 l 1
 271 0 l 1
 271 92 l 1
 309 92 l 2
 399 92 436 99 451 118 c 0
 463 132 463 138 463 246 c 2
 463 1073 l 2
 463 1131 452 1143 401 1143 c 0
 322 1143 258 1104 203 1022 c 0
 162 962 138 896 116 770 c 1
 26 770 l 1
 51 1232 l 1
 1181 1232 l 1
EndSplineSet
Validated: 1
EndChar

StartChar: U
Encoding: 85 85 217
Width: 1421
Flags: W
HStem: -26 128<615.007 969.938> 1140 92<26 190.281 512.93 689 920 1058.72 1264.28 1406>
VStem: 203 307<204.994 1113.35> 1104 115<236.024 1093.99>
LayerCount: 2
Fore
SplineSet
510 986 m 2
 510 440 l 2
 510 315 529 232 567 186 c 1
 615 131 688 102 785 102 c 0
 927 102 1026 157 1075 265 c 0
 1097 313 1104 379 1104 519 c 2
 1104 862 l 2
 1104 1014 1096 1056 1060 1094 c 0
 1033 1123 987 1138 920 1140 c 1
 920 1232 l 1
 1406 1232 l 1
 1406 1140 l 1
 1338 1138 1290 1123 1263 1094 c 0
 1227 1056 1219 1012 1219 862 c 2
 1219 519 l 2
 1219 318 1205 241 1157 164 c 0
 1073 33 942 -26 724 -26 c 0
 483 -26 317 43 247 171 c 0
 215 231 203 302 203 445 c 2
 203 986 l 2
 203 1094 203 1100 191 1114 c 0
 176 1133 140 1140 51 1140 c 2
 26 1140 l 1
 26 1232 l 1
 689 1232 l 1
 689 1140 l 1
 664 1140 l 2
 575 1140 537 1133 522 1114 c 0
 510 1100 510 1094 510 986 c 2
EndSplineSet
Validated: 1
EndChar

StartChar: V
Encoding: 86 86 218
Width: 1295
Flags: W
HStem: -26 21G<543.099 709.24> 1140 92<-31 99.1948 445.023 587 824 928.873 1214.28 1328>
LayerCount: 2
Fore
SplineSet
732 352 m 1
 975 959 l 2
 985 985 990 1005 990 1024 c 0
 990 1065 968 1102 930 1121 c 0
 906 1135 879 1140 824 1140 c 1
 824 1232 l 1
 1328 1232 l 1
 1328 1140 l 1
 1224 1130 1147 1060 1092 923 c 2
 701 -26 l 1
 551 -26 l 1
 137 1022 l 2
 98 1121 70 1140 -31 1140 c 1
 -31 1232 l 1
 587 1232 l 1
 587 1140 l 1
 551 1140 l 2
 476 1140 445 1128 445 1097 c 0
 445 1087 451 1068 461 1041 c 2
 732 352 l 1
EndSplineSet
Validated: 1
EndChar

StartChar: W
Encoding: 87 87 219
Width: 1674
Flags: W
HStem: -26 21G<481.477 622.475 1048.84 1185.34> 1140 92<10 117.07 439.015 539 616 705.255 1021.01 1121 1231 1324.97 1561.98 1661>
LayerCount: 2
Fore
SplineSet
1213 440 m 1
 1362 927 l 2
 1381 988 1384 1007 1384 1031 c 0
 1384 1072 1362 1108 1326 1125 c 0
 1304 1135 1280 1138 1231 1140 c 1
 1231 1232 l 1
 1661 1232 l 1
 1661 1140 l 1
 1559 1120 1525 1080 1476 911 c 1
 1179 -26 l 1
 1055 -26 l 1
 841 669 l 1
 616 -26 l 1
 488 -26 l 1
 140 1041 l 2
 113 1123 91 1140 14 1140 c 2
 10 1140 l 1
 10 1232 l 1
 539 1232 l 1
 539 1140 l 1
 459 1137 439 1128 439 1097 c 0
 439 1085 442 1068 452 1039 c 2
 650 428 l 1
 787 857 l 1
 725 1050 l 1
 699 1123 683 1137 616 1140 c 1
 616 1232 l 1
 1121 1232 l 1
 1121 1140 l 1
 1041 1135 1021 1126 1021 1094 c 0
 1021 1084 1022 1074 1031 1048 c 2
 1213 440 l 1
EndSplineSet
Validated: 1
EndChar

StartChar: X
Encoding: 88 88 220
Width: 1232
Flags: W
HStem: 0 92<-20 119.659 374.853 544 640 752.979 1137.95 1254> 1140 92<-20 91.5986 474.012 591 684 833.298 1076.45 1210>
LayerCount: 2
Fore
SplineSet
736 705 m 1
 1038 265 l 2
 1144 111 1164 95 1254 92 c 1
 1254 0 l 1
 640 0 l 1
 640 92 l 1
 725 94 753 104 753 133 c 0
 753 150 744 174 730 191 c 2
 544 457 l 1
 394 266 l 2
 372 239 360 208 360 181 c 0
 360 121 414 95 544 92 c 1
 544 0 l 1
 -20 0 l 1
 -20 92 l 1
 79 95 126 125 225 246 c 2
 476 555 l 1
 126 1053 l 2
 78 1121 55 1135 -20 1140 c 1
 -20 1232 l 1
 591 1232 l 1
 591 1140 l 1
 490 1137 474 1131 474 1099 c 0
 474 1085 480 1072 492 1055 c 2
 671 797 l 1
 790 944 l 2
 831 992 848 1026 848 1053 c 0
 848 1109 792 1140 684 1140 c 1
 684 1232 l 1
 1210 1232 l 1
 1210 1140 l 1
 1121 1133 1062 1099 985 1009 c 1
 736 705 l 1
EndSplineSet
Validated: 1
EndChar

StartChar: Y
Encoding: 89 89 221
Width: 1232
Flags: W
HStem: 0 92<271 460.07 782.719 961> 1140 92<-20 102.213 471.023 594 751 899.884 1124.93 1254>
VStem: 463 307<118.651 521>
LayerCount: 2
Fore
SplineSet
717 676 m 1
 887 980 l 2
 901 1007 911 1038 911 1058 c 0
 911 1107 862 1140 787 1140 c 2
 751 1140 l 1
 751 1232 l 1
 1254 1232 l 1
 1254 1140 l 1
 1158 1133 1091 1087 1026 981 c 1
 770 543 l 1
 770 246 l 2
 770 138 770 132 782 118 c 0
 797 99 833 92 923 92 c 2
 961 92 l 1
 961 0 l 1
 271 0 l 1
 271 92 l 1
 309 92 l 2
 399 92 436 99 451 118 c 0
 463 132 463 140 463 246 c 2
 463 521 l 1
 114 1079 l 2
 82 1128 57 1140 -20 1140 c 1
 -20 1232 l 1
 594 1232 l 1
 594 1140 l 1
 567 1140 l 2
 502 1140 471 1129 471 1103 c 0
 471 1088 475 1077 492 1050 c 2
 717 676 l 1
EndSplineSet
Validated: 1
EndChar

StartChar: Z
Encoding: 90 90 222
Width: 1138
Flags: W
HStem: 0 94<398 786.141> 1138 94<363.318 725>
VStem: 84 87<802 916.375> 992 90<329.854 471>
LayerCount: 2
Fore
SplineSet
1082 1232 m 1
 1082 1138 l 1
 398 94 l 1
 550 94 l 2
 671 94 718 101 771 128 c 0
 880 183 961 307 992 471 c 1
 1082 471 l 1
 1055 0 l 1
 41 0 l 1
 41 99 l 1
 725 1138 l 1
 599 1138 l 2
 418 1138 338 1106 263 1000 c 0
 225 949 200 894 171 802 c 1
 84 802 l 1
 104 1232 l 1
 1082 1232 l 1
EndSplineSet
Validated: 1
EndChar

StartChar: bracketleft
Encoding: 91 91 223
Width: 663
Flags: W
HStem: -184 85<376 602> 1147 85<88 295>
LayerCount: 2
Fore
SplineSet
295 1232 m 1
 314 1147 l 1
 88 1147 l 1
 376 -99 l 1
 602 -99 l 1
 621 -184 l 1
 185 -184 l 1
 -141 1232 l 1
 295 1232 l 1
EndSplineSet
Validated: 1
EndChar

StartChar: backslash
Encoding: 92 92 224
Width: 1034
Flags: W
HStem: 0 21G<804.688 947> 1238 20G<-205 -61.7043>
LayerCount: 2
Fore
SplineSet
-78 1258 m 1
 947 0 l 1
 821 0 l 1
 -205 1258 l 1
 -78 1258 l 1
EndSplineSet
Validated: 1
EndChar

StartChar: bracketright
Encoding: 93 93 225
Width: 663
Flags: W
HStem: -184 85<95 301> 1147 85<-212 13>
LayerCount: 2
Fore
SplineSet
95 -184 m 1
 76 -99 l 1
 301 -99 l 1
 13 1147 l 1
 -212 1147 l 1
 -231 1232 l 1
 204 1232 l 1
 530 -184 l 1
 95 -184 l 1
EndSplineSet
Validated: 1
EndChar

StartChar: asciicircum
Encoding: 94 94 226
Width: 1034
Flags: W
HStem: 1212 20G<155.282 321.891>
LayerCount: 2
Fore
SplineSet
820 543 m 1
 617 543 l 1
 295 969 l 1
 167 543 l 1
 -36 543 l 1
 161 1232 l 1
 307 1232 l 1
 820 543 l 1
EndSplineSet
Validated: 1
EndChar

StartChar: underscore
Encoding: 95 95 227
Width: 853
Flags: W
HStem: -253 154<58 876>
LayerCount: 2
Fore
SplineSet
23 -99 m 1
 876 -99 l 1
 911 -253 l 1
 58 -253 l 1
 23 -99 l 1
EndSplineSet
Validated: 1
EndChar

StartChar: grave
Encoding: 96 96 228
Width: 568
Flags: W
HStem: 930 323
VStem: -269 479
LayerCount: 2
Fore
SplineSet
210 930 m 1
 101 930 l 1
 -184 1079 l 2
 -244 1110 -269 1150 -269 1184 c 0
 -269 1223 -237 1253 -188 1253 c 0
 -112 1253 -51 1180 -37 1166 c 2
 210 930 l 1
EndSplineSet
Validated: 1
EndChar

StartChar: a
Encoding: 97 97 229
Width: 1042
Flags: W
HStem: -26 145<787.5 962.105> -26 116<241 545.396> 744 89<351.72 586.587>
VStem: 61 285<112.007 303.002> 108 238<557.192 724.197> 613 268<148.375 401 483.016 718.254>
LayerCount: 2
Fore
SplineSet
881 543 m 2x6c
 881 242 l 2
 881 143 889 119 927 119 c 0
 939 119 944 121 959 131 c 0
 973 140 983 143 993 143 c 0
 1008 143 1019 133 1019 116 c 0
 1019 43 928 -26 831 -26 c 0xac
 744 -26 679 19 650 96 c 1
 560 7 471 -26 324 -26 c 0
 158 -26 61 48 61 174 c 0x74
 61 276 119 345 244 396 c 0
 324 428 384 443 556 481 c 0
 571 483 594 488 613 493 c 1
 613 582 l 2
 613 700 575 744 473 744 c 0
 405 744 346 718 346 689 c 0
 346 680 347 679 362 660 c 0
 377 640 386 616 386 596 c 0
 386 533 325 485 246 485 c 0
 167 485 108 540 108 613 c 0
 108 746 261 833 497 833 c 0
 630 833 737 805 800 754 c 0
 860 706 881 654 881 543 c 2x6c
613 401 m 1
 522 381 l 2
 399 352 346 300 346 210 c 0
 346 137 389 90 456 90 c 0x74
 552 90 613 174 613 305 c 2
 613 401 l 1
EndSplineSet
Validated: 1
EndChar

StartChar: b
Encoding: 98 98 230
Width: 1105
Flags: W
HStem: -26 89<477.554 678.754> 705 128<502.052 685.605> 1145 87<0 134.617> 1238 20G<94.6154 410>
VStem: 142 268<136 618.625 705 1140.27> 749 295<208.395 622.497>
LayerCount: 2
Fore
SplineSet
410 1258 m 1
 410 705 l 1
 480 794 560 833 674 833 c 0
 891 833 1044 660 1044 418 c 0
 1044 155 867 -26 608 -26 c 0
 480 -26 392 16 312 113 c 1
 201 -26 l 1
 118 -26 l 1
 135 68 142 186 142 352 c 2
 142 986 l 2
 142 1138 136 1145 32 1145 c 2
 0 1145 l 1
 0 1232 l 1
 410 1258 l 1
589 705 m 0
 470 705 408 589 408 362 c 0
 408 169 467 63 580 63 c 0
 691 63 749 178 749 398 c 0
 749 603 697 705 589 705 c 0
EndSplineSet
Validated: 1
EndChar

StartChar: c
Encoding: 99 99 231
Width: 948
Flags: W
HStem: -26 116<447.563 703.011> 744 89<436.668 641.302>
VStem: 53 295<200.493 582.752> 642 239<547.264 726.654>
LayerCount: 2
Fore
SplineSet
811 302 m 1
 899 273 l 1
 873 193 846 141 797 90 c 1
 722 8 638 -26 512 -26 c 0
 237 -26 53 142 53 391 c 0
 53 649 258 833 541 833 c 0
 748 833 881 741 881 601 c 0
 881 514 821 456 727 456 c 0
 645 456 587 507 587 580 c 0
 587 612 594 628 623 664 c 0
 638 683 642 691 642 696 c 0
 642 723 600 744 551 744 c 0
 423 744 348 625 348 422 c 0
 348 210 429 90 567 90 c 0
 637 90 705 122 746 177 c 0
 772 211 787 239 811 302 c 1
EndSplineSet
Validated: 1
EndChar

StartChar: d
Encoding: 100 100 232
Width: 1138
Flags: W
HStem: -26 116<426.356 610.513> 0 21G<717 1116> 19 92<990.65 1116> 717 116<431.753 622.068> 1145 87<538 693.934> 1238 20G<637.462 969>
VStem: 63 295<181.837 596.103> 701 268<182.498 631.375 717 1140.27>
LayerCount: 2
Fore
SplineSet
969 1258 m 1x9f
 969 208 l 2
 969 157 975 137 990 123 c 0
 1004 111 1009 111 1070 111 c 2
 1116 111 l 1
 1116 19 l 1x3f
 717 0 l 1x5f
 717 123 l 1
 647 21 560 -26 437 -26 c 0
 215 -26 63 144 63 391 c 0
 63 640 234 833 452 833 c 0
 560 833 636 796 701 717 c 1
 701 986 l 2
 701 1138 696 1145 592 1145 c 2
 538 1145 l 1
 538 1232 l 1
 969 1258 l 1x9f
531 717 m 0
 422 717 358 597 358 394 c 0
 358 199 419 90 527 90 c 0x9f
 633 90 705 218 705 404 c 0
 705 593 637 717 531 717 c 0
EndSplineSet
Validated: 1
EndChar

StartChar: e
Encoding: 101 101 233
Width: 979
Flags: W
HStem: -26 116<448.831 724.013> 389 94<352 653.675> 744 89<419.738 607.714>
VStem: 55 295<204.195 389 483 586.061> 654 268<483.01 622.285>
LayerCount: 2
Fore
SplineSet
922 389 m 1
 350 389 l 1
 352 292 364 239 393 193 c 0
 436 128 503 90 582 90 c 0
 693 90 770 147 838 280 c 1
 922 246 l 1
 847 63 715 -26 515 -26 c 0
 385 -26 272 12 193 79 c 0
 108 152 55 275 55 396 c 0
 55 509 100 621 177 701 c 0
 262 788 377 833 514 833 c 0
 763 833 922 670 922 416 c 2
 922 389 l 1
352 483 m 1
 608 483 l 2
 642 483 654 497 654 538 c 0
 654 673 606 744 519 744 c 0
 417 744 352 645 352 483 c 1
EndSplineSet
Validated: 1
EndChar

StartChar: f
Encoding: 102 102 234
Width: 663
Flags: W
HStem: 0 85<36 168.068 444.045 599> 705 102<24 172 440 654> 1162 89<479.048 577.79>
VStem: 172 268<91.3144 705 807 1038.98> 579 213<1012.72 1160.52>
LayerCount: 2
Fore
SplineSet
654 807 m 1
 654 705 l 1
 440 705 l 1
 440 246 l 1
 440 166 l 2
 440 98 459 85 568 85 c 2
 599 85 l 1
 599 0 l 1
 36 0 l 1
 36 85 l 1
 43 85 l 2
 154 85 172 98 172 166 c 2
 172 246 l 1
 172 705 l 1
 24 705 l 1
 24 807 l 1
 172 807 l 1
 172 829 l 2
 172 1082 320 1251 544 1251 c 0
 686 1251 792 1171 792 1065 c 0
 792 985 734 925 655 925 c 0
 583 925 527 976 527 1043 c 0
 527 1075 544 1113 570 1133 c 0
 577 1140 579 1144 579 1149 c 0
 579 1156 566 1162 551 1162 c 0
 517 1162 478 1133 461 1094 c 0
 444 1056 440 1019 440 905 c 2
 440 807 l 1
 654 807 l 1
EndSplineSet
Validated: 1
EndChar

StartChar: g
Encoding: 103 103 235
Width: 1042
Flags: W
HStem: -345 89<302.302 706.12> -73 239<338.143 713.647> 271 82<403.098 577.878> 744 89<402.229 583.872> 790 128<809.961 974.5>
VStem: 51 222<-223.206 -82.6376> 77 261<95.5 235.868> 87 277<397.989 679.181> 620 276<404.788 686.313> 741 222<-197.862 -13>
LayerCount: 2
Fore
SplineSet
449 166 m 2xf240
 567 166 l 2
 690 166 765 159 821 140 c 1
 906 114 963 35 963 -61 c 0
 963 -244 785 -345 468 -345 c 0
 190 -345 51 -290 51 -177 c 0xf440
 51 -97 118 -43 232 -26 c 1
 133 1 77 58 77 133 c 0xf2
 77 222 142 276 275 300 c 1
 152 343 87 427 87 541 c 0
 87 710 256 833 490 833 c 0xf1
 577 833 654 815 719 783 c 1
 794 877 860 918 937 918 c 0
 1012 918 1063 874 1063 807 c 0
 1063 746 1017 698 957 698 c 0
 911 698 865 736 865 775 c 2
 865 782 l 2
 865 789 862 790 857 790 c 0xe9
 837 790 816 775 794 744 c 1
 869 683 896 630 896 550 c 0xf180
 896 446 840 358 741 312 c 0
 676 281 611 271 498 271 c 2
 468 271 l 2
 369 271 338 258 338 215 c 0
 338 174 359 166 449 166 c 2xf240
495 744 m 0
 408 744 364 681 364 556 c 0
 364 501 372 453 391 415 c 1
 410 372 442 353 493 353 c 0
 573 353 620 425 620 546 c 0xf180
 620 676 577 744 495 744 c 0
560 -73 m 2
 336 -73 l 1
 293 -92 273 -119 273 -157 c 0
 273 -220 349 -256 480 -256 c 0
 656 -256 741 -222 741 -152 c 0xe440
 741 -130 730 -106 715 -96 c 0
 686 -77 666 -73 560 -73 c 2
EndSplineSet
Validated: 1
EndChar

StartChar: h
Encoding: 104 104 236
Width: 1169
Flags: W
HStem: 0 87<32 165.508 440.121 553 616 730.858 1005.47 1137> 674 159<550.894 771.5> 1145 87<27 161.582> 1238 20G<121.615 437>
VStem: 169 268<93.397 604.972 674 1141.44> 734 268<93.0005 645.142>
LayerCount: 2
Fore
SplineSet
437 1258 m 1
 437 674 l 1
 509 783 597 833 727 833 c 0
 816 833 891 804 937 751 c 1
 983 702 1002 637 1002 531 c 2
 1002 246 l 1
 1002 167 l 2
 1002 97 1021 87 1130 87 c 2
 1137 87 l 1
 1137 0 l 1
 616 0 l 1
 616 87 l 1
 717 87 734 99 734 166 c 2
 734 246 l 1
 734 507 l 2
 734 616 692 674 613 674 c 0
 550 674 490 634 463 573 c 0
 444 532 437 488 437 411 c 2
 437 246 l 1
 437 167 l 2
 437 97 454 87 553 87 c 1
 553 0 l 1
 32 0 l 1
 32 87 l 1
 39 87 l 2
 150 87 169 98 169 166 c 2
 169 246 l 1
 169 980 l 1
 167 1142 166 1145 60 1145 c 2
 27 1145 l 1
 27 1232 l 1
 437 1258 l 1
EndSplineSet
Validated: 1
EndChar

StartChar: i
Encoding: 105 105 237
Width: 631
Flags: W
HStem: 0 87<48 177.662 452.418 582> 708 87<48 173.934> 956 302<205.56 415.875>
VStem: 159 302<1002.72 1213.75> 181 268<93.0411 703.076>
LayerCount: 2
Fore
SplineSet
449 807 m 1xe8
 449 246 l 1
 449 166 l 2
 449 99 468 87 572 87 c 2
 582 87 l 1
 582 0 l 1
 48 0 l 1
 48 87 l 1
 55 87 l 2
 163 87 181 99 181 167 c 2
 181 246 l 1
 181 548 l 2
 181 700 176 708 72 708 c 2
 48 708 l 1
 48 795 l 1
 449 807 l 1xe8
311 1258 m 0
 393 1258 461 1190 461 1108 c 0
 461 1023 392 956 307 956 c 0
 227 956 159 1026 159 1108 c 0xf0
 159 1190 227 1258 311 1258 c 0
EndSplineSet
Validated: 1
EndChar

StartChar: j
Encoding: 106 106 238
Width: 600
Flags: W
HStem: -345 80<58.112 164.646> 708 87<26 181.955> 956 302<209.109 419.375>
VStem: -140 244<-242.624 -76.4358> 162 302<1002.72 1213.75> 189 268<-139.473 703.024>
LayerCount: 2
Fore
SplineSet
314 1258 m 0xf8
 396 1258 464 1190 464 1108 c 0
 464 1023 396 956 311 956 c 0
 231 956 162 1026 162 1108 c 0
 162 1190 230 1258 314 1258 c 0xf8
457 807 m 1xf4
 457 186 l 2
 457 9 442 -87 398 -172 c 0
 345 -278 227 -345 99 -345 c 0
 -41 -345 -140 -273 -140 -174 c 0
 -140 -101 -84 -46 -7 -46 c 0
 58 -46 104 -93 104 -160 c 0
 104 -198 91 -222 55 -246 c 1
 65 -260 77 -265 99 -265 c 0
 160 -265 189 -212 189 -96 c 2
 189 561 l 2
 189 698 181 708 80 708 c 2
 26 708 l 1
 26 795 l 1
 457 807 l 1xf4
EndSplineSet
Validated: 1
EndChar

StartChar: k
Encoding: 107 107 239
Width: 1138
Flags: W
HStem: 0 87<26 158.508 433.121 546 604 687.983 1029.68 1126> 720 87<561 683.569 889.141 1063> 1145 87<20 154.934> 1238 20G<114.615 430>
VStem: 162 268<93.397 294 420 1140.27>
LayerCount: 2
Fore
SplineSet
430 1258 m 1
 430 420 l 1
 642 604 l 2
 673 631 684 652 684 672 c 0
 684 703 647 720 582 720 c 2
 561 720 l 1
 561 807 l 1
 1063 807 l 1
 1063 720 l 1
 1024 720 l 2
 959 720 910 700 840 640 c 2
 708 531 l 1
 976 196 l 1
 1051 99 1066 87 1126 87 c 1
 1126 0 l 1
 604 0 l 1
 604 87 l 1
 621 87 l 2
 665 87 688 99 688 121 c 0
 688 136 680 157 666 174 c 2
 509 364 l 1
 430 294 l 1
 430 246 l 1
 430 167 l 2
 430 99 447 87 546 87 c 1
 546 0 l 1
 26 0 l 1
 26 87 l 1
 32 87 l 2
 143 87 162 98 162 166 c 2
 162 246 l 1
 162 986 l 2
 162 1138 157 1145 53 1145 c 2
 20 1145 l 1
 20 1232 l 1
 430 1258 l 1
EndSplineSet
Validated: 1
EndChar

StartChar: l
Encoding: 108 108 240
Width: 600
Flags: W
HStem: 0 87<32 165.508 463.587 565> 1145 87<27 161.934> 1238 20G<121.615 437>
VStem: 169 268<99.4718 1140.27>
LayerCount: 2
Fore
SplineSet
437 1258 m 1
 437 246 l 1
 437 166 l 2
 437 123 443 109 463 99 c 0
 475 92 521 87 553 87 c 2
 565 87 l 1
 565 0 l 1
 32 0 l 1
 32 87 l 1
 39 87 l 2
 150 87 169 98 169 166 c 2
 169 246 l 1
 169 986 l 2
 169 1138 164 1145 60 1145 c 2
 27 1145 l 1
 27 1232 l 1
 437 1258 l 1
EndSplineSet
Validated: 1
EndChar

StartChar: m
Encoding: 109 109 241
Width: 1643
Flags: W
HStem: 0 87<34 167.529 441.382 538 591 685.639 958.382 1055 1106 1202.62 1476.47 1608> 674 159<533.746 753 1047.15 1281> 708 87<34 163.617>
VStem: 171 268<92.7141 622.6> 688 268<91.2242 622.6> 1205 268<93.2838 659.874>
CounterMasks: 1 1c
LayerCount: 2
Fore
SplineSet
423 807 m 1xbc
 423 674 l 1
 491 782 582 833 696 833 c 0
 810 833 901 775 937 679 c 1
 1017 788 1096 833 1205 833 c 0
 1357 833 1473 725 1473 585 c 2
 1473 246 l 1
 1473 166 l 2
 1473 99 1492 87 1601 87 c 2
 1608 87 l 1
 1608 0 l 1
 1106 0 l 1
 1106 87 l 1
 1193 89 1205 99 1205 166 c 2
 1205 246 l 1
 1205 522 l 2
 1205 628 1176 674 1111 674 c 0
 1015 674 956 595 956 474 c 2
 956 246 l 1
 956 166 l 2
 956 99 968 89 1055 87 c 1
 1055 0 l 1
 591 0 l 1
 591 87 l 1
 676 89 688 99 688 167 c 2
 688 246 l 1
 688 515 l 2
 688 628 661 674 594 674 c 0xdc
 500 674 439 595 439 474 c 2
 439 246 l 1
 439 166 l 2
 439 99 451 89 538 87 c 1
 538 0 l 1
 34 0 l 1
 34 87 l 1
 43 87 l 2
 152 87 171 97 171 167 c 2
 171 246 l 1
 171 548 l 2
 171 700 165 708 61 708 c 2
 34 708 l 1
 34 795 l 1
 423 807 l 1xbc
EndSplineSet
Validated: 1
EndChar

StartChar: n
Encoding: 110 110 242
Width: 1169
Flags: W
HStem: 0 87<34 165.529 440.142 555 620 733.981 1008.47 1140> 674 159<552.405 773.5> 708 87<34 161.934>
VStem: 169 268<93.0005 602.496 657 703.306> 737 268<93.0005 645.142>
LayerCount: 2
Fore
SplineSet
425 807 m 1xb8
 425 657 l 1
 509 783 594 833 729 833 c 0
 818 833 894 804 940 751 c 1
 986 702 1005 637 1005 531 c 2
 1005 246 l 1
 1005 167 l 2
 1005 97 1024 87 1133 87 c 2
 1140 87 l 1
 1140 0 l 1
 620 0 l 1
 620 87 l 1
 721 87 737 99 737 166 c 2
 737 246 l 1
 737 507 l 2
 737 616 693 674 613 674 c 0xd8
 552 674 491 634 464 573 c 1
 444 532 437 488 437 411 c 2
 437 246 l 1
 437 166 l 2
 437 99 454 87 555 87 c 1
 555 0 l 1
 34 0 l 1
 34 87 l 1
 41 87 l 2
 150 87 169 97 169 167 c 2
 169 246 l 1
 169 543 l 2
 169 702 164 708 60 708 c 2
 34 708 l 1
 34 795 l 1
 425 807 l 1xb8
EndSplineSet
Validated: 1
EndChar

StartChar: o
Encoding: 111 111 243
Width: 1042
Flags: W
HStem: -26 89<420.523 616.54> 744 89<425.846 621.009>
VStem: 53 295<211.394 591.083> 693 295<211.483 587.637>
LayerCount: 2
Fore
SplineSet
526 833 m 0
 785 833 988 641 988 399 c 0
 988 155 789 -26 519 -26 c 0
 249 -26 53 156 53 403 c 0
 53 649 255 833 526 833 c 0
522 744 m 0
 408 744 348 628 348 403 c 0
 348 178 407 63 521 63 c 0
 630 63 693 184 693 401 c 0
 693 490 679 587 659 643 c 0
 637 703 582 744 522 744 c 0
EndSplineSet
Validated: 1
EndChar

StartChar: p
Encoding: 112 112 244
Width: 1138
Flags: W
HStem: -345 86<31 162.529 436.492 582> -26 116<512.825 708.645> 705 128<528.703 714.997> 708 87<31 158.266>
VStem: 166 267<-252.308 85 172.989 613.073> 783 296<215.939 625.04>
LayerCount: 2
Fore
SplineSet
433 807 m 1xdc
 433 698 l 1
 510 795 584 833 700 833 c 0xec
 918 833 1079 661 1079 425 c 0
 1079 169 905 -26 676 -26 c 0
 579 -26 501 10 433 85 c 1
 433 -99 l 1
 433 -179 l 2
 433 -247 452 -259 563 -259 c 2
 582 -259 l 1
 582 -345 l 1
 31 -345 l 1
 31 -259 l 1
 38 -259 l 2
 147 -259 166 -247 166 -179 c 2
 166 -99 l 1
 166 543 l 1
 164 705 162 708 56 708 c 2
 31 708 l 1
 31 795 l 1
 433 807 l 1xdc
625 705 m 0
 500 705 432 592 432 391 c 0
 432 198 497 90 611 90 c 0
 719 90 783 205 783 396 c 0
 783 597 727 705 625 705 c 0
EndSplineSet
Validated: 1
EndChar

StartChar: q
Encoding: 113 113 245
Width: 1105
Flags: W
HStem: -345 86<541 685.631 960.471 1092> -26 116<420.465 595.649> 744 89<432.197 623.415>
VStem: 58 295<186.444 592.886> 689 268<-252.959 99 176.047 671.074>
LayerCount: 2
Fore
SplineSet
899 831 m 1
 983 831 l 1
 966 696 957 568 957 464 c 2
 957 -99 l 1
 957 -179 l 2
 957 -247 976 -259 1085 -259 c 2
 1092 -259 l 1
 1092 -345 l 1
 541 -345 l 1
 541 -259 l 1
 560 -259 l 2
 671 -259 689 -247 689 -179 c 2
 689 -99 l 1
 689 99 l 1
 616 14 535 -26 427 -26 c 0
 328 -26 222 20 162 90 c 1
 99 160 58 283 58 396 c 0
 58 647 244 833 493 833 c 0
 623 833 713 791 790 695 c 1
 899 831 l 1
526 744 m 0
 413 744 353 628 353 403 c 0
 353 198 410 90 519 90 c 0
 628 90 695 220 695 432 c 0
 695 522 686 584 666 635 c 0
 639 702 584 744 526 744 c 0
EndSplineSet
Validated: 1
EndChar

StartChar: r
Encoding: 114 114 246
Width: 885
Flags: W
HStem: 0 87<31 162.529 438.471 601> 514 319<642.026 821.983> 708 87<31 158.617>
VStem: 166 269<92.5759 547.356> 608 274<553.926 716.823>
LayerCount: 2
Fore
SplineSet
411 807 m 1xb8
 411 601 l 1
 472 758 564 833 695 833 c 0
 804 833 882 759 882 660 c 0
 882 576 820 514 736 514 c 0xd8
 663 514 608 567 608 640 c 0
 608 671 615 689 637 720 c 1
 579 703 543 672 507 609 c 0
 464 534 435 399 435 280 c 2
 435 246 l 1
 435 167 l 2
 435 97 454 87 563 87 c 2
 601 87 l 1
 601 0 l 1
 31 0 l 1
 31 87 l 1
 38 87 l 2
 147 87 166 97 166 167 c 2
 166 246 l 1
 166 543 l 2
 166 702 160 708 56 708 c 2
 31 708 l 1
 31 795 l 1
 411 807 l 1xb8
EndSplineSet
Validated: 1
EndChar

StartChar: s
Encoding: 115 115 247
Width: 853
Flags: W
HStem: -26 89<298.772 576.298> 744 89<282.365 545.004> 796 20G<642.842 749.518>
VStem: 65 77<235.838 299> 72 187<536.184 699.405> 599 196<114.564 301>
LayerCount: 2
Fore
SplineSet
749 816 m 1xac
 756 546 l 1
 676 546 l 1
 592 686 512 744 403 744 c 0
 319 744 259 703 259 645 c 0
 259 601 281 583 365 561 c 2
 519 524 l 2
 642 493 678 478 722 439 c 0
 770 396 795 337 795 265 c 0
 795 94 653 -26 452 -26 c 0
 363 -26 275 -4 212 34 c 1
 145 3 l 1
 72 3 l 1xcc
 65 299 l 1
 142 299 l 1xd4
 224 137 321 63 452 63 c 0
 542 63 599 103 599 164 c 0
 599 215 565 244 480 263 c 2
 355 290 l 2
 244 314 194 338 143 387 c 0
 97 431 72 491 72 556 c 0
 72 716 210 833 401 833 c 0xcc
 483 833 548 816 613 778 c 1
 676 816 l 1
 749 816 l 1xac
EndSplineSet
Validated: 1
EndChar

StartChar: t
Encoding: 116 116 248
Width: 727
Flags: W
HStem: -26 145<354.5 567.787> 705 102<39 159.38 428 650>
VStem: 160 268<121.958 705> 321 107<970.819 1145> 599 92<147.16 317>
LayerCount: 2
Fore
SplineSet
650 807 m 1xd8
 650 705 l 1
 428 705 l 1
 428 266 l 2
 428 150 443 119 492 119 c 0
 560 119 599 188 599 308 c 0
 599 311 599 314 599 317 c 1
 689 317 l 1
 691 300 691 287 691 278 c 0
 691 205 666 123 623 68 c 0
 577 7 500 -26 403 -26 c 0
 306 -26 232 8 196 68 c 0
 167 116 160 157 160 297 c 2
 160 705 l 1xe8
 39 705 l 1
 39 794 l 1
 201 813 294 927 321 1145 c 1
 428 1145 l 1
 428 807 l 1
 650 807 l 1xd8
EndSplineSet
Validated: 1
EndChar

StartChar: u
Encoding: 117 117 249
Width: 1169
Flags: W
HStem: -26 159<381 608.3> 0 21G<741 1138> 19 92<998.819 1138> 708 87<22 151.266 592 721.934>
VStem: 159 268<158.692 703.818> 741 256<114.233 140 221.971 699.902>
LayerCount: 2
Fore
SplineSet
997 807 m 1x9c
 997 224 l 1
 997 184 l 2
 997 123 1011 111 1091 111 c 2
 1138 111 l 1
 1138 19 l 1x3c
 741 0 l 1x5c
 741 140 l 1
 642 19 560 -26 439 -26 c 0
 323 -26 232 27 186 121 c 0
 162 169 159 200 159 326 c 2
 159 543 l 1
 157 705 155 708 49 708 c 2
 22 708 l 1
 22 795 l 1
 427 807 l 1
 427 316 l 2
 427 186 463 133 548 133 c 0
 613 133 673 172 700 230 c 1
 722 273 729 321 729 406 c 2
 729 543 l 2
 729 702 724 708 620 708 c 2
 592 708 l 1
 592 795 l 1
 997 807 l 1x9c
EndSplineSet
Validated: 1
EndChar

StartChar: v
Encoding: 118 118 250
Width: 1042
Flags: W
HStem: -24 21G<441.412 604.792> 722 85<20 109.495 413.018 502 633 760.146 919.836 1021>
LayerCount: 2
Fore
SplineSet
609 239 m 1
 734 553 l 2
 760 616 765 631 765 655 c 0
 765 703 727 722 633 722 c 1
 633 807 l 1
 1021 807 l 1
 1021 722 l 1
 1014 722 l 2
 946 722 907 686 858 572 c 2
 596 -24 l 1
 451 -24 l 1
 137 631 l 2
 101 706 83 719 20 722 c 1
 20 807 l 1
 502 807 l 1
 502 722 l 1
 437 722 413 712 413 683 c 0
 413 673 418 655 427 638 c 2
 609 239 l 1
EndSplineSet
Validated: 1
EndChar

StartChar: w
Encoding: 119 119 251
Width: 1517
Flags: W
HStem: -24 21G<423.433 569.686 930.849 1075.95> 720 87<32 125.462 420.011 503 556 649.728 928.021 1033 1109 1228.53 1395.56 1495>
LayerCount: 2
Fore
SplineSet
1096 263 m 1
 1215 553 l 2
 1232 594 1239 622 1239 642 c 0
 1239 690 1193 720 1121 720 c 2
 1109 720 l 1
 1109 807 l 1
 1495 807 l 1
 1495 720 l 1
 1418 715 1384 684 1335 575 c 2
 1067 -24 l 1
 939 -24 l 1
 756 425 l 1
 561 -24 l 1
 432 -24 l 1
 154 625 l 2
 123 697 99 717 32 720 c 1
 32 807 l 1
 503 807 l 1
 503 720 l 1
 435 718 420 711 420 679 c 0
 420 670 420 671 432 640 c 2
 580 263 l 1
 703 553 l 1
 660 655 l 2
 638 708 619 720 556 720 c 1
 556 807 l 1
 1033 807 l 1
 1033 720 l 1
 1021 720 l 2
 956 720 928 708 928 681 c 0
 928 672 932 658 939 643 c 2
 1096 263 l 1
EndSplineSet
Validated: 1
EndChar

StartChar: x
Encoding: 120 120 252
Width: 1042
Flags: W
HStem: 0 87<22 131.688 319.36 422 485 564.984 917.331 1021> 720 87<22 116.16 452.015 527 584 690.982 867.605 1004>
LayerCount: 2
Fore
SplineSet
631 464 m 1
 867 184 l 2
 939 100 958 89 1021 87 c 1
 1021 0 l 1
 485 0 l 1
 485 87 l 1
 497 87 l 2
 543 87 565 99 565 126 c 0
 565 138 560 149 546 164 c 2
 445 285 l 1
 343 184 l 2
 328 169 319 152 319 135 c 0
 319 106 350 87 399 87 c 2
 422 87 l 1
 422 0 l 1
 22 0 l 1
 22 87 l 1
 73 89 113 110 174 166 c 2
 381 362 l 1
 137 654 l 2
 93 707 73 717 22 720 c 1
 22 807 l 1
 527 807 l 1
 527 720 l 1
 509 720 l 2
 473 720 452 710 452 693 c 0
 452 683 457 672 471 657 c 2
 568 539 l 1
 655 623 l 2
 681 647 691 664 691 681 c 0
 691 705 666 720 623 720 c 2
 584 720 l 1
 584 807 l 1
 1004 807 l 1
 1004 720 l 1
 931 720 879 696 809 631 c 2
 631 464 l 1
EndSplineSet
Validated: 1
EndChar

StartChar: y
Encoding: 121 121 253
Width: 1042
Flags: W
HStem: -352 116<165 375.892> 720 87<24 114.915 418.014 509 637 764.086 923.987 1021>
LayerCount: 2
Fore
SplineSet
613 270 m 1
 754 582 l 2
 763 602 770 633 770 652 c 0
 770 696 728 720 655 720 c 2
 637 720 l 1
 637 807 l 1
 1021 807 l 1
 1021 720 l 1
 951 717 914 684 865 580 c 2
 567 -63 l 2
 475 -264 372 -352 229 -352 c 0
 101 -352 17 -289 17 -195 c 0
 17 -111 82 -46 166 -46 c 0
 241 -46 294 -94 294 -162 c 0
 294 -186 290 -203 280 -220 c 0
 278 -222 278 -223 278 -225 c 0
 278 -230 285 -236 294 -236 c 0
 342 -236 395 -188 439 -101 c 1
 478 -27 l 1
 128 652 l 2
 101 708 87 718 24 720 c 1
 24 807 l 1
 509 807 l 1
 509 720 l 1
 478 720 l 2
 437 720 418 708 418 684 c 0
 418 672 423 655 432 638 c 2
 613 270 l 1
EndSplineSet
Validated: 1
EndChar

StartChar: z
Encoding: 122 122 254
Width: 916
Flags: W
HStem: 0 85<384 658.15> 722 85<256.066 524>
LayerCount: 2
Fore
SplineSet
845 807 m 1
 845 725 l 1
 384 85 l 1
 490 85 l 2
 606 85 634 95 678 150 c 0
 716 196 737 242 761 324 c 1
 845 324 l 1
 828 0 l 1
 60 0 l 1
 60 75 l 1
 524 722 l 1
 437 722 l 2
 318 722 287 713 249 674 c 0
 223 647 206 606 174 500 c 1
 87 500 l 1
 108 807 l 1
 845 807 l 1
EndSplineSet
Validated: 1
EndChar

StartChar: braceleft
Encoding: 123 123 255
Width: 663
Flags: W
HStem: -184 78<516.17 609> 1154 78<242.918 301>
VStem: 31 206<870.914 1147.05> 113 211<580.703 881.43>
LayerCount: 2
Fore
SplineSet
31 486 m 1xe0
 13 561 l 1
 87 579 113 604 113 658 c 0xd0
 113 689 104 731 91 788 c 2
 48 976 l 2
 37 1025 31 1064 31 1095 c 0
 31 1137 41 1165 61 1186 c 1
 86 1213 150 1232 213 1232 c 2
 301 1232 l 1
 319 1154 l 1
 261 1149 237 1128 237 1083 c 0xe0
 237 1069 240 1053 244 1034 c 2
 313 737 l 2
 320 706 324 679 324 656 c 0xd0
 324 584 285 550 188 524 c 1
 331 490 381 442 411 311 c 2
 458 109 l 2
 491 -36 492 -94 609 -106 c 1
 627 -184 l 1
 539 -184 l 2
 476 -184 404 -165 367 -138 c 1
 315 -102 282 -41 256 72 c 2
 213 259 l 2
 179 406 173 451 31 486 c 1xe0
EndSplineSet
Validated: 1
EndChar

StartChar: bar
Encoding: 124 124 256
Width: 1034
Flags: W
HStem: 0 21G<410.39 618> 1212 20G<131 338.61>
VStem: 131 487
LayerCount: 2
Fore
SplineSet
334 1232 m 1
 618 0 l 1
 415 0 l 1
 131 1232 l 1
 334 1232 l 1
EndSplineSet
Validated: 1
EndChar

StartChar: braceright
Encoding: 125 125 257
Width: 663
Flags: W
HStem: -184 78<95 155.846> 1154 78<-213 -118.063>
VStem: 76 210<165.656 467.372> 162 207<-96.8875 180.852>
LayerCount: 2
Fore
SplineSet
365 561 m 1xe0
 383 486 l 1
 311 467 286 445 286 392 c 0xe0
 286 361 295 318 309 259 c 2
 352 72 l 2
 363 23 369 -17 369 -48 c 0xd0
 369 -89 359 -118 339 -138 c 1
 314 -165 250 -184 187 -184 c 2
 95 -184 l 1
 76 -106 l 1xe0
 141 -99 162 -77 162 -35 c 0xd0
 162 -1 148 47 134 109 c 2
 87 311 l 2
 80 342 76 369 76 392 c 0
 76 464 115 498 212 524 c 1
 69 558 19 606 -11 737 c 2
 -80 1034 l 2
 -98 1114 -133 1147 -213 1154 c 1
 -231 1232 l 1
 -139 1232 l 2
 -76 1232 -4 1213 33 1186 c 1
 86 1150 118 1089 144 976 c 2
 187 788 l 2
 218 656 226 593 365 561 c 1xe0
EndSplineSet
Validated: 1
EndChar

StartChar: asciitilde
Encoding: 126 126 258
Width: 1034
Flags: W
HStem: 273 195<458.945 651.187> 377 195<188.005 378.508>
LayerCount: 2
Fore
SplineSet
164 288 m 1x40
 -0 377 l 1
 38 505 107 572 201 572 c 0x40
 240 572 279 561 363 532 c 1
 462 500 l 1
 541 471 555 468 581 468 c 0
 620 468 643 488 676 556 c 1
 839 466 l 1
 799 338 732 273 638 273 c 0x80
 599 273 560 281 476 312 c 1
 377 345 l 1
 298 374 284 377 258 377 c 0
 219 377 196 356 164 288 c 1x40
EndSplineSet
Validated: 1
EndChar

